STARTFONT 2.1
COMMENT
COMMENT Converted from OpenType font "OpenSans-Italic.ttf" by "otf2bdf 3.0".
COMMENT
FONT -FreeType-Open Sans-Medium-I-Normal--89-640-100-100-P-451-ISO10646-1
SIZE 64 100 100
FONTBOUNDINGBOX 152 118 -43 -24
STARTPROPERTIES 19
FOUNDRY "FreeType"
FAMILY_NAME "Open Sans"
WEIGHT_NAME "Medium"
SLANT "I"
SETWIDTH_NAME "Normal"
ADD_STYLE_NAME ""
PIXEL_SIZE 89
POINT_SIZE 640
RESOLUTION_X 100
RESOLUTION_Y 100
SPACING "P"
AVERAGE_WIDTH 451
CHARSET_REGISTRY "ISO10646"
CHARSET_ENCODING "1"
FONT_ASCENT 95
FONT_DESCENT 26
COPYRIGHT "Copyright 2020 The Open Sans Project Authors (https://github.com/googlefonts/opensans)"
_OTF_FONTFILE "OpenSans-Italic.ttf"
_OTF_PSNAME "OpenSans-Italic"
ENDPROPERTIES
CHARS 1010
STARTCHAR 0000
ENCODING 0
SWIDTH 0 0
DWIDTH 0 0
BBX 0 0 0 0
BITMAP
ENDCHAR
STARTCHAR 000D
ENCODING 13
SWIDTH 258 0
DWIDTH 23 0
BBX 0 0 0 0
BITMAP
ENDCHAR
STARTCHAR 0020
ENCODING 32
SWIDTH 258 0
DWIDTH 23 0
BBX 0 0 0 0
BITMAP
ENDCHAR
STARTCHAR 0021
ENCODING 33
SWIDTH 247 0
DWIDTH 22 0
BBX 22 64 2 -1
BITMAP
0007FC
0007F8
0007F8
000FF8
000FF8
000FF0
000FF0
000FF0
000FF0
001FF0
001FE0
001FE0
001FE0
001FE0
003FC0
003FC0
003FC0
003FC0
003F80
003F80
007F80
007F80
007F00
007F00
007F00
00FF00
00FE00
00FE00
00FE00
00FE00
00FC00
01FC00
01FC00
01FC00
01F800
01F800
03F800
03F800
03F000
03F000
03F000
03F000
07E000
07E000
07E000
000000
000000
000000
000000
000000
000000
000000
000000
1F8000
3FC000
7FC000
7FC000
FFC000
FFC000
FFC000
FFC000
FF8000
7F8000
3E0000
ENDCHAR
STARTCHAR 0022
ENCODING 34
SWIDTH 382 0
DWIDTH 34 0
BBX 26 22 10 41
BITMAP
1FE03FC0
1FC03F80
1FC07F80
3FC07F80
3F807F00
3F807F00
3F807F00
3F807F00
3F007E00
3F00FE00
7F00FE00
7E00FC00
7E00FC00
7E00FC00
7E00FC00
7C00F800
7C01F800
FC01F800
F801F000
F801F000
F801F000
F801F000
ENDCHAR
STARTCHAR 0023
ENCODING 35
SWIDTH 641 0
DWIDTH 57 0
BBX 55 63 3 0
BITMAP
000000FC001F00
000001F8001F00
000001F8003F00
000001F8003F00
000003F0003E00
000003F0007E00
000003F0007E00
000003F0007E00
000007E0007C00
000007E000FC00
000007E000FC00
00000FC000F800
00000FC001F800
00000FC001F800
00000FC001F800
00001F8003F000
00001F8003F000
00001F8003F000
00003F0003E000
07FFFFFFFFFFFE
07FFFFFFFFFFFE
07FFFFFFFFFFFE
07FFFFFFFFFFFC
07FFFFFFFFFFFC
00007E000FC000
00007C001F8000
0000FC001F8000
0000FC001F8000
0000F8001F0000
0001F8003F0000
0001F8003F0000
0001F8003F0000
0003F0007E0000
0003F0007E0000
0003F0007E0000
0003E0007C0000
0007E000FC0000
0007E000FC0000
0007E000FC0000
FFFFFFFFFFFFC0
FFFFFFFFFFFFC0
FFFFFFFFFFFF80
FFFFFFFFFFFF80
FFFFFFFFFFFF80
001F8003F00000
001F8003E00000
003F0007E00000
003F0007E00000
003F0007E00000
003E0007C00000
007E000FC00000
007E000FC00000
007E000F800000
00FC001F800000
00FC001F800000
00FC001F800000
00F8003F000000
01F8003F000000
01F8003F000000
01F0003E000000
03F0007E000000
03F0007E000000
03F0007E000000
ENDCHAR
STARTCHAR 0024
ENCODING 36
SWIDTH 540 0
DWIDTH 48 0
BBX 43 72 3 -5
BITMAP
0000001F8000
0000001F0000
0000001F0000
0000001F0000
0000003F0000
0000003F0000
0000003E0000
000001FF8000
00001FFFFC00
00007FFFFF80
0001FFFFFFE0
0007FFFFFFE0
000FFFFFFFE0
001FFEFC7FC0
003FF0FC0FC0
003FC0FC0180
007F80F80000
007F00F80000
00FE01F80000
00FE01F80000
00FE01F00000
00FE01F00000
00FC01F00000
00FC03F00000
00FE03F00000
00FE03E00000
00FE03E00000
00FF03E00000
007F87E00000
007FE7E00000
003FFFC00000
001FFFC00000
000FFFC00000
0007FFF00000
0003FFFE0000
0000FFFF0000
00001FFFC000
00001FFFE000
00001FFFF000
00001F3FF800
00001F0FF800
00001F07F800
00003F03FC00
00003F01FC00
00003E01FC00
00003E01FC00
00007E01FC00
00007E01FC00
00007C01FC00
00007C01FC00
00007C03FC00
0000FC03F800
0000FC07F800
C000F80FF000
F000F81FF000
FF00F8FFE000
FFFDFFFFC000
FFFFFFFF8000
FFFFFFFE0000
FFFFFFFC0000
1FFFFFF00000
01FFFF800000
0007E0000000
0003E0000000
0003E0000000
0007E0000000
0007E0000000
0007C0000000
0007C0000000
0007C0000000
000FC0000000
000FC0000000
ENDCHAR
STARTCHAR 0025
ENCODING 37
SWIDTH 787 0
DWIDTH 70 0
BBX 60 65 7 -1
BITMAP
000FFC0000000000
003FFE0000007F00
007FFF0000007E00
00FFFF800000FE00
01FFFFC00001FC00
03FC1FC00001F800
07F80FE00003F000
07F00FE00007F000
0FE007E0000FE000
0FC007E0000FC000
1FC007E0001F8000
1F8007E0003F8000
3F8007E0007F0000
3F0007E0007E0000
3F0007E000FC0000
3F0007E001FC0000
7E0007E003F80000
7E0007E003F00000
7E0007E007E00000
7E000FC00FE00000
7E000FC01FC00000
FE000FC01F800000
FC000FC03F000000
FC001FC07F000000
FC001F80FE000000
FC001F80FC03F800
FC003F81F81FFE00
FC003F03F83FFF00
FC003F07F0FFFF80
FC007E07E1FFFFC0
FE00FE0FC1FFFFC0
7E00FC1FC3F80FE0
7F01FC3F87F007E0
7F87F83F07E007E0
3FFFF07E0FE007F0
3FFFE0FE0FC007F0
1FFFC0FC1FC003F0
0FFF81F81F8003F0
03FE03F81F8003F0
000007F03F8003F0
000007E03F0007E0
00000FC03F0007E0
00001FC03F0007E0
00003F807E0007E0
00003F007E0007E0
00007E007E0007E0
0000FE007E000FE0
0001FC007E000FC0
0001F8007E000FC0
0003F0007E000FC0
0007F0007E001F80
000FE000FE001F80
000FC000FE001F80
001F80007E003F00
003F80007E003F00
007F00007E007E00
007E00007E00FE00
00FC00007F00FC00
01FC00007F03FC00
03F800003FFFF800
03F000003FFFF000
07E000001FFFE000
0FE000000FFFC000
1FC0000007FF0000
0000000001FC0000
ENDCHAR
STARTCHAR 0026
ENCODING 38
SWIDTH 663 0
DWIDTH 59 0
BBX 54 65 3 -1
BITMAP
000001FFF00000
000007FFFC0000
00001FFFFE0000
00003FFFFF0000
00007FFFFF8000
0000FFFBFFC000
0001FF007FC000
0001FE001FE000
0003FC001FE000
0003F8000FE000
0007F8000FE000
0007F0000FF000
0007F00007F000
0007F0000FE000
0007F0000FE000
0007F0000FE000
0007F0000FE000
0007F0001FC000
0007F0003FC000
0007F0007F8000
0007F000FF8000
0003F801FF0000
0003F807FE0000
0003FC0FFC0000
0001FC3FF00000
0001FEFFE00000
0000FFFF800000
0000FFFE000000
00007FFC000000
0000FFF0000000
0003FFC0000000
000FFFE0000000
003FFFF0000000
007FFFF0000000
00FFC7F80001FC
03FF03FC0003FC
07FE01FE0003F8
0FF801FE0007F8
0FF000FF0007F0
1FE0007F800FF0
3FC0007F800FE0
3F80003FC01FE0
7F80001FE01FC0
7F00001FF03F80
7F00000FF07F80
FE000007F8FF00
FE000003FDFE00
FE000003FFFC00
FE000001FFF800
FE000000FFF800
FE000000FFF000
FE0000007FE000
FF0000007FC000
FF000000FFE000
7F800003FFF000
7F800007FFF000
7FC0001FFFF800
3FF0007FF7FC00
3FFE03FFE3FE00
1FFFFFFF81FE00
0FFFFFFF00FF00
07FFFFFC00FF80
01FFFFF0007FC0
007FFFC0003FC0
000FF800000000
ENDCHAR
STARTCHAR 0027
ENCODING 39
SWIDTH 213 0
DWIDTH 19 0
BBX 11 22 10 41
BITMAP
1FE0
1FC0
1FC0
3FC0
3F80
3F80
3F80
3F80
3F00
3F00
7F00
7E00
7E00
7E00
7E00
7C00
7C00
FC00
F800
F800
F800
F800
ENDCHAR
STARTCHAR 0028
ENCODING 40
SWIDTH 281 0
DWIDTH 25 0
BBX 29 77 3 -14
BITMAP
000007F8
00000FE0
00000FE0
00001FC0
00003F80
00007F00
0000FE00
0001FE00
0001FC00
0003F800
0007F000
0007F000
000FE000
001FC000
001FC000
003F8000
007F8000
007F0000
00FF0000
00FE0000
01FE0000
01FC0000
03FC0000
03F80000
07F80000
07F00000
07F00000
0FF00000
0FE00000
0FE00000
1FE00000
1FC00000
1FC00000
1FC00000
3F800000
3F800000
3F800000
3F800000
7F800000
7F000000
7F000000
7F000000
7F000000
7F000000
7F000000
7F000000
7F000000
7E000000
FE000000
FE000000
FE000000
FE000000
FE000000
FE000000
7E000000
7E000000
7F000000
7F000000
7F000000
7F000000
7F000000
7F000000
3F000000
3F000000
3F800000
3F800000
3F800000
1F800000
1F800000
1FC00000
0FC00000
0FC00000
07E00000
07E00000
07E00000
03F00000
03F00000
ENDCHAR
STARTCHAR 0029
ENCODING 41
SWIDTH 281 0
DWIDTH 25 0
BBX 28 77 -6 -14
BITMAP
0000FC00
00007E00
00007E00
00007F00
00003F00
00003F00
00003F80
00001F80
00001F80
00001FC0
00001FC0
00000FC0
00000FC0
00000FE0
00000FE0
00000FE0
00000FE0
000007E0
000007E0
000007F0
000007F0
000007F0
000007F0
000007F0
000007F0
000007F0
000007F0
000007F0
000007F0
000007F0
000007F0
000007F0
000007F0
00000FE0
00000FE0
00000FE0
00000FE0
00000FE0
00000FE0
00001FE0
00001FC0
00001FC0
00001FC0
00001FC0
00003F80
00003F80
00003F80
00007F80
00007F00
00007F00
0000FE00
0000FE00
0001FE00
0001FC00
0001FC00
0003F800
0003F800
0007F000
0007F000
000FE000
001FE000
001FC000
003FC000
003F8000
007F0000
00FF0000
00FE0000
01FC0000
03F80000
03F80000
07F00000
0FE00000
1FC00000
3F800000
3F000000
7F000000
FC000000
ENDCHAR
STARTCHAR 002A
ENCODING 42
SWIDTH 540 0
DWIDTH 48 0
BBX 41 41 9 27
BITMAP
000004000000
00000FE00000
00000FF00000
00000FE00000
00000FE00000
00000FE00000
00000FC00000
00000FC00000
00000FC00000
00000F800000
38001F800000
3E001F800000
3F801F000000
7FE01F000000
7FF81F000000
FFFE1F000000
1FFF9E000000
03FFFE000780
007FFFFFFF80
000FFFFFFF80
0001FFFFFF80
0000FFFFFF80
0001FF7FFF80
0003FF001F00
000FFF000000
001FCF800000
003F8F800000
007F0FC00000
00FF07C00000
01FE07E00000
03FC07E00000
07F803F00000
0FF003F00000
1FF003F80000
0FE003F80000
07C001FC0000
038001FC0000
018001FE0000
000000FE0000
000000F80000
000000C00000
ENDCHAR
STARTCHAR 002B
ENCODING 43
SWIDTH 562 0
DWIDTH 50 0
BBX 42 43 6 10
BITMAP
00003F000000
00003F000000
00003F000000
00003F000000
00003F000000
00003F000000
00003F000000
00003F000000
00003F000000
00003F000000
00003F000000
00003F000000
00003F000000
00003F000000
00003F000000
00003F000000
00003F000000
00003F000000
00003F000000
FFFFFFFFFFC0
FFFFFFFFFFC0
FFFFFFFFFFC0
FFFFFFFFFFC0
FFFFFFFFFFC0
FFFFFFFFFFC0
00003F000000
00003F000000
00003F000000
00003F000000
00003F000000
00003F000000
00003F000000
00003F000000
00003F000000
00003F000000
00003F000000
00003F000000
00003F000000
00003F000000
00003F000000
00003F000000
00003F000000
00003F000000
ENDCHAR
STARTCHAR 002C
ENCODING 44
SWIDTH 247 0
DWIDTH 22 0
BBX 16 21 -3 -11
BITMAP
00FF
01FF
01FE
01FE
03FC
03FC
07F8
07F8
07F0
0FF0
0FE0
1FE0
1FC0
1FC0
3F80
3F00
7F00
7E00
FE00
FC00
F800
ENDCHAR
STARTCHAR 002D
ENCODING 45
SWIDTH 303 0
DWIDTH 27 0
BBX 23 7 2 20
BITMAP
3FFFFE
3FFFFC
7FFFFC
7FFFFC
7FFFFC
7FFFFC
FFFFF8
ENDCHAR
STARTCHAR 002E
ENCODING 46
SWIDTH 247 0
DWIDTH 22 0
BBX 10 11 2 -1
BITMAP
1F80
3FC0
7FC0
7FC0
FFC0
FFC0
FFC0
FFC0
FF80
7F80
3E00
ENDCHAR
STARTCHAR 002F
ENCODING 47
SWIDTH 348 0
DWIDTH 31 0
BBX 42 63 -4 0
BITMAP
000000001FC0
000000003FC0
000000003F80
000000007F80
000000007F00
00000000FE00
00000001FE00
00000001FC00
00000003FC00
00000003F800
00000007F800
00000007F000
0000000FF000
0000000FE000
0000001FC000
0000003FC000
0000003F8000
0000007F8000
0000007F0000
000000FF0000
000000FE0000
000001FE0000
000001FC0000
000003F80000
000007F80000
000007F00000
00000FF00000
00000FE00000
00001FE00000
00001FC00000
00003FC00000
00003F800000
00007F000000
0000FF000000
0000FE000000
0001FE000000
0001FC000000
0003FC000000
0003F8000000
0007F8000000
000FF0000000
000FE0000000
001FE0000000
001FC0000000
003FC0000000
003F80000000
007F80000000
007F00000000
00FF00000000
01FE00000000
01FC00000000
03FC00000000
03F800000000
07F800000000
07F000000000
0FF000000000
0FE000000000
1FC000000000
3FC000000000
3F8000000000
7F8000000000
7F0000000000
FF0000000000
ENDCHAR
STARTCHAR 0030
ENCODING 48
SWIDTH 540 0
DWIDTH 48 0
BBX 42 65 5 -1
BITMAP
00000FFF8000
00003FFFE000
0000FFFFF000
0001FFFFF800
0003FFFFFC00
000FFFFFFE00
000FFC03FF00
001FF001FF00
003FE000FF80
007FC0007F80
007F80007F80
00FF00003FC0
01FF00003FC0
01FE00003FC0
03FC00001FC0
03FC00001FC0
07F800001FC0
07F800001FC0
07F000001FC0
0FF000001FC0
0FF000001FC0
0FE000001FC0
1FE000001FC0
1FE000001FC0
1FC000001FC0
3FC000001FC0
3FC000001FC0
3F8000001FC0
3F8000001FC0
7F8000003FC0
7F8000003FC0
7F8000003FC0
7F0000003F80
7F0000003F80
7F0000003F80
7F0000007F80
FF0000007F80
FF0000007F80
FF0000007F00
FF000000FF00
FF000000FF00
FE000000FF00
FE000000FE00
FE000001FE00
FE000001FE00
FE000001FC00
FF000003FC00
FF000003F800
FF000007F800
7F000007F800
7F00000FF000
7F00001FF000
7F80001FE000
7F80003FC000
3FC0007FC000
3FC000FF8000
1FE001FF0000
1FF003FE0000
0FFE3FFE0000
0FFFFFFC0000
07FFFFF00000
03FFFFE00000
01FFFF800000
007FFE000000
000FF0000000
ENDCHAR
STARTCHAR 0031
ENCODING 49
SWIDTH 540 0
DWIDTH 48 0
BBX 26 63 13 0
BITMAP
00003FC0
00007FC0
0001FF80
0003FF80
000FFF80
003FFF80
007FFF80
01FFFF00
03FFFF00
0FFF7F00
1FFC7F00
7FF8FF00
FFE0FE00
7FC0FE00
7F00FE00
3E01FE00
1801FC00
0001FC00
0001FC00
0001FC00
0003FC00
0003F800
0003F800
0003F800
0007F800
0007F800
0007F000
0007F000
0007F000
000FF000
000FE000
000FE000
000FE000
000FE000
001FE000
001FC000
001FC000
001FC000
003FC000
003FC000
003F8000
003F8000
003F8000
007F8000
007F0000
007F0000
007F0000
007F0000
00FF0000
00FE0000
00FE0000
00FE0000
01FE0000
01FE0000
01FC0000
01FC0000
01FC0000
03FC0000
03F80000
03F80000
03F80000
03F80000
07F80000
ENDCHAR
STARTCHAR 0032
ENCODING 50
SWIDTH 540 0
DWIDTH 48 0
BBX 47 64 0 0
BITMAP
000001FFF800
000007FFFE00
00003FFFFF80
00007FFFFFC0
0001FFFFFFE0
0007FFFFFFF0
000FFF803FF8
0007FC000FF8
0003F00007FC
0003C00003FC
0001800003FC
0000000001FE
0000000001FE
0000000001FE
0000000001FE
0000000001FE
0000000001FE
0000000001FC
0000000001FC
0000000001FC
0000000003FC
0000000003F8
0000000003F8
0000000007F8
000000000FF0
000000000FF0
000000001FE0
000000003FC0
000000007FC0
00000000FF80
00000000FF00
00000001FE00
00000003FC00
0000000FF800
0000001FF000
0000003FE000
0000007FC000
000000FF8000
000001FF0000
000003FE0000
000007FC0000
00000FF80000
00001FF00000
00003FE00000
0000FFC00000
0001FF000000
0003FE000000
0007FC000000
000FF8000000
001FF0000000
003FE0000000
007FC0000000
00FF00000000
03FE00000000
07FC00000000
0FF800000000
1FF000000000
3FFFFFFFFF80
3FFFFFFFFF00
7FFFFFFFFF00
7FFFFFFFFF00
7FFFFFFFFF00
7FFFFFFFFF00
FFFFFFFFFE00
ENDCHAR
STARTCHAR 0033
ENCODING 51
SWIDTH 540 0
DWIDTH 48 0
BBX 45 65 2 -1
BITMAP
000007FFE000
00003FFFFC00
0000FFFFFE00
0003FFFFFF80
000FFFFFFF80
003FFFFFFFC0
003FFC00FFE0
001FE0003FE0
000F80001FF0
000F00000FF0
000400000FF0
0000000007F8
0000000007F8
0000000007F8
0000000007F8
0000000007F8
0000000007F0
0000000007F0
0000000007F0
000000000FF0
000000000FE0
000000001FE0
000000003FC0
000000003FC0
00000000FF80
00000001FF00
00000007FE00
0000003FFC00
0003FFFFF000
0003FFFFC000
0003FFFE0000
0003FFF00000
0007FFFE0000
0007FFFF8000
000003FFE000
0000003FF000
0000000FF800
00000007FC00
00000003FC00
00000001FE00
00000001FE00
00000000FE00
00000000FF00
00000000FF00
00000000FF00
00000000FF00
00000000FF00
00000000FF00
00000000FF00
00000000FE00
00000001FE00
00000001FE00
00000003FC00
00000003FC00
00000007FC00
C000000FF800
F800003FF000
FF0000FFF000
FFF807FFE000
FFFFFFFFC000
FFFFFFFF0000
FFFFFFFE0000
1FFFFFF80000
03FFFFC00000
003FFC000000
ENDCHAR
STARTCHAR 0034
ENCODING 52
SWIDTH 540 0
DWIDTH 48 0
BBX 46 64 1 0
BITMAP
0000000007F8
000000000FF8
000000001FF8
000000001FF8
000000003FF8
000000007FF0
00000000FFF0
00000001FFF0
00000003FBF0
00000007F7F0
00000007F7E0
0000000FE7E0
0000001FC7E0
0000003FCFE0
0000007F8FE0
000000FF0FC0
000001FE1FC0
000001FC1FC0
000003F81FC0
000007F81FC0
00000FF03F80
00001FE03F80
00003FC03F80
00007F803F80
00007F007F00
0000FE007F00
0001FC007F00
0003FC007F00
0007F8007F00
000FF000FE00
001FE000FE00
001FC000FE00
003F8000FE00
007F0000FE00
00FF0001FC00
01FE0001FC00
03FC0001FC00
07F80001FC00
07F00003FC00
0FE00003F800
1FC00003F800
3FC00003F800
7F800003F800
7FFFFFFFFFFC
7FFFFFFFFFFC
FFFFFFFFFFFC
FFFFFFFFFFFC
FFFFFFFFFFFC
FFFFFFFFFFF8
0000000FE000
0000000FE000
0000000FE000
0000001FC000
0000001FC000
0000001FC000
0000001FC000
0000001FC000
0000003F8000
0000003F8000
0000003F8000
0000003F8000
0000003F8000
0000007F0000
0000007F0000
ENDCHAR
STARTCHAR 0035
ENCODING 53
SWIDTH 540 0
DWIDTH 48 0
BBX 44 64 3 -1
BITMAP
0001FFFFFFF0
0001FFFFFFF0
0001FFFFFFF0
0003FFFFFFF0
0003FFFFFFF0
0003FFFFFFE0
0003F0000000
0007F0000000
0007F0000000
0007E0000000
000FE0000000
000FE0000000
000FE0000000
001FC0000000
001FC0000000
001FC0000000
001F80000000
003F80000000
003F80000000
003F00000000
007F00000000
007F00000000
007F00000000
007E00000000
00FE1FE00000
00FFFFFC0000
00FFFFFF0000
01FFFFFFC000
01FFFFFFE000
01FFFFFFF000
00FE00FFF800
0020001FFC00
00000007FC00
00000003FE00
00000001FE00
00000001FE00
00000000FF00
00000000FF00
00000000FF00
00000000FF00
000000007F00
000000007F00
000000007F00
000000007F00
00000000FF00
00000000FF00
00000000FF00
00000000FE00
00000001FE00
00000001FE00
00000003FC00
00000003FC00
00000007F800
0000000FF800
C000001FF000
F000007FE000
FE0001FFE000
FFE01FFFC000
FFFFFFFF0000
FFFFFFFE0000
FFFFFFF80000
3FFFFFF00000
07FFFF800000
003FF8000000
ENDCHAR
STARTCHAR 0036
ENCODING 54
SWIDTH 540 0
DWIDTH 48 0
BBX 42 65 6 -1
BITMAP
0000003FFFC0
000001FFFFC0
000007FFFFC0
00001FFFFFC0
00007FFFFFC0
0000FFFFFF80
0001FFF00080
0003FF800000
0007FE000000
000FF8000000
001FF0000000
003FE0000000
007FC0000000
007F80000000
00FF00000000
01FE00000000
01FC00000000
03FC00000000
03F800000000
07F800000000
07F000000000
0FF000000000
0FE000000000
0FE000000000
1FE00FE00000
1FC07FFE0000
1FC1FFFF0000
3FC7FFFFC000
3F8FFFFFE000
3F9FFFFFE000
7FBFC07FF000
7FFE001FF800
7FFC000FF800
7FF00007F800
7FE00003FC00
FFC00003FC00
FFC00001FC00
FF800001FC00
FF000001FC00
FF000001FC00
FE000001FC00
FE000001FC00
FE000001FC00
FE000001FC00
FE000001FC00
FE000001FC00
FE000003FC00
FE000003F800
FE000003F800
FE000007F800
FE000007F800
FF000007F000
FF00000FF000
7F00001FE000
7F80003FE000
7FC0007FC000
3FE000FF8000
3FF001FF8000
1FFC0FFF0000
0FFFFFFE0000
07FFFFF80000
03FFFFF00000
01FFFFC00000
007FFF000000
000FF8000000
ENDCHAR
STARTCHAR 0037
ENCODING 55
SWIDTH 540 0
DWIDTH 48 0
BBX 42 63 8 0
BITMAP
1FFFFFFFFFC0
1FFFFFFFFFC0
3FFFFFFFFF80
3FFFFFFFFF80
3FFFFFFFFF80
3FFFFFFFFF80
000000007F00
00000000FF00
00000000FE00
00000001FC00
00000003FC00
00000003F800
00000007F800
00000007F000
0000000FF000
0000001FE000
0000001FC000
0000003FC000
0000003F8000
0000007F8000
000000FF0000
000000FE0000
000001FE0000
000001FC0000
000003FC0000
000003F80000
000007F80000
00000FF00000
00000FE00000
00001FE00000
00001FC00000
00003FC00000
00007F800000
00007F000000
0000FF000000
0000FE000000
0001FE000000
0003FC000000
0003FC000000
0007F8000000
0007F0000000
000FF0000000
000FE0000000
001FE0000000
003FC0000000
003FC0000000
007F80000000
007F00000000
00FF00000000
01FE00000000
01FE00000000
03FC00000000
03F800000000
07F800000000
0FF000000000
0FF000000000
1FE000000000
1FE000000000
3FC000000000
3F8000000000
7F8000000000
FF0000000000
FF0000000000
ENDCHAR
STARTCHAR 0038
ENCODING 56
SWIDTH 540 0
DWIDTH 48 0
BBX 44 65 4 -1
BITMAP
000007FFE000
00001FFFF800
00007FFFFE00
0001FFFFFF00
0003FFFFFF80
0007FFFFFFC0
000FFE00FFC0
000FF8003FE0
001FF0001FE0
001FE0000FF0
003FC0000FF0
003F80000FF0
003F800007F0
003F800007F0
007F800007F0
007F800007F0
007F000007F0
007F80000FF0
007F80000FE0
003F80000FE0
003F80001FE0
003FC0003FC0
001FC0007F80
001FE000FF00
000FF003FF00
000FF807FC00
0007FC1FF800
0003FFFFF000
0001FFFFC000
00007FFF0000
0000FFFC0000
0007FFFC0000
001FFFFE0000
003FFFFF8000
00FFF0FFC000
01FFC07FE000
03FE001FF000
07FC000FF800
0FF00007F800
1FE00003FC00
3FC00003FC00
3F800001FE00
7F800001FE00
7F000000FE00
7F000000FE00
FF000000FE00
FF000000FE00
FF000000FE00
FF000000FE00
FF000000FE00
FF000001FE00
FF000001FE00
FF000001FC00
7F800003FC00
7F800007FC00
7FC0000FF800
3FE0001FF800
3FF8007FF000
1FFE03FFE000
0FFFFFFFC000
07FFFFFF8000
03FFFFFE0000
01FFFFFC0000
007FFFE00000
0007FE000000
ENDCHAR
STARTCHAR 0039
ENCODING 57
SWIDTH 540 0
DWIDTH 48 0
BBX 42 65 4 -1
BITMAP
00000FFF0000
00007FFFC000
0001FFFFF000
0007FFFFF800
000FFFFFFC00
001FFFFFFE00
003FF807FE00
007FE001FF00
00FF8000FF00
00FF00007F80
01FE00003F80
01FC00003FC0
03FC00003FC0
03F800001FC0
07F800001FC0
07F000001FC0
07F000001FC0
07F000001FC0
0FF000001FC0
0FE000001FC0
0FE000001FC0
0FE000001FC0
0FE000001FC0
0FE000001FC0
0FE000003FC0
0FE000003FC0
0FE000003FC0
0FE000007FC0
0FF00000FFC0
0FF00000FFC0
07F80001FF80
07F80007FF80
07FC000FFF80
03FF003FBF80
01FFFFFF7F80
01FFFFFE7F00
00FFFFFC7F00
007FFFF87F00
001FFFE0FE00
0007FF80FE00
00000000FE00
00000001FC00
00000001FC00
00000003FC00
00000003F800
00000003F800
00000007F800
00000007F000
0000000FF000
0000001FE000
0000001FE000
0000003FC000
0000007F8000
000000FF8000
000001FF0000
000003FE0000
00000FFC0000
E0003FF80000
FF0FFFF00000
FFFFFFE00000
FFFFFFC00000
FFFFFF000000
FFFFFC000000
FFFFF0000000
07FE00000000
ENDCHAR
STARTCHAR 003A
ENCODING 58
SWIDTH 247 0
DWIDTH 22 0
BBX 18 50 2 -1
BITMAP
000E00
003F80
007F80
00FFC0
00FFC0
01FFC0
01FF80
01FF80
01FF80
00FF00
00FE00
001000
000000
000000
000000
000000
000000
000000
000000
000000
000000
000000
000000
000000
000000
000000
000000
000000
000000
000000
000000
000000
000000
000000
000000
000000
000000
000000
000000
1F8000
3FC000
7FC000
7FC000
FFC000
FFC000
FFC000
FFC000
FF8000
7F8000
3E0000
ENDCHAR
STARTCHAR 003B
ENCODING 59
SWIDTH 247 0
DWIDTH 22 0
BBX 24 60 -4 -11
BITMAP
000038
0000FE
0001FE
0003FF
0003FF
0007FF
0007FE
0007FE
0007FE
0003FC
0003F8
000040
000000
000000
000000
000000
000000
000000
000000
000000
000000
000000
000000
000000
000000
000000
000000
000000
000000
000000
000000
000000
000000
000000
000000
000000
000000
000000
000000
00FF80
00FF00
01FF00
01FE00
01FE00
03FC00
03FC00
03F800
07F800
07F000
0FF000
0FE000
0FE000
1FC000
1FC000
3F8000
3F0000
7F0000
7E0000
7C0000
FC0000
ENDCHAR
STARTCHAR 003C
ENCODING 60
SWIDTH 562 0
DWIDTH 50 0
BBX 42 43 6 11
BITMAP
000000000040
0000000001C0
0000000007C0
000000001FC0
000000007FC0
00000001FFC0
00000007FFC0
0000001FFF00
0000007FFC00
000001FFF000
000007FFC000
00001FFF0000
00007FFC0000
0001FFE00000
0007FF800000
001FFE000000
007FF8000000
01FFE0000000
07FF80000000
1FFE00000000
7FF800000000
FFC000000000
FF0000000000
FFC000000000
FFF000000000
7FFE00000000
0FFF80000000
03FFF0000000
00FFFC000000
003FFF000000
0007FFE00000
0001FFF80000
00007FFE0000
00001FFFC000
000003FFF000
000000FFFC00
0000003FFF80
00000007FFC0
00000001FFC0
000000007FC0
000000001FC0
0000000003C0
0000000000C0
ENDCHAR
STARTCHAR 003D
ENCODING 61
SWIDTH 562 0
DWIDTH 50 0
BBX 40 24 7 19
BITMAP
FFFFFFFFFF
FFFFFFFFFF
FFFFFFFFFF
FFFFFFFFFF
FFFFFFFFFF
FFFFFFFFFF
0000000000
0000000000
0000000000
0000000000
0000000000
0000000000
0000000000
0000000000
0000000000
0000000000
0000000000
0000000000
FFFFFFFFFF
FFFFFFFFFF
FFFFFFFFFF
FFFFFFFFFF
FFFFFFFFFF
FFFFFFFFFF
ENDCHAR
STARTCHAR 003E
ENCODING 62
SWIDTH 562 0
DWIDTH 50 0
BBX 42 43 6 11
BITMAP
800000000000
E00000000000
F80000000000
FE0000000000
FF8000000000
FFE000000000
FFF800000000
3FFE00000000
0FFF80000000
03FFE0000000
00FFF8000000
001FFE000000
0007FF800000
0001FFE00000
00007FF80000
00001FFE0000
000007FF8000
000001FFE000
0000007FF800
0000001FFE00
00000003FF80
00000000FFC0
000000003FC0
00000000FFC0
00000003FFC0
0000000FFF80
0000007FFE00
000001FFF000
000007FFC000
00003FFF0000
0000FFFC0000
0007FFE00000
001FFF800000
007FFE000000
03FFF0000000
0FFFC0000000
3FFF00000000
FFFC00000000
FFE000000000
FF8000000000
FE0000000000
F80000000000
C00000000000
ENDCHAR
STARTCHAR 003F
ENCODING 63
SWIDTH 416 0
DWIDTH 37 0
BBX 33 65 7 -1
BITMAP
001FFF0000
01FFFFC000
07FFFFF000
1FFFFFF800
3FFFFFFC00
3FFFFFFE00
1FF007FF00
1F8001FF00
0E0000FF00
0000007F80
0000007F80
0000007F80
0000003F80
0000003F80
0000003F80
0000003F80
0000003F80
0000007F80
0000007F00
0000007F00
000000FF00
000000FE00
000001FE00
000003FC00
000007F800
00000FF800
00003FF000
00007FE000
0000FFC000
0001FF8000
0007FE0000
000FFC0000
001FF80000
003FF00000
007FC00000
00FF800000
00FF000000
01FE000000
01FC000000
03F8000000
03F0000000
07F0000000
07E0000000
07E0000000
07E0000000
0FC0000000
0000000000
0000000000
0000000000
0000000000
0000000000
0000000000
0000000000
0000000000
1F80000000
3FC0000000
7FC0000000
7FC0000000
FFC0000000
FFC0000000
FFC0000000
FFC0000000
FF80000000
7F80000000
3E00000000
ENDCHAR
STARTCHAR 0040
ENCODING 64
SWIDTH 843 0
DWIDTH 75 0
BBX 68 71 5 -8
BITMAP
000000007FFF800000
0000000FFFFFF80000
0000007FFFFFFE0000
000001FFFFFFFF8000
000007FFFFFFFFC000
00001FFFE007FFE000
00003FFC00007FF000
0000FFE000000FF800
0001FF80000003FC00
0003FE00000001FE00
0007F800000000FF00
000FF0000000007F00
001FC0000000003F80
003F80000000003F80
007F00000000001FC0
00FE00000000000FC0
01FC00000000000FC0
01FC00001FF0000FE0
03F80001FFFF0007E0
07F00007FFFFE007E0
07F0001FFFFFE007E0
0FE0003FFFFFC007F0
0FC000FFE07FC003F0
1FC001FF001FC003F0
1F8003FC001F8003F0
1F8007F8001F8003F0
3F0007F0001F8003F0
3F000FE0003F8003F0
3F001FC0003F0003F0
7F001FC0003F0003F0
7E003F80003F0003F0
7E003F80007F0003F0
7E003F00007E0007E0
FE007F00007E0007E0
FC007E0000FE0007E0
FC007E0000FE0007E0
FC007E0000FC000FE0
FC00FE0001FC000FC0
FC00FE0001FC000FC0
FC00FE0001FC001FC0
FC00FE0003F8001F80
FC00FE0003F8003F80
FC00FE0007F8003F00
FC00FE0007F8007F00
FC00FE000FF800FE00
FC007E001FF800FE00
FC007F003EFC01FC00
FE007F80FCFE07F800
FE003FFFFC7FFFF000
7E003FFFF87FFFE000
7E001FFFF03FFFC000
7F000FFFC03FFF8000
7F0003FF800FFE0000
3F0000300000C00000
3F8000000000000000
3FC000000000000000
1FC000000000000000
1FE000000000000000
0FF000000000000000
07F800000000000000
07FC00000000000000
03FE00000000000000
01FF80000003000000
00FFE000001F000000
007FFC0001FF000000
003FFFFFFFFF000000
000FFFFFFFFF000000
0003FFFFFFFF000000
0000FFFFFFF8000000
00003FFFFFC0000000
000003FFF800000000
ENDCHAR
STARTCHAR 0041
ENCODING 65
SWIDTH 551 0
DWIDTH 49 0
BBX 50 63 -5 0
BITMAP
000000003FE000
000000003FE000
000000007FE000
000000007FE000
00000000FFE000
00000000FFE000
00000001FFE000
00000003FFE000
00000003FFF000
00000007F7F000
00000007F7F000
0000000FE7F000
0000000FE7F000
0000001FC3F000
0000001FC3F000
0000003F83F000
0000007F83F800
0000007F03F800
000000FF03F800
000000FE03F800
000001FE03F800
000001FC03F800
000003FC03F800
000003F801F800
000007F801FC00
000007F001FC00
00000FF001FC00
00001FE001FC00
00001FC001FC00
00003FC001FC00
00003F8001FC00
00007F8001FE00
00007F0000FE00
0000FF0000FE00
0000FE0000FE00
0001FE0000FE00
0001FFFFFFFE00
0003FFFFFFFE00
0007FFFFFFFE00
0007FFFFFFFF00
000FFFFFFFFF00
000FFFFFFFFF00
001FFFFFFFFF00
001FC000007F00
003FC000007F00
003F8000007F00
007F8000007F00
00FF0000007F80
00FF0000007F80
01FE0000003F80
01FE0000003F80
03FC0000003F80
03FC0000003F80
07F80000003F80
07F80000003F80
0FF00000003FC0
0FF00000003FC0
1FE00000001FC0
3FC00000001FC0
3FC00000001FC0
7F800000001FC0
7F800000001FC0
FF000000001FC0
ENDCHAR
STARTCHAR 0042
ENCODING 66
SWIDTH 596 0
DWIDTH 53 0
BBX 48 63 4 0
BITMAP
0007FFFFFC00
0007FFFFFF80
0007FFFFFFE0
000FFFFFFFF0
000FFFFFFFF8
000FFFFFFFFC
000FE0003FFC
001FE00007FE
001FE00003FE
001FC00001FF
001FC00000FF
001FC00000FF
003FC00000FF
003FC000007F
003F8000007F
003F8000007F
003F8000007F
007F800000FF
007F000000FF
007F000000FE
007F000001FE
00FF000001FE
00FF000003FC
00FE000007F8
00FE00001FF0
00FE00007FE0
01FE0007FFC0
01FFFFFFFF80
01FFFFFFFE00
01FFFFFFF000
01FFFFFFE000
03FFFFFFF800
03FFFFFFFE00
03F80007FF00
03F80000FF80
03F800007FC0
07F800003FE0
07F000001FE0
07F000001FE0
07F000000FF0
0FF000000FF0
0FF000000FF0
0FE000000FF0
0FE000000FF0
0FE000000FF0
1FE000000FF0
1FE000000FF0
1FC000000FF0
1FC000000FF0
1FC000001FE0
3FC000001FE0
3F8000003FC0
3F8000007FC0
3F800000FF80
3F800003FF80
7F80000FFF00
7F0001FFFE00
7FFFFFFFFC00
7FFFFFFFF800
FFFFFFFFE000
FFFFFFFF8000
FFFFFFFC0000
FFFFFFC00000
ENDCHAR
STARTCHAR 0043
ENCODING 67
SWIDTH 585 0
DWIDTH 52 0
BBX 49 65 7 -1
BITMAP
0000003FFFC000
000001FFFFF800
00000FFFFFFF00
00003FFFFFFF80
00007FFFFFFF80
0001FFFFFFFF00
0003FFFC03FF00
0007FFC0003E00
000FFE00000600
001FFC00000000
003FF000000000
007FE000000000
00FFC000000000
00FF8000000000
01FF0000000000
03FE0000000000
03FC0000000000
07FC0000000000
07F80000000000
0FF00000000000
0FF00000000000
1FE00000000000
1FE00000000000
3FC00000000000
3FC00000000000
3FC00000000000
7F800000000000
7F800000000000
7F800000000000
7F800000000000
FF000000000000
FF000000000000
FF000000000000
FF000000000000
FF000000000000
FF000000000000
FE000000000000
FE000000000000
FE000000000000
FE000000000000
FE000000000000
FE000000000000
FE000000000000
FE000000000000
FF000000000000
FF000000000000
FF000000000000
FF000000000000
FF800000000000
7F800000000000
7F800000000000
7FC00000000000
3FE00000000000
3FE00000000000
1FF00000000000
1FFC0000000000
0FFE0000180000
07FF8001F80000
03FFFFFFF80000
01FFFFFFF80000
00FFFFFFF80000
007FFFFFF80000
001FFFFFF80000
0007FFFF800000
00007FF0000000
ENDCHAR
STARTCHAR 0044
ENCODING 68
SWIDTH 663 0
DWIDTH 59 0
BBX 53 63 4 0
BITMAP
0007FFFFF00000
0007FFFFFE0000
0007FFFFFF8000
000FFFFFFFE000
000FFFFFFFF800
000FFFFFFFFC00
000FE0007FFE00
001FE0000FFF00
001FE00003FF00
001FC00001FF80
001FC00000FFC0
001FC000007FC0
003FC000003FC0
003FC000003FE0
003F8000001FE0
003F8000001FE0
003F8000000FF0
007F8000000FF0
007F0000000FF0
007F0000000FF0
007F00000007F0
00FF00000007F0
00FF00000007F0
00FE00000007F8
00FE00000007F8
00FE00000007F8
01FE00000007F8
01FE00000007F0
01FC00000007F0
01FC00000007F0
01FC0000000FF0
03FC0000000FF0
03FC0000000FF0
03F80000000FF0
03F80000000FF0
03F80000001FE0
07F80000001FE0
07F00000001FE0
07F00000003FE0
07F00000003FC0
0FF00000003FC0
0FF00000007FC0
0FE00000007F80
0FE0000000FF80
0FE0000001FF00
1FE0000001FF00
1FE0000003FE00
1FC0000007FC00
1FC000000FFC00
1FC000001FF800
3FC000003FF000
3F8000007FE000
3F800001FFC000
3F800003FF8000
3F80001FFF0000
7F80007FFE0000
7F003FFFFC0000
7FFFFFFFF00000
7FFFFFFFE00000
FFFFFFFF800000
FFFFFFFC000000
FFFFFFE0000000
FFFFFC00000000
ENDCHAR
STARTCHAR 0045
ENCODING 69
SWIDTH 506 0
DWIDTH 45 0
BBX 45 63 4 0
BITMAP
0007FFFFFFF8
0007FFFFFFF8
0007FFFFFFF8
000FFFFFFFF0
000FFFFFFFF0
000FFFFFFFF0
000FE0000000
001FE0000000
001FE0000000
001FC0000000
001FC0000000
001FC0000000
003FC0000000
003FC0000000
003F80000000
003F80000000
003F80000000
007F80000000
007F00000000
007F00000000
007F00000000
00FF00000000
00FF00000000
00FE00000000
00FE00000000
00FE00000000
01FE00000000
01FFFFFFFC00
01FFFFFFFC00
01FFFFFFF800
01FFFFFFF800
03FFFFFFF800
03FFFFFFF800
03F800000000
03F800000000
03F800000000
07F800000000
07F000000000
07F000000000
07F000000000
0FF000000000
0FF000000000
0FE000000000
0FE000000000
0FE000000000
1FE000000000
1FE000000000
1FC000000000
1FC000000000
1FC000000000
3FC000000000
3F8000000000
3F8000000000
3F8000000000
3F8000000000
7F8000000000
7FFFFFFF8000
7FFFFFFF8000
7FFFFFFF8000
FFFFFFFF8000
FFFFFFFF0000
FFFFFFFF0000
FFFFFFFF0000
ENDCHAR
STARTCHAR 0046
ENCODING 70
SWIDTH 472 0
DWIDTH 42 0
BBX 45 63 4 0
BITMAP
0007FFFFFFF8
0007FFFFFFF8
0007FFFFFFF8
000FFFFFFFF8
000FFFFFFFF0
000FFFFFFFF0
000FE0000000
001FE0000000
001FE0000000
001FC0000000
001FC0000000
001FC0000000
003FC0000000
003FC0000000
003F80000000
003F80000000
003F80000000
007F80000000
007F00000000
007F00000000
007F00000000
00FF00000000
00FF00000000
00FE00000000
00FE00000000
00FE00000000
01FE00000000
01FE00000000
01FC00000000
01FFFFFFF800
01FFFFFFF800
03FFFFFFF800
03FFFFFFF800
03FFFFFFF800
03FFFFFFF000
03FFFFFFF000
07F800000000
07F000000000
07F000000000
07F000000000
0FF000000000
0FF000000000
0FE000000000
0FE000000000
0FE000000000
1FE000000000
1FE000000000
1FC000000000
1FC000000000
1FC000000000
3FC000000000
3F8000000000
3F8000000000
3F8000000000
3F8000000000
7F8000000000
7F0000000000
7F0000000000
7F0000000000
FF0000000000
FF0000000000
FE0000000000
FE0000000000
ENDCHAR
STARTCHAR 0047
ENCODING 71
SWIDTH 675 0
DWIDTH 60 0
BBX 52 65 7 -1
BITMAP
0000003FFFE000
000001FFFFFE00
00000FFFFFFFC0
00003FFFFFFFF0
00007FFFFFFFF0
0001FFFFFFFFE0
0003FFFC01FFE0
0007FFC0001FC0
000FFF000003C0
001FFC00000000
003FF000000000
007FE000000000
00FFC000000000
00FF8000000000
01FF0000000000
03FE0000000000
03FC0000000000
07FC0000000000
0FF80000000000
0FF00000000000
0FF00000000000
1FE00000000000
1FE00000000000
3FC00000000000
3FC00000000000
3FC00000000000
7F800000000000
7F800000000000
7F800000000000
7F000000000000
FF000000000000
FF00000FFFFF80
FF00000FFFFF00
FF00000FFFFF00
FF00000FFFFF00
FF00001FFFFF00
FE00001FFFFE00
FE00000000FE00
FE00000000FE00
FE00000001FE00
FE00000001FE00
FE00000001FC00
FE00000001FC00
FE00000001FC00
FF00000003FC00
FF00000003FC00
FF00000003F800
FF00000003F800
FF80000003F800
7F80000007F800
7FC0000007F000
7FC0000007F000
3FE0000007F000
3FF000000FF000
1FF800000FF000
1FFC00000FE000
0FFE00000FE000
07FFC000FFE000
03FFFFFFFFE000
01FFFFFFFFC000
00FFFFFFFFC000
003FFFFFFFC000
001FFFFFFE0000
0003FFFFE00000
00003FFC000000
ENDCHAR
STARTCHAR 0048
ENCODING 72
SWIDTH 675 0
DWIDTH 60 0
BBX 57 63 4 0
BITMAP
0007F00000007F80
0007F00000007F00
0007F00000007F00
000FF00000007F00
000FF0000000FF00
000FE0000000FE00
000FE0000000FE00
000FE0000000FE00
001FE0000000FE00
001FC0000001FE00
001FC0000001FC00
001FC0000001FC00
003FC0000001FC00
003FC0000001FC00
003F80000003FC00
003F80000003F800
003F80000003F800
007F80000003F800
007F80000007F800
007F00000007F800
007F00000007F000
007F00000007F000
00FF00000007F000
00FE0000000FF000
00FE0000000FE000
00FE0000000FE000
00FE0000000FE000
01FFFFFFFFFFE000
01FFFFFFFFFFE000
01FFFFFFFFFFC000
01FFFFFFFFFFC000
03FFFFFFFFFFC000
03FFFFFFFFFFC000
03F80000003FC000
03F80000003F8000
03F80000003F8000
07F80000003F8000
07F80000007F8000
07F00000007F8000
07F00000007F0000
07F00000007F0000
0FF00000007F0000
0FE0000000FF0000
0FE0000000FE0000
0FE0000000FE0000
0FE0000000FE0000
1FE0000000FE0000
1FC0000001FE0000
1FC0000001FC0000
1FC0000001FC0000
3FC0000001FC0000
3FC0000003FC0000
3F80000003FC0000
3F80000003F80000
3F80000003F80000
7F80000003F80000
7F80000007F80000
7F00000007F00000
7F00000007F00000
7F00000007F00000
FF00000007F00000
FE0000000FF00000
FE0000000FE00000
ENDCHAR
STARTCHAR 0049
ENCODING 73
SWIDTH 270 0
DWIDTH 24 0
BBX 20 63 4 0
BITMAP
0007F0
0007F0
0007F0
000FF0
000FE0
000FE0
000FE0
000FE0
001FE0
001FC0
001FC0
001FC0
003FC0
003F80
003F80
003F80
003F80
007F80
007F00
007F00
007F00
007F00
00FF00
00FE00
00FE00
00FE00
01FE00
01FE00
01FC00
01FC00
01FC00
03FC00
03F800
03F800
03F800
03F800
07F800
07F000
07F000
07F000
07F000
0FF000
0FE000
0FE000
0FE000
1FE000
1FC000
1FC000
1FC000
1FC000
3FC000
3F8000
3F8000
3F8000
3F8000
7F8000
7F0000
7F0000
7F0000
FF0000
FE0000
FE0000
FE0000
ENDCHAR
STARTCHAR 004A
ENCODING 74
SWIDTH 258 0
DWIDTH 23 0
BBX 38 80 -14 -17
BITMAP
00000001FC
00000001FC
00000001FC
00000003FC
00000003FC
00000003F8
00000003F8
00000003F8
00000007F8
00000007F8
00000007F0
00000007F0
00000007F0
0000000FF0
0000000FE0
0000000FE0
0000000FE0
0000001FE0
0000001FE0
0000001FC0
0000001FC0
0000001FC0
0000003FC0
0000003FC0
0000003F80
0000003F80
0000003F80
0000007F80
0000007F00
0000007F00
0000007F00
000000FF00
000000FF00
000000FE00
000000FE00
000000FE00
000001FE00
000001FE00
000001FC00
000001FC00
000001FC00
000003FC00
000003FC00
000003F800
000003F800
000007F800
000007F800
000007F000
000007F000
000007F000
00000FF000
00000FF000
00000FE000
00000FE000
00000FE000
00001FE000
00001FE000
00001FC000
00001FC000
00001FC000
00003FC000
00003F8000
00003F8000
00003F8000
00007F8000
00007F8000
00007F0000
0000FF0000
0000FF0000
0001FE0000
0003FE0000
0007FC0000
801FF80000
FFFFF80000
FFFFF00000
FFFFE00000
FFFFC00000
FFFF000000
FFFC000000
0F80000000
ENDCHAR
STARTCHAR 004B
ENCODING 75
SWIDTH 551 0
DWIDTH 49 0
BBX 53 63 4 0
BITMAP
0007F000000FF8
0007F000001FF0
0007F000003FE0
000FF000007FC0
000FE00000FF80
000FE00001FF00
000FE00003FE00
001FE00007FC00
001FE0000FF800
001FC0001FF000
001FC0003FE000
001FC0007FC000
003FC000FF8000
003F8001FF0000
003F8003FE0000
003F8007FC0000
003F800FF80000
007F801FF00000
007F003FE00000
007F007FC00000
007F00FF800000
00FF01FF000000
00FF03FE000000
00FE07FC000000
00FE0FF8000000
00FE1FF0000000
01FE3FE0000000
01FE7FC0000000
01FCFFC0000000
01FDFFE0000000
01FFFFE0000000
03FFFFF0000000
03FFEFF0000000
03FFC7F0000000
03FF87F8000000
03FE03F8000000
07FC03FC000000
07F801FC000000
07F001FE000000
07F001FE000000
0FF000FE000000
0FF000FF000000
0FE0007F000000
0FE0007F800000
0FE0007F800000
1FE0003FC00000
1FE0003FC00000
1FC0001FC00000
1FC0001FE00000
1FC0001FE00000
3FC0000FF00000
3F80000FF00000
3F800007F80000
3F800007F80000
3F800003F80000
7F800003FC0000
7F000003FC0000
7F000001FE0000
7F000001FE0000
FF000000FF0000
FF000000FF0000
FE000000FF0000
FE0000007F8000
ENDCHAR
STARTCHAR 004C
ENCODING 76
SWIDTH 472 0
DWIDTH 42 0
BBX 33 63 4 0
BITMAP
0007F00000
0007F00000
0007F00000
000FF00000
000FE00000
000FE00000
000FE00000
001FE00000
001FE00000
001FC00000
001FC00000
001FC00000
003FC00000
003F800000
003F800000
003F800000
003F800000
007F800000
007F000000
007F000000
007F000000
00FF000000
00FF000000
00FE000000
00FE000000
00FE000000
01FE000000
01FE000000
01FC000000
01FC000000
01FC000000
03FC000000
03F8000000
03F8000000
03F8000000
03F8000000
07F8000000
07F0000000
07F0000000
07F0000000
0FF0000000
0FF0000000
0FE0000000
0FE0000000
0FE0000000
1FE0000000
1FC0000000
1FC0000000
1FC0000000
1FC0000000
3FC0000000
3F80000000
3F80000000
3F80000000
3F80000000
7F80000000
7FFFFFFF80
7FFFFFFF80
7FFFFFFF80
FFFFFFFF80
FFFFFFFF00
FFFFFFFF00
FFFFFFFF00
ENDCHAR
STARTCHAR 004D
ENCODING 77
SWIDTH 832 0
DWIDTH 74 0
BBX 70 63 4 0
BITMAP
0007FF000000001FFC
0007FF000000003FFC
000FFF000000003FFC
000FFF000000007FFC
000FFF000000007FFC
000FFF00000000FFF8
000FFF00000000FFF8
001FFF00000001FFF8
001FBF80000003FBF8
001FBF80000003FBF8
001FBF80000007F7F0
001F9F80000007F7F0
003F9F8000000FE7F0
003F9F8000000FE7F0
003F9F8000001FCFF0
003F1F8000001F8FE0
007F1FC000003F8FE0
007F1FC000007F0FE0
007F1FC000007F0FE0
007F0FC00000FE1FC0
007F0FC00000FE1FC0
00FE0FC00001FC1FC0
00FE0FC00001FC1FC0
00FE0FC00003F83FC0
00FE0FE00003F03F80
00FE0FE00007F03F80
01FC07E00007E03F80
01FC07E0000FE03F80
01FC07E0001FC07F80
01FC07E0001FC07F00
01F807E0003F807F00
03F807E0003F807F00
03F807F0007F00FF00
03F807F0007E00FF00
03F803F000FE00FE00
07F003F000FC00FE00
07F003F001FC00FE00
07F003F003F801FE00
07F003F003F801FE00
07F003F007F001FC00
0FE003F807F001FC00
0FE003F80FE001FC00
0FE001F80FC003FC00
0FE001F81FC003F800
0FE001F81F8003F800
1FC001F83F8003F800
1FC001F87F0003F800
1FC001F87F0007F800
1FC001FCFE0007F000
3F8001FCFE0007F000
3F8000FDFC0007F000
3F8000FDF8000FF000
3F8000FFF8000FF000
3F8000FFF0000FE000
7F0000FFF0000FE000
7F0000FFE0000FE000
7F0000FFE0001FE000
7F0000FFC0001FE000
7F00007FC0001FC000
FE00007F80001FC000
FE00007F00001FC000
FE00007F00003FC000
FE00007E00003FC000
ENDCHAR
STARTCHAR 004E
ENCODING 78
SWIDTH 697 0
DWIDTH 62 0
BBX 59 63 4 0
BITMAP
0007F80000000FE0
0007FC0000001FC0
000FFC0000001FC0
000FFC0000001FC0
000FFE0000001FC0
000FFE0000001FC0
000FFE0000003F80
001FFF0000003F80
001FFF0000003F80
001FFF8000003F80
001FBF8000003F80
001FBF8000007F00
003F9FC000007F00
003F9FC000007F00
003F9FC000007F00
003F0FE00000FE00
007F0FE00000FE00
007F0FF00000FE00
007F07F00000FE00
007F07F00000FE00
007E03F80001FC00
00FE03F80001FC00
00FE03F80001FC00
00FE01FC0001FC00
00FE01FC0001FC00
00FE01FE0003F800
01FC00FE0003F800
01FC00FE0003F800
01FC007F0003F800
01FC007F0007F800
01F8007F0007F000
03F8003F8007F000
03F8003F8007F000
03F8003FC007F000
03F8001FC00FE000
07F0001FC00FE000
07F0000FE00FE000
07F0000FE00FE000
07F0000FF00FE000
07F00007F01FC000
0FE00007F01FC000
0FE00003F81FC000
0FE00003F81FC000
0FE00003F81FC000
0FE00001FC3F8000
1FC00001FC3F8000
1FC00001FE3F8000
1FC00000FE3F8000
1FC00000FE3F8000
3F8000007F3F0000
3F8000007F7F0000
3F8000007F7F0000
3F8000003FFF0000
3F8000003FFE0000
7F0000003FFE0000
7F0000001FFE0000
7F0000001FFE0000
7F0000000FFE0000
7F0000000FFC0000
FE0000000FFC0000
FE00000007FC0000
FE00000007FC0000
FE00000003FC0000
ENDCHAR
STARTCHAR 004F
ENCODING 79
SWIDTH 720 0
DWIDTH 64 0
BBX 54 65 7 -1
BITMAP
000000FFFE0000
000007FFFFC000
00001FFFFFF000
00007FFFFFF800
0001FFFFFFFC00
0003FFFFFFFF00
0007FFE01FFF00
000FFF0003FF80
001FFC0000FFC0
003FF000007FE0
007FE000003FE0
00FF8000001FF0
01FF0000001FF0
01FF0000000FF0
03FE00000007F8
03FC00000007F8
07F800000007F8
0FF800000003FC
0FF000000003FC
0FF000000003FC
1FE000000003FC
1FE000000003FC
3FC000000003FC
3FC000000003FC
3FC000000003FC
7F8000000003FC
7F8000000003FC
7F8000000003FC
7F8000000003FC
7F0000000003FC
FF0000000003FC
FF0000000003FC
FF0000000003FC
FF0000000003FC
FF0000000007F8
FE0000000007F8
FE0000000007F8
FE0000000007F8
FE000000000FF8
FE000000000FF0
FE000000000FF0
FE000000001FF0
FE000000001FE0
FE000000001FE0
FF000000003FE0
FF000000003FC0
FF000000007FC0
FF000000007F80
FF80000000FF80
7F80000001FF00
7F80000001FF00
7FC0000003FE00
3FE0000007FC00
3FE000000FFC00
1FF000001FF800
1FFC00007FF000
0FFE0001FFE000
07FF8007FFC000
03FFFFFFFF8000
01FFFFFFFF0000
00FFFFFFFC0000
007FFFFFF80000
001FFFFFE00000
0003FFFF000000
00003FF0000000
ENDCHAR
STARTCHAR 0050
ENCODING 80
SWIDTH 562 0
DWIDTH 50 0
BBX 46 63 4 0
BITMAP
0007FFFFE000
0007FFFFFC00
0007FFFFFF00
000FFFFFFF80
000FFFFFFFC0
000FFFFFFFE0
000FE000FFF0
001FE0003FF0
001FE0000FF8
001FC00007F8
001FC00003FC
001FC00003FC
003FC00003FC
003FC00001FC
003F800001FC
003F800001FC
003F800001FC
007F800001FC
007F000001FC
007F000001FC
007F000003FC
00FF000003FC
00FF000003FC
00FE000007F8
00FE000007F8
00FE00000FF0
01FE00001FF0
01FE00003FE0
01FC00007FE0
01FC0001FFC0
01FC0007FF80
03FC01FFFF00
03FFFFFFFE00
03FFFFFFFC00
03FFFFFFF000
03FFFFFFC000
07FFFFFE0000
07FFFFC00000
07F000000000
07F000000000
0FF000000000
0FF000000000
0FE000000000
0FE000000000
0FE000000000
1FE000000000
1FE000000000
1FC000000000
1FC000000000
1FC000000000
3FC000000000
3F8000000000
3F8000000000
3F8000000000
3F8000000000
7F8000000000
7F0000000000
7F0000000000
7F0000000000
FF0000000000
FF0000000000
FE0000000000
FE0000000000
ENDCHAR
STARTCHAR 0051
ENCODING 81
SWIDTH 720 0
DWIDTH 64 0
BBX 54 79 7 -15
BITMAP
000000FFFE0000
000007FFFFC000
00001FFFFFF000
00007FFFFFF800
0001FFFFFFFC00
0003FFFFFFFF00
0007FFE01FFF00
000FFF0003FF80
001FFC0000FFC0
003FF000007FE0
007FE000003FE0
00FF8000001FF0
01FF0000001FF0
01FF0000000FF0
03FE00000007F8
03FC00000007F8
07F800000007F8
0FF800000003FC
0FF000000003FC
0FF000000003FC
1FE000000003FC
1FE000000003FC
3FC000000003FC
3FC000000003FC
3FC000000003FC
7F8000000003FC
7F8000000003FC
7F8000000003FC
7F8000000003FC
7F0000000003FC
FF0000000003FC
FF0000000003FC
FF0000000003FC
FF0000000003FC
FF0000000007F8
FE0000000007F8
FE0000000007F8
FE0000000007F8
FE0000000007F0
FE000000000FF0
FE000000000FF0
FE000000000FF0
FE000000001FE0
FE000000001FE0
FF000000003FE0
FF000000003FC0
FF000000007FC0
FF000000007F80
FF80000000FF80
7F80000001FF00
7F80000001FF00
7FC0000003FE00
3FE0000007FC00
3FE000000FFC00
1FF000001FF800
1FFC00007FF000
0FFE0001FFE000
07FF8007FFC000
03FFFFFFFF8000
01FFFFFFFF0000
00FFFFFFFC0000
007FFFFFF80000
001FFFFFC00000
0003FFFF000000
00003FFF000000
0000007F800000
0000007FC00000
0000003FC00000
0000001FE00000
0000001FF00000
0000000FF80000
00000007F80000
00000007FC0000
00000003FE0000
00000001FF0000
00000001FF0000
00000000FF8000
000000007FC000
000000007FE000
ENDCHAR
STARTCHAR 0052
ENCODING 82
SWIDTH 562 0
DWIDTH 50 0
BBX 46 63 4 0
BITMAP
0007FFFFE000
0007FFFFFC00
0007FFFFFF00
000FFFFFFFC0
000FFFFFFFE0
000FFFFFFFE0
000FE000FFF0
001FE0001FF8
001FE0000FF8
001FC00007FC
001FC00003FC
001FC00003FC
003FC00001FC
003FC00001FC
003F800001FC
003F800001FC
003F800001FC
007F800001FC
007F000001FC
007F000001FC
007F000003FC
00FF000003FC
00FF000003F8
00FE000007F8
00FE00000FF8
00FE00000FF0
01FE00003FF0
01FE00007FE0
01FC0001FFC0
01FC000FFF80
01FFFFFFFF00
03FFFFFFFC00
03FFFFFFF800
03FFFFFFE000
03FFFFFF0000
03FFFFFE0000
07FFFFFE0000
07F000FE0000
07F000FF0000
07F0007F0000
0FF0007F8000
0FF0007F8000
0FE0003F8000
0FE0003FC000
0FE0003FC000
1FE0001FC000
1FE0001FE000
1FC0001FE000
1FC0000FF000
1FC0000FF000
3FC00007F000
3F800007F800
3F800007F800
3F800003F800
3F800003FC00
7F800003FC00
7F000001FC00
7F000001FE00
7F000001FE00
FF000000FF00
FF000000FF00
FE000000FF00
FE0000007F80
ENDCHAR
STARTCHAR 0053
ENCODING 83
SWIDTH 495 0
DWIDTH 44 0
BBX 44 65 2 -1
BITMAP
000007FFF000
00003FFFFF00
0000FFFFFFC0
0001FFFFFFF0
0007FFFFFFF0
000FFFFFFFE0
001FFF80FFE0
001FFC000FC0
003FF00001C0
007FC0000000
007FC0000000
00FF80000000
00FF00000000
00FF00000000
00FF00000000
00FE00000000
01FE00000000
01FE00000000
01FE00000000
00FE00000000
00FF00000000
00FF00000000
00FF80000000
00FF80000000
007FC0000000
007FE0000000
003FF8000000
001FFC000000
000FFF000000
0007FFC00000
0003FFE00000
0001FFF80000
00007FFC0000
00003FFF0000
00000FFF8000
000003FFC000
000001FFE000
0000007FE000
0000003FF000
0000001FF000
0000000FF800
00000007F800
00000007F800
00000007F800
00000003FC00
00000003FC00
00000003FC00
00000003FC00
00000003F800
00000003F800
00000007F800
00000007F800
0000000FF800
0000000FF000
0000001FF000
8000007FE000
F00000FFE000
FE0007FFC000
FFFFFFFF8000
FFFFFFFF0000
FFFFFFFE0000
FFFFFFF80000
7FFFFFE00000
0FFFFF800000
00FFF0000000
ENDCHAR
STARTCHAR 0054
ENCODING 84
SWIDTH 495 0
DWIDTH 44 0
BBX 44 63 8 0
BITMAP
7FFFFFFFFFF0
7FFFFFFFFFF0
7FFFFFFFFFF0
7FFFFFFFFFE0
FFFFFFFFFFE0
FFFFFFFFFFE0
00003F800000
00007F800000
00007F800000
00007F000000
00007F000000
00007F000000
0000FF000000
0000FF000000
0000FE000000
0000FE000000
0000FE000000
0001FE000000
0001FE000000
0001FC000000
0001FC000000
0003FC000000
0003FC000000
0003FC000000
0003F8000000
0003F8000000
0007F8000000
0007F8000000
0007F0000000
0007F0000000
0007F0000000
000FF0000000
000FF0000000
000FE0000000
000FE0000000
001FE0000000
001FE0000000
001FE0000000
001FC0000000
001FC0000000
003FC0000000
003FC0000000
003F80000000
003F80000000
003F80000000
007F80000000
007F80000000
007F00000000
007F00000000
007F00000000
00FF00000000
00FF00000000
00FE00000000
00FE00000000
01FE00000000
01FE00000000
01FC00000000
01FC00000000
01FC00000000
03FC00000000
03FC00000000
03F800000000
03F800000000
ENDCHAR
STARTCHAR 0055
ENCODING 85
SWIDTH 675 0
DWIDTH 60 0
BBX 54 64 7 -1
BITMAP
007F80000001FC
007F00000003FC
007F00000003FC
007F00000003F8
00FF00000003F8
00FE00000003F8
00FE00000007F8
00FE00000007F8
01FE00000007F0
01FE00000007F0
01FC00000007F0
01FC0000000FF0
01FC0000000FE0
03FC0000000FE0
03FC0000000FE0
03F80000001FE0
03F80000001FE0
03F80000001FC0
07F80000001FC0
07F00000001FC0
07F00000003FC0
07F00000003FC0
0FF00000003F80
0FF00000003F80
0FE00000003F80
0FE00000007F80
0FE00000007F00
1FE00000007F00
1FE00000007F00
1FC0000000FF00
1FC0000000FF00
1FC0000000FE00
3FC0000000FE00
3F80000000FE00
3F80000001FE00
3F80000001FE00
7F80000001FC00
7F80000001FC00
7F00000001FC00
7F00000003FC00
7F00000003FC00
7F00000003F800
FF00000003F800
FF00000007F800
FE00000007F800
FE00000007F000
FE0000000FF000
FE0000000FF000
FF0000001FE000
FF0000001FE000
FF0000003FC000
7F0000003FC000
7F8000007F8000
7FC00000FF8000
3FE00001FF0000
3FF00007FE0000
1FFC001FFE0000
1FFFFFFFFC0000
0FFFFFFFF00000
07FFFFFFE00000
03FFFFFFC00000
00FFFFFF000000
003FFFF8000000
0001FF80000000
ENDCHAR
STARTCHAR 0056
ENCODING 86
SWIDTH 540 0
DWIDTH 48 0
BBX 48 63 8 0
BITMAP
FF00000000FF
7F00000000FF
7F00000001FE
7F00000001FE
7F00000003FC
7F00000003FC
7F00000007F8
7F00000007F8
7F0000000FF0
7F8000000FF0
7F8000001FE0
3F8000001FE0
3F8000003FC0
3F8000003F80
3F8000007F80
3F8000007F00
3F800000FF00
3F800001FE00
3F800001FE00
3FC00003FC00
1FC00003FC00
1FC00007F800
1FC00007F800
1FC0000FF000
1FC0000FF000
1FC0001FE000
1FC0001FE000
1FC0003FC000
1FE0003F8000
0FE0007F8000
0FE0007F0000
0FE000FF0000
0FE000FE0000
0FE001FE0000
0FE001FC0000
0FE003FC0000
0FE003F80000
0FE007F80000
07F007F00000
07F00FF00000
07F00FE00000
07F01FE00000
07F01FC00000
07F03F800000
07F03F800000
07F07F000000
07F07F000000
03F0FE000000
03F0FE000000
03F1FC000000
03F9FC000000
03FBF8000000
03FBF8000000
03FFF0000000
03FFF0000000
03FFE0000000
01FFE0000000
01FFC0000000
01FF80000000
01FF80000000
01FF00000000
01FF00000000
01FE00000000
ENDCHAR
STARTCHAR 0057
ENCODING 87
SWIDTH 843 0
DWIDTH 75 0
BBX 73 63 10 0
BITMAP
FE000000FF0000007F80
FE000000FF0000007F00
FE000001FF000000FF00
FE000001FF000000FF00
FE000003FF000001FE00
FE000003FF000001FE00
FE000007FF800003FC00
FE000007FF800003FC00
FE000007FF800003F800
FE00000FDF800007F800
FE00000FDF800007F000
FE00001FDF80000FF000
FE00001F9F80000FE000
FE00003F9F80001FE000
FE00003F1F80001FE000
FE00007F1F80001FC000
FE00007E1F80003FC000
FF0000FE1F80003F8000
FF0000FE1F80007F8000
7F0001FC1F80007F0000
7F0001FC1F8000FF0000
7F0003F81F8000FE0000
7F0003F81F8001FE0000
7F0003F01F8001FC0000
7F0007F01F8001FC0000
7F0007E01F8003FC0000
7F000FE01FC003F80000
7F000FC01FC007F80000
7F001FC01FC007F00000
7F001F801FC00FF00000
7F003F801FC00FE00000
7F003F801FC00FE00000
7F007F000FC01FC00000
7F007F000FC01FC00000
7F00FE000FC03F800000
7F00FE000FC03F800000
7F01FC000FC07F800000
7F01FC000FC07F000000
7F03F8000FC07F000000
7F03F8000FC0FE000000
7F03F0000FC0FE000000
7F07F0000FC1FC000000
3F07E0000FC1FC000000
3F0FE0000FC3F8000000
3F0FE0000FC3F8000000
3F1FC0000FC3F0000000
3F1FC0000FC7F0000000
3F1F80000FC7F0000000
3F3F80000FE7E0000000
3F3F00000FEFE0000000
3F7F00000FEFC0000000
3F7E00000FEFC0000000
3F7E000007FF80000000
3FFC000007FF80000000
3FFC000007FF00000000
3FF8000007FF00000000
3FF8000007FE00000000
3FF0000007FE00000000
3FF0000007FE00000000
3FF0000007FC00000000
3FE0000007FC00000000
3FE0000007F800000000
3FC0000007F800000000
ENDCHAR
STARTCHAR 0058
ENCODING 88
SWIDTH 517 0
DWIDTH 46 0
BBX 57 63 -4 0
BITMAP
0003FC0000007F80
0001FC000000FF00
0001FC000001FE00
0001FE000001FE00
0000FE000003FC00
0000FF000007F800
00007F00000FF000
00007F00001FE000
00007F80001FE000
00003F80003FC000
00003F80007F8000
00001FC000FF0000
00001FC001FE0000
00001FC001FE0000
00000FE003FC0000
00000FE007F80000
00000FE00FF00000
000007F00FE00000
000007F01FE00000
000003F83FC00000
000003F87F800000
000003F8FF000000
000001FCFE000000
000001FDFE000000
000001FFFC000000
000000FFF8000000
000000FFF0000000
0000007FE0000000
0000007FE0000000
0000007FC0000000
0000007FC0000000
000000FFC0000000
000001FFE0000000
000003FFE0000000
000007FFE0000000
000007F7F0000000
00000FF7F0000000
00001FE7F0000000
00003FC3F8000000
00003F83F8000000
00007F83F8000000
0000FF01FC000000
0001FE01FC000000
0003FC01FE000000
0003F800FE000000
0007F800FE000000
000FF000FF000000
001FE0007F000000
001FC0007F000000
003FC0007F800000
007F80003F800000
00FF00003FC00000
01FE00003FC00000
01FE00001FC00000
03FC00001FE00000
07F800001FE00000
0FF000000FE00000
0FF000000FF00000
1FE000000FF00000
3FC0000007F00000
7F80000007F80000
FF80000007F80000
FF00000003FC0000
ENDCHAR
STARTCHAR 0059
ENCODING 89
SWIDTH 506 0
DWIDTH 45 0
BBX 45 63 8 0
BITMAP
FF0000000FF8
7F0000000FF0
7F0000001FE0
7F8000003FE0
3F8000003FC0
3F8000007F80
3F800000FF00
3F800000FF00
1FC00001FE00
1FC00003FC00
1FC00003FC00
1FC00007F800
0FE0000FF000
0FE0000FF000
0FE0001FE000
0FE0003FC000
07F0003FC000
07F0007F8000
07F000FF0000
07F000FF0000
03F801FE0000
03F803FC0000
03F803F80000
01F807F80000
01FC0FF00000
01FC0FE00000
01FC1FE00000
00FC3FC00000
00FE3F800000
00FE7F800000
00FEFF000000
007EFE000000
007FFE000000
007FFC000000
007FF8000000
003FF8000000
003FF0000000
003FE0000000
001FC0000000
001FC0000000
003FC0000000
003F80000000
003F80000000
003F80000000
003F80000000
007F80000000
007F00000000
007F00000000
007F00000000
00FF00000000
00FF00000000
00FE00000000
00FE00000000
00FE00000000
01FE00000000
01FE00000000
01FC00000000
01FC00000000
01FC00000000
03FC00000000
03FC00000000
03F800000000
03F800000000
ENDCHAR
STARTCHAR 005A
ENCODING 90
SWIDTH 528 0
DWIDTH 47 0
BBX 52 63 -1 0
BITMAP
0003FFFFFFFFF0
0003FFFFFFFFF0
0003FFFFFFFFE0
0003FFFFFFFFE0
0007FFFFFFFFE0
0007FFFFFFFFE0
00000000007FC0
00000000007F80
0000000000FF00
0000000001FF00
0000000003FE00
0000000007FC00
0000000007F800
000000000FF000
000000001FF000
000000003FE000
000000003FC000
000000007F8000
00000000FF0000
00000001FF0000
00000003FE0000
00000003FC0000
00000007F80000
0000000FF80000
0000001FF00000
0000003FE00000
0000003FC00000
0000007F800000
000000FF800000
000001FF000000
000003FE000000
000003FC000000
000007F8000000
00000FF8000000
00001FF0000000
00003FE0000000
00003FC0000000
00007F80000000
0000FF80000000
0001FF00000000
0001FE00000000
0003FC00000000
0007F800000000
000FF800000000
001FF000000000
001FE000000000
003FC000000000
007FC000000000
00FF8000000000
01FF0000000000
01FE0000000000
03FC0000000000
07FC0000000000
0FF80000000000
1FF00000000000
1FE00000000000
3FFFFFFFFF8000
7FFFFFFFFF8000
7FFFFFFFFF0000
7FFFFFFFFF0000
7FFFFFFFFF0000
FFFFFFFFFF0000
FFFFFFFFFF0000
ENDCHAR
STARTCHAR 005B
ENCODING 91
SWIDTH 281 0
DWIDTH 25 0
BBX 34 77 -1 -14
BITMAP
00007FFFC0
0000FFFF80
0000FFFF80
0000FFFF80
0000FFFF80
0001FC0000
0001FC0000
0001FC0000
0001FC0000
0001F80000
0003F80000
0003F80000
0003F80000
0003F80000
0003F00000
0007F00000
0007F00000
0007F00000
0007F00000
000FE00000
000FE00000
000FE00000
000FE00000
000FC00000
001FC00000
001FC00000
001FC00000
001FC00000
001F800000
003F800000
003F800000
003F800000
003F800000
007F000000
007F000000
007F000000
007F000000
007E000000
00FE000000
00FE000000
00FE000000
00FE000000
00FC000000
01FC000000
01FC000000
01FC000000
01FC000000
01F8000000
03F8000000
03F8000000
03F8000000
03F8000000
07F0000000
07F0000000
07F0000000
07F0000000
07E0000000
0FE0000000
0FE0000000
0FE0000000
0FE0000000
0FC0000000
1FC0000000
1FC0000000
1FC0000000
1FC0000000
3F80000000
3F80000000
3F80000000
3F80000000
3F00000000
7FFFE00000
7FFFC00000
7FFFC00000
7FFFC00000
7FFFC00000
FFFFC00000
ENDCHAR
STARTCHAR 005C
ENCODING 92
SWIDTH 348 0
DWIDTH 31 0
BBX 16 63 10 0
BITMAP
FC00
FC00
FE00
FE00
FE00
FE00
7E00
7E00
7E00
7F00
7F00
7F00
7F00
3F00
3F00
3F00
3F80
3F80
3F80
1F80
1F80
1F80
1FC0
1FC0
1FC0
1FC0
0FC0
0FC0
0FC0
0FE0
0FE0
0FE0
07E0
07E0
07E0
07F0
07F0
07F0
07F0
03F0
03F0
03F0
03F8
03F8
03F8
03F8
01F8
01F8
01F8
01FC
01FC
01FC
00FC
00FC
00FC
00FE
00FE
00FE
00FE
007E
007E
007E
007F
ENDCHAR
STARTCHAR 005D
ENCODING 93
SWIDTH 281 0
DWIDTH 25 0
BBX 33 77 -6 -14
BITMAP
0000FFFF80
0000FFFF80
0001FFFF80
0001FFFF00
0001FFFF00
0000007F00
0000007F00
0000007F00
000000FE00
000000FE00
000000FE00
000000FE00
000000FC00
000001FC00
000001FC00
000001FC00
000001FC00
000003F800
000003F800
000003F800
000003F800
000003F800
000007F000
000007F000
000007F000
000007F000
000007E000
00000FE000
00000FE000
00000FE000
00000FE000
00000FC000
00001FC000
00001FC000
00001FC000
00001FC000
00003F8000
00003F8000
00003F8000
00003F8000
00003F0000
00007F0000
00007F0000
00007F0000
00007F0000
00007E0000
0000FE0000
0000FE0000
0000FE0000
0000FE0000
0000FC0000
0001FC0000
0001FC0000
0001FC0000
0001FC0000
0003F80000
0003F80000
0003F80000
0003F80000
0003F00000
0007F00000
0007F00000
0007F00000
0007F00000
0007E00000
000FE00000
000FE00000
000FE00000
000FE00000
001FC00000
001FC00000
7FFFC00000
7FFFC00000
FFFF800000
FFFF800000
FFFF800000
FFFF800000
ENDCHAR
STARTCHAR 005E
ENCODING 94
SWIDTH 562 0
DWIDTH 50 0
BBX 43 40 4 24
BITMAP
00001F000000
00001F000000
00003F800000
00003F800000
00007FC00000
00007FC00000
0000FFE00000
0000FFE00000
0001FBF00000
0001FBF00000
0003F1F80000
0003F1F80000
0007E0FC0000
0007E0FC0000
000FC07E0000
000FC07E0000
001F803F0000
001F803F0000
003F003F8000
003F001F8000
007E001FC000
007E000FC000
00FC000FE000
00FC0007E000
01F80007E000
01F80003F000
03F80003F000
03F00001F800
07F00001F800
07E00000FC00
0FE00000FC00
0FC000007E00
1FC000007E00
1F8000003F00
3F8000003F00
3F0000001F80
7F0000001F80
7E0000001FC0
FE0000000FC0
FC0000000FE0
ENDCHAR
STARTCHAR 005F
ENCODING 95
SWIDTH 382 0
DWIDTH 34 0
BBX 36 6 -8 -14
BITMAP
7FFFFFFFF0
7FFFFFFFF0
7FFFFFFFF0
FFFFFFFFE0
FFFFFFFFE0
FFFFFFFFE0
ENDCHAR
STARTCHAR 0060
ENCODING 96
SWIDTH 270 0
DWIDTH 24 0
BBX 14 14 13 54
BITMAP
FF00
FF00
7F80
7F80
3F80
1FC0
1FC0
0FE0
07E0
03F0
03F8
01F8
00FC
007C
ENDCHAR
STARTCHAR 0061
ENCODING 97
SWIDTH 562 0
DWIDTH 50 0
BBX 44 49 4 -1
BITMAP
00003FF801F0
0000FFFE01F0
0003FFFF03F0
000FFFFF83F0
001FFFFFC7F0
003FFFFFC7E0
007FF00FE7E0
00FFC003EFE0
00FF8001FFE0
01FF0000FFE0
03FE0000FFC0
03FC00007FC0
07F800007FC0
07F800007FC0
0FF000007FC0
0FF000007F80
1FE000007F80
1FE000007F80
3FC000007F80
3FC000007F00
3FC000007F00
3F8000007F00
7F800000FF00
7F800000FF00
7F800000FE00
7F000000FE00
7F000001FE00
7F000001FE00
FF000001FE00
FF000003FC00
FF000003FC00
FF000007FC00
FF000007FC00
FF00000FF800
FF00000FF800
FF00001FF800
7F00003FF800
7F00007FF800
7F8000FFF000
7F8001FBF000
7FC003F3F000
3FE00FE3F000
3FF83FC7F000
1FFFFF87E000
0FFFFF07E000
07FFFE07E000
03FFF807E000
01FFE007E000
003F80000000
ENDCHAR
STARTCHAR 0062
ENCODING 98
SWIDTH 573 0
DWIDTH 51 0
BBX 44 69 3 -1
BITMAP
0003F8000000
0003F8000000
0007F8000000
0007F0000000
0007F0000000
0007F0000000
0007F0000000
000FF0000000
000FE0000000
000FE0000000
000FE0000000
001FE0000000
001FE0000000
001FC0000000
001FC0000000
001FC0000000
003FC0000000
003F80000000
003F80000000
003F80000000
003F803FF000
007F80FFFC00
007F03FFFE00
007F07FFFF00
007F1FFFFF80
007F3FFFFFC0
00FE7F80FFC0
00FEFE003FE0
00FEF8001FE0
00FDF0001FE0
01FFE0000FE0
01FFC0000FF0
01FF80000FF0
01FF80000FF0
01FF00000FF0
03FE000007F0
03FE000007F0
03FC00000FF0
03FC00000FF0
03F800000FF0
07F800000FF0
07F800000FF0
07F000000FE0
07F000000FE0
0FF000000FE0
0FE000001FE0
0FE000001FE0
0FE000001FE0
0FE000001FC0
1FE000003FC0
1FE000003FC0
1FE000007F80
1FE000007F80
1FE000007F80
3FE00000FF00
3FE00001FF00
3FE00001FE00
3FE00003FE00
3FF00007FC00
7FF8000FF800
7FF8001FF800
7E7E007FF000
7E7F81FFE000
FE3FFFFFC000
FC1FFFFF8000
FC0FFFFE0000
FC07FFFC0000
F803FFF00000
00007F800000
ENDCHAR
STARTCHAR 0063
ENCODING 99
SWIDTH 450 0
DWIDTH 40 0
BBX 37 49 4 -1
BITMAP
00001FFF80
0000FFFFF0
0003FFFFF8
0007FFFFF0
001FFFFFF0
003FFFFFF0
007FF001E0
00FFC00020
01FF800000
01FF000000
03FE000000
07FC000000
07F8000000
0FF0000000
0FF0000000
1FE0000000
1FE0000000
1FC0000000
3FC0000000
3FC0000000
3F80000000
7F80000000
7F80000000
7F00000000
7F00000000
7F00000000
7F00000000
FF00000000
FF00000000
FF00000000
FF00000000
FF00000000
FF00000000
FF00000000
7F00000000
7F00000000
7F80000000
7F80000000
7FC0000000
3FC0000000
3FE0000400
1FF8003C00
0FFE01FC00
0FFFFFFC00
07FFFFFC00
03FFFFFC00
00FFFFF800
003FFFE000
0003FE0000
ENDCHAR
STARTCHAR 0064
ENCODING 100
SWIDTH 573 0
DWIDTH 51 0
BBX 49 69 4 -1
BITMAP
00000000003F80
00000000003F80
00000000007F00
00000000007F00
00000000007F00
00000000007F00
0000000000FF00
0000000000FE00
0000000000FE00
0000000000FE00
0000000000FE00
0000000001FE00
0000000001FC00
0000000001FC00
0000000001FC00
0000000001FC00
0000000003FC00
0000000003F800
0000000003F800
0000000003F800
00003FF803F800
0000FFFE07F000
0003FFFF07F000
000FFFFF87F000
001FFFFFC7F000
003FFFFFE7F000
007FF007E7E000
00FFC003FFE000
01FF8001FFE000
01FF0000FFE000
03FE00007FE000
07FC00007FC000
07F800007FC000
0FF800007FC000
0FF000007FC000
0FE000007F8000
1FE000007F8000
1FE000007F8000
3FC000007F8000
3FC000007F8000
3FC000007F0000
3F8000007F0000
7F8000007F0000
7F8000007F0000
7F800000FF0000
7F000000FE0000
7F000000FE0000
7F000001FE0000
FF000001FE0000
FF000001FE0000
FF000003FC0000
FF000003FC0000
FF000007FC0000
FF00000FFC0000
FF00000FF80000
FF00001FF80000
7F00003FF80000
7F00007FF80000
7F8000FFF80000
7F8001FBF00000
7FC003F3F00000
3FE007E7F00000
3FF83FC7F00000
1FFFFF87F00000
0FFFFF07E00000
0FFFFE07E00000
03FFF807E00000
01FFF007E00000
003F8000000000
ENDCHAR
STARTCHAR 0065
ENCODING 101
SWIDTH 495 0
DWIDTH 44 0
BBX 38 49 4 -1
BITMAP
00003FFE00
0000FFFF80
0003FFFFC0
0007FFFFE0
001FFFFFF0
003FFFFFF8
007FF00FF8
00FFC007F8
00FF0003F8
01FE0003FC
03FC0003FC
03FC0003FC
07F80003F8
0FF00003F8
0FF00003F8
1FE00007F8
1FE0000FF0
1FC0001FF0
3FC0007FE0
3FC001FFC0
3F801FFF80
7FFFFFFF00
7FFFFFFE00
7FFFFFF800
7FFFFFE000
7FFFFF0000
7FFFE00000
7F00000000
FF00000000
FF00000000
FF00000000
FF00000000
FF00000000
7F00000000
7F00000000
7F00000000
7F80000000
7F80000000
3FC0000000
3FC0000100
3FE0000700
1FF8001F00
0FFE01FF00
0FFFFFFF00
07FFFFFF00
03FFFFFF00
00FFFFF800
003FFFE000
0003FE0000
ENDCHAR
STARTCHAR 0066
ENCODING 102
SWIDTH 303 0
DWIDTH 27 0
BBX 49 89 -10 -21
BITMAP
000000000FF800
000000007FFF80
00000000FFFF80
00000003FFFF00
00000003FFFF00
00000007FFFF00
0000000FFC0600
0000000FF00000
0000001FE00000
0000001FC00000
0000003FC00000
0000003F800000
0000003F800000
0000007F800000
0000007F000000
0000007F000000
0000007F000000
000000FF000000
000000FE000000
000000FE000000
000001FFFF8000
00000FFFFF8000
0000FFFFFF8000
0001FFFFFF8000
0001FFFFFF0000
0001FFFFFF0000
000001FC000000
000003FC000000
000003F8000000
000003F8000000
000003F8000000
000003F8000000
000007F8000000
000007F0000000
000007F0000000
000007F0000000
00000FF0000000
00000FE0000000
00000FE0000000
00000FE0000000
00000FE0000000
00001FE0000000
00001FC0000000
00001FC0000000
00001FC0000000
00001FC0000000
00003FC0000000
00003F80000000
00003F80000000
00003F80000000
00003F80000000
00007F80000000
00007F00000000
00007F00000000
00007F00000000
0000FF00000000
0000FE00000000
0000FE00000000
0000FE00000000
0000FE00000000
0001FE00000000
0001FC00000000
0001FC00000000
0001FC00000000
0001FC00000000
0003FC00000000
0003F800000000
0003F800000000
0003F800000000
0003F800000000
0007F800000000
0007F000000000
0007F000000000
0007F000000000
000FF000000000
000FE000000000
000FE000000000
000FE000000000
001FE000000000
001FC000000000
003FC000000000
007F8000000000
00FF8000000000
FFFF0000000000
FFFF0000000000
FFFE0000000000
FFFC0000000000
FFF00000000000
FFE00000000000
ENDCHAR
STARTCHAR 0067
ENCODING 103
SWIDTH 517 0
DWIDTH 46 0
BBX 53 69 -4 -21
BITMAP
000000FFF80000
000003FFFFFFF8
00000FFFFFFFF0
00001FFFFFFFF0
00007FFFFFFFF0
00007FC03FFC00
0000FF000FE000
0001FE0007E000
0003FC0007F000
0003F80007F000
0007F00003F000
0007F00003F000
0007E00003F000
000FE00003F000
000FE00003F000
000FE00003F000
000FE00007F000
000FC00007F000
000FC00007F000
000FC0000FE000
000FE0000FE000
000FE0001FE000
000FE0003FC000
0007F0003FC000
0007F800FF8000
0003FC03FF0000
0001FFFFFE0000
0000FFFFFC0000
00007FFFF00000
00007FFFC00000
0001FFFE000000
0003F000000000
0007E000000000
000F8000000000
001F8000000000
003F0000000000
003F0000000000
003F0000000000
003F8000000000
003FE000000000
003FFFC0000000
001FFFFF000000
000FFFFFE00000
0007FFFFF80000
003FFFFFFC0000
00FFFFFFFE0000
03FE00FFFF0000
07F80003FF8000
0FE00000FF8000
1FC000003F8000
3F8000001FC000
7F0000001FC000
7E0000001FC000
FE0000001FC000
FE0000001FC000
FE0000001FC000
FC0000001F8000
FE0000003F8000
FE0000003F8000
FE0000007F0000
FF000000FF0000
7F800003FE0000
7FC0000FFC0000
3FF8007FF80000
1FFFFFFFF00000
0FFFFFFFE00000
07FFFFFF800000
01FFFFFC000000
003FFFE0000000
ENDCHAR
STARTCHAR 0068
ENCODING 104
SWIDTH 573 0
DWIDTH 51 0
BBX 43 68 3 0
BITMAP
0003F8000000
0003F8000000
0007F8000000
0007F0000000
0007F0000000
0007F0000000
0007F0000000
000FF0000000
000FE0000000
000FE0000000
000FE0000000
001FE0000000
001FC0000000
001FC0000000
001FC0000000
001FC0000000
003FC0000000
003F80000000
003F80000000
003F80000000
003F803FF000
007F00FFFC00
007F03FFFF00
007F07FFFF80
007F1FFFFF80
007E3FFFFFC0
00FE7F807FC0
00FEFE003FE0
00FEF8001FE0
00FDF0001FE0
01FFE0000FE0
01FFC0000FE0
01FF80000FE0
01FF80000FE0
01FF00000FE0
03FE00000FE0
03FE00001FE0
03FC00001FE0
03FC00001FC0
03F800001FC0
07F800001FC0
07F800003FC0
07F000003F80
07F000003F80
0FF000003F80
0FF000003F80
0FE000007F80
0FE000007F00
0FE000007F00
1FE000007F00
1FC00000FF00
1FC00000FF00
1FC00000FE00
1FC00000FE00
3FC00000FE00
3F800001FE00
3F800001FC00
3F800001FC00
3F800001FC00
7F800001FC00
7F000003FC00
7F000003F800
7F000003F800
FF000003F800
FF000007F800
FE000007F800
FE000007F000
FE000007F000
ENDCHAR
STARTCHAR 0069
ENCODING 105
SWIDTH 247 0
DWIDTH 22 0
BBX 20 65 3 0
BITMAP
0003E0
0007F0
000FF0
000FF0
000FF0
000FF0
000FF0
000FE0
0007C0
000000
000000
000000
000000
000000
000000
000000
000000
003F80
007F80
007F00
007F00
007F00
007F00
00FF00
00FE00
00FE00
00FE00
01FE00
01FE00
01FC00
01FC00
01FC00
03FC00
03F800
03F800
03F800
03F800
07F800
07F000
07F000
07F000
0FF000
0FF000
0FE000
0FE000
0FE000
1FE000
1FE000
1FC000
1FC000
1FC000
3FC000
3F8000
3F8000
3F8000
3F8000
7F8000
7F0000
7F0000
7F0000
FF0000
FF0000
FE0000
FE0000
FE0000
ENDCHAR
STARTCHAR 006A
ENCODING 106
SWIDTH 247 0
DWIDTH 22 0
BBX 34 86 -11 -21
BITMAP
0000000F80
0000001FC0
0000003FC0
0000003FC0
0000003FC0
0000003FC0
0000003FC0
0000003F80
0000001F00
0000000000
0000000000
0000000000
0000000000
0000000000
0000000000
0000000000
0000000000
000000FE00
000001FE00
000001FC00
000001FC00
000001FC00
000001FC00
000003FC00
000003F800
000003F800
000003F800
000007F800
000007F000
000007F000
000007F000
000007F000
00000FF000
00000FE000
00000FE000
00000FE000
00000FE000
00001FE000
00001FC000
00001FC000
00001FC000
00001FC000
00003F8000
00003F8000
00003F8000
00003F8000
00007F8000
00007F0000
00007F0000
00007F0000
00007F0000
0000FF0000
0000FE0000
0000FE0000
0000FE0000
0000FE0000
0001FE0000
0001FC0000
0001FC0000
0001FC0000
0001FC0000
0003F80000
0003F80000
0003F80000
0003F80000
0007F80000
0007F00000
0007F00000
0007F00000
0007F00000
000FF00000
000FE00000
000FE00000
000FE00000
001FE00000
001FC00000
003FC00000
003FC00000
007F800000
00FF800000
FFFF000000
FFFE000000
FFFE000000
FFFC000000
FFF0000000
FFC0000000
ENDCHAR
STARTCHAR 006B
ENCODING 107
SWIDTH 483 0
DWIDTH 43 0
BBX 43 68 3 0
BITMAP
0003F8000000
0003F8000000
0007F8000000
0007F0000000
0007F0000000
0007F0000000
000FF0000000
000FF0000000
000FE0000000
000FE0000000
000FE0000000
001FE0000000
001FC0000000
001FC0000000
001FC0000000
001FC0000000
003FC0000000
003F80000000
003F80000000
003F80000000
007F80001FE0
007F80003FC0
007F00007F80
007F0000FF00
007F0001FE00
00FF0003FC00
00FE0007F800
00FE000FF000
00FE001FE000
00FE003FC000
01FE007F8000
01FC00FF0000
01FC01FE0000
01FC03FC0000
01FC07F80000
03F80FF00000
03F81FE00000
03F83FC00000
03F87F800000
07F0FF000000
07F1FE000000
07F3FE000000
07E7FE000000
07EFFF000000
0FFFFF000000
0FFFFF800000
0FFF3F800000
0FFE3FC00000
0FF81FC00000
1FF01FE00000
1FE01FE00000
1FC00FF00000
1FC00FF00000
3FC007F80000
3FC007F80000
3F8003FC0000
3F8003FC0000
3F8001FC0000
7F8001FE0000
7F8000FE0000
7F0000FF0000
7F0000FF0000
7F00007F8000
FF00007F8000
FE00003FC000
FE00003FC000
FE00001FE000
FE00001FE000
ENDCHAR
STARTCHAR 006C
ENCODING 108
SWIDTH 247 0
DWIDTH 22 0
BBX 21 68 3 0
BITMAP
0003F8
0003F8
0007F8
0007F0
0007F0
0007F0
0007F0
000FF0
000FE0
000FE0
000FE0
001FE0
001FE0
001FC0
001FC0
001FC0
003FC0
003F80
003F80
003F80
003F80
007F80
007F00
007F00
007F00
00FF00
00FF00
00FE00
00FE00
00FE00
01FE00
01FC00
01FC00
01FC00
01FC00
03FC00
03F800
03F800
03F800
03F800
07F800
07F000
07F000
07F000
0FF000
0FE000
0FE000
0FE000
0FE000
1FE000
1FC000
1FC000
1FC000
1FC000
3FC000
3F8000
3F8000
3F8000
7F8000
7F8000
7F0000
7F0000
7F0000
FF0000
FE0000
FE0000
FE0000
FE0000
ENDCHAR
STARTCHAR 006D
ENCODING 109
SWIDTH 866 0
DWIDTH 77 0
BBX 69 48 3 0
BITMAP
003F007FE00007FE00
007E01FFF8003FFF80
007E03FFFC007FFFC0
007E0FFFFE01FFFFE0
007E1FFFFE03FFFFF0
007E3FFFFF07FFFFF0
00FE7F00FF0FF00FF8
00FEFC007F8FC007F8
00FEF8003F9F8007F8
00FDF0003FBE0003F8
01FFE0003FFC0003F8
01FFC0003FFC0003F8
01FF80003FF80003F8
01FF00003FF00003F8
01FF00003FE00003F8
03FE00003FE00003F8
03FE00003FC00003F8
03FC00003FC00003F8
03FC00003F800007F8
03F800007F800007F0
07F800007F800007F0
07F800007F000007F0
07F000007F00000FF0
07F00000FF00000FF0
0FF00000FE00000FE0
0FF00000FE00000FE0
0FE00000FE00000FE0
0FE00000FE00001FE0
0FE00001FE00001FC0
1FE00001FC00001FC0
1FC00001FC00001FC0
1FC00001FC00001FC0
1FC00001FC00003FC0
1FC00003FC00003F80
3FC00003F800003F80
3F800003F800003F80
3F800003F800007F80
3F800007F800007F80
3F800007F000007F00
7F800007F000007F00
7F000007F000007F00
7F000007F00000FF00
7F00000FF00000FF00
FF00000FE00000FE00
FF00000FE00000FE00
FE00000FE00000FE00
FE00000FE00001FE00
FE00001FE00001FC00
ENDCHAR
STARTCHAR 006E
ENCODING 110
SWIDTH 573 0
DWIDTH 51 0
BBX 44 49 2 0
BITMAP
00000003C000
003F803FFC00
003F80FFFF00
003F83FFFF80
003F07FFFFC0
007F0FFFFFE0
007F1FFFFFE0
007F3FE03FF0
007F7F801FF0
007FFE000FF0
00FFFC000FF0
00FFF00007F0
00FFF00007F0
00FFE00007F0
00FFC00007F0
01FF800007F0
01FF80000FF0
01FF00000FF0
01FF00000FF0
03FE00000FF0
03FE00000FE0
03FC00001FE0
03FC00001FE0
03FC00001FE0
07F800001FE0
07F800003FC0
07F800003FC0
07F800003FC0
07F000003FC0
0FF000003F80
0FF000007F80
0FF000007F80
0FE000007F80
0FE000007F80
1FE000007F00
1FE00000FF00
1FE00000FF00
1FC00000FF00
3FC00000FE00
3FC00001FE00
3FC00001FE00
3FC00001FE00
3F800001FE00
7F800001FC00
7F800003FC00
7F800003FC00
7F000003FC00
7F000003F800
FF000003F800
ENDCHAR
STARTCHAR 006F
ENCODING 111
SWIDTH 562 0
DWIDTH 50 0
BBX 42 49 4 -1
BITMAP
00001FFC0000
0000FFFF8000
0003FFFFC000
000FFFFFF000
001FFFFFF800
003FFFFFFC00
007FF00FFE00
00FFC003FE00
01FF0001FF00
03FE0000FF00
03FC00007F80
07F800007F80
07F800003F80
0FF000003F80
0FE000003FC0
1FE000003FC0
1FC000003FC0
3FC000003FC0
3FC000003FC0
3F8000003FC0
3F8000003FC0
7F8000003FC0
7F8000003FC0
7F0000003F80
7F0000003F80
7F0000003F80
7F0000007F80
FF0000007F80
FF0000007F00
FF0000007F00
FF000000FF00
FF000000FF00
FF000000FE00
7F000001FE00
7F000001FC00
7F000003FC00
7F800007F800
7F800007F800
3FC0000FF000
3FC0001FE000
1FE0007FE000
1FF800FFC000
0FFF0FFF8000
07FFFFFF0000
03FFFFFE0000
01FFFFF80000
007FFFE00000
001FFF800000
0001F0000000
ENDCHAR
STARTCHAR 0070
ENCODING 112
SWIDTH 573 0
DWIDTH 51 0
BBX 49 69 -2 -21
BITMAP
0001F801FF8000
0003F007FFE000
0003F01FFFF000
0003F03FFFF800
0003F0FFFFFC00
0003F1FFFFFE00
0007F3FC07FE00
0007F7F001FF00
0007F7C000FF00
0007EF8000FF00
000FFF00007F00
000FFE00007F80
000FFC00007F80
000FFC00007F80
000FF800007F80
001FF000003F80
001FF000003F80
001FE000007F80
001FE000007F80
001FC000007F80
003FC000007F80
003FC000007F80
003F8000007F00
003F8000007F00
003F8000007F00
007F000000FF00
007F000000FF00
007F000000FF00
007F000000FE00
00FF000001FE00
00FF000001FE00
00FF000003FC00
00FF000003FC00
00FF000003FC00
01FF000007F800
01FF00000FF800
01FF00000FF000
01FF00001FF000
01FF80003FE000
03FFC0007FC000
03FFC000FFC000
03FBF003FF8000
03FBFC0FFF0000
03F1FFFFFE0000
07F0FFFFFC0000
07F07FFFF00000
07F03FFFE00000
07F01FFF800000
0FF003FC000000
0FE00000000000
0FE00000000000
0FE00000000000
0FE00000000000
1FE00000000000
1FC00000000000
1FC00000000000
1FC00000000000
1FC00000000000
3FC00000000000
3F800000000000
3F800000000000
3F800000000000
3F800000000000
7F000000000000
7F000000000000
7F000000000000
7F000000000000
FF000000000000
FE000000000000
ENDCHAR
STARTCHAR 0071
ENCODING 113
SWIDTH 573 0
DWIDTH 51 0
BBX 45 69 4 -21
BITMAP
00003FF801F8
0001FFFE01F0
0003FFFF03F0
000FFFFF83F0
001FFFFFC3F0
003FFFFFE7F0
007FF007E7E0
00FFC003F7E0
01FF8001FFE0
01FF0000FFE0
03FE0000FFE0
07FC00007FC0
07F800007FC0
0FF800007FC0
0FF000007FC0
0FF000007FC0
1FE000007F80
1FE000007F80
3FC000007F80
3FC000007F80
3FC000007F00
3F8000007F00
7F8000007F00
7F800000FF00
7F800000FF00
7F000000FE00
7F000000FE00
7F000001FE00
FF000001FE00
FF000003FE00
FF000003FC00
FF000007FC00
FF000007FC00
FF00000FFC00
FF00000FF800
FF00001FF800
7F00003FF800
7F00007FF800
7F8000FFF800
7F8001FBF000
7FC003F7F000
3FE007E7F000
3FF83FC7F000
1FFFFF87F000
0FFFFF0FE000
07FFFE0FE000
03FFFC0FE000
01FFF00FE000
003F801FE000
0000001FC000
0000001FC000
0000001FC000
0000003FC000
0000003F8000
0000003F8000
0000003F8000
0000003F8000
0000007F8000
0000007F0000
0000007F0000
0000007F0000
0000007F0000
000000FF0000
000000FE0000
000000FE0000
000000FE0000
000001FE0000
000001FC0000
000001FC0000
ENDCHAR
STARTCHAR 0072
ENCODING 114
SWIDTH 393 0
DWIDTH 35 0
BBX 35 48 3 0
BITMAP
003F007FE0
007E01FFE0
007E07FFC0
007E0FFFC0
007E1FFFC0
007E3FFFC0
00FE7FC080
00FEFE0000
00FEFC0000
00FDF00000
01FFE00000
01FFC00000
01FF800000
01FF800000
01FF000000
03FE000000
03FE000000
03FC000000
03FC000000
03F8000000
07F8000000
07F8000000
07F0000000
07F0000000
0FF0000000
0FF0000000
0FE0000000
0FE0000000
0FE0000000
1FE0000000
1FC0000000
1FC0000000
1FC0000000
1FC0000000
3FC0000000
3F80000000
3F80000000
3F80000000
3F80000000
7F80000000
7F00000000
7F00000000
7F00000000
FF00000000
FF00000000
FE00000000
FE00000000
FE00000000
ENDCHAR
STARTCHAR 0073
ENCODING 115
SWIDTH 427 0
DWIDTH 38 0
BBX 35 49 1 -1
BITMAP
0001FFF800
000FFFFF00
001FFFFFE0
007FFFFFE0
00FFFFFFE0
01FFFFFFC0
01FF800FC0
03FE0001C0
03FC000000
03F8000000
07F8000000
07F0000000
07F0000000
07F0000000
07F8000000
07F8000000
03FC000000
03FE000000
03FF000000
01FFC00000
00FFE00000
007FF80000
003FFE0000
001FFF0000
0007FFC000
0003FFE000
0000FFF000
00003FF800
00001FFC00
000007FC00
000003FC00
000001FE00
000001FE00
000000FE00
000000FE00
000000FE00
000000FE00
000001FE00
000001FE00
000003FC00
C00007FC00
F8000FF800
FF007FF800
FFFFFFF000
FFFFFFE000
FFFFFFC000
7FFFFF0000
1FFFFC0000
01FF800000
ENDCHAR
STARTCHAR 0074
ENCODING 116
SWIDTH 326 0
DWIDTH 29 0
BBX 28 60 4 -1
BITMAP
0003C000
0007C000
0007C000
000FC000
000F8000
001F8000
001F8000
003F8000
003F0000
007F0000
007F0000
03FFFFF0
0FFFFFF0
7FFFFFF0
7FFFFFE0
FFFFFFE0
FFFFFFE0
01FE0000
01FC0000
01FC0000
01FC0000
03FC0000
03F80000
03F80000
03F80000
03F80000
07F80000
07F00000
07F00000
07F00000
07F00000
0FF00000
0FE00000
0FE00000
0FE00000
1FE00000
1FE00000
1FC00000
1FC00000
1FC00000
3FC00000
3F800000
3F800000
3F800000
3F800000
7F800000
7F000000
7F000000
7F000000
7F000000
7F000000
7F800000
7F800000
7FE06000
3FFFE000
3FFFE000
1FFFE000
0FFFE000
03FFE000
007F0000
ENDCHAR
STARTCHAR 0075
ENCODING 117
SWIDTH 573 0
DWIDTH 51 0
BBX 44 49 5 -1
BITMAP
01FC00000FF0
01FC00000FE0
01FC00000FE0
03FC00000FE0
03FC00000FE0
03F800001FC0
03F800001FC0
03F800001FC0
07F800001FC0
07F000003FC0
07F000003F80
07F000003F80
0FF000003F80
0FF000003F80
0FE000007F80
0FE000007F00
0FE000007F00
1FE000007F00
1FE000007F00
1FC00000FF00
1FC00000FE00
1FC00000FE00
3FC00000FE00
3F800001FE00
3F800001FC00
3F800001FC00
7F800001FC00
7F800003FC00
7F000003FC00
7F000007F800
7F000007F800
FF000007F800
FF00000FF800
FE00001FF800
FE00001FF000
FE00003FF000
FE00007FF000
FE0000FFF000
FE0001FFE000
FF0003F7E000
FF0007EFE000
FF801FCFE000
7FE0FF8FE000
7FFFFF0FC000
3FFFFE0FC000
1FFFFC0FC000
0FFFF00FC000
07FFE00FC000
00FF00000000
ENDCHAR
STARTCHAR 0076
ENCODING 118
SWIDTH 450 0
DWIDTH 40 0
BBX 41 48 4 0
BITMAP
FF0000007F80
FF0000007F80
FF000000FF00
7F000000FF00
7F000001FE00
7F000001FC00
7F000003FC00
7F000003F800
7F000007F800
7F800007F000
7F80000FF000
3F80001FE000
3F80001FE000
3F80003FC000
3F80003FC000
3F80007F8000
3F80007F0000
3F8000FF0000
3F8000FE0000
1FC001FE0000
1FC001FC0000
1FC003FC0000
1FC003F80000
1FC007F80000
1FC00FF00000
1FC00FF00000
1FC01FE00000
0FC01FC00000
0FE03FC00000
0FE03F800000
0FE07F800000
0FE07F000000
0FE0FF000000
0FE0FE000000
0FE1FE000000
0FE1FC000000
07E3FC000000
07E3F8000000
07E7F0000000
07E7F0000000
07E7E0000000
07EFE0000000
07FFC0000000
07FFC0000000
03FF80000000
03FF80000000
03FF00000000
03FF00000000
ENDCHAR
STARTCHAR 0077
ENCODING 119
SWIDTH 708 0
DWIDTH 63 0
BBX 62 48 5 0
BITMAP
FE00001FC00003FC
FE00003FE00003F8
FE00003FE00007F8
FE00007FE00007F0
FE00007FE0000FF0
FE0000FFE0000FF0
FE0000FFE0001FE0
FE0001FFE0001FE0
FE0001FFE0001FC0
FE0003F7E0003FC0
FE0003F7E0003F80
7E0007F7E0007F80
7E0007E7E0007F00
7F0007E7E000FF00
7F000FC7E000FE00
7F000FC7E001FE00
7F001F87F001FC00
7F001F87F001FC00
7F003F87F003FC00
7F003F07F003F800
7F007F03F007F800
7F007E03F007F000
7F00FE03F00FF000
7F00FC03F00FE000
7F01FC03F01FE000
7F01F803F01FC000
7F03F803F03FC000
7F03F003F03F8000
7F07F003F03F8000
7F07E003F07F0000
7F07E003F07F0000
7F0FC003F0FE0000
7F0FC003F0FE0000
7F1F8003F0FE0000
3F1F8003F1FC0000
3F3F8003F1FC0000
3F3F0001F3F80000
3F3F0001F3F80000
3F7E0001F3F00000
3F7E0001F7F00000
3FFC0001F7E00000
3FFC0001FFE00000
3FF80001FFC00000
3FF80001FFC00000
3FF00001FF800000
3FF00001FF800000
3FE00001FF800000
3FE00001FF000000
ENDCHAR
STARTCHAR 0078
ENCODING 120
SWIDTH 472 0
DWIDTH 42 0
BBX 48 48 -3 0
BITMAP
003F800001FF
001FC00001FE
001FC00003FC
000FE00007F8
000FE0000FF0
000FF0001FF0
0007F0001FE0
0007F0003FC0
0003F8007F80
0003F800FF00
0001FC01FE00
0001FC01FE00
0000FE03FC00
0000FE07F800
0000FE0FF000
00007F1FE000
00007F1FC000
00003FBF8000
00003FFF8000
00001FFF0000
00001FFE0000
00000FFC0000
00000FF80000
00000FF00000
00000FF00000
00001FF80000
00003FF80000
00007FFC0000
0000FFFC0000
0001FEFE0000
0001FCFE0000
0003F8FF0000
0007F87F0000
000FF07F0000
001FE03F8000
003FC03F8000
007F801FC000
007F801FC000
00FF001FE000
01FE000FE000
03FC000FF000
07F80007F000
0FF80007F800
0FF00003F800
1FE00003F800
3FC00001FC00
7F800001FC00
FF800001FE00
ENDCHAR
STARTCHAR 0079
ENCODING 121
SWIDTH 450 0
DWIDTH 40 0
BBX 54 69 -9 -21
BITMAP
0007F8000003FC
0007F8000003FC
0003F8000007F8
0003F8000007F8
0003F800000FF0
0003F800000FE0
0003F800001FE0
0003FC00001FC0
0003FC00003FC0
0001FC00003F80
0001FC00007F80
0001FC00007F00
0001FC0000FF00
0001FC0000FE00
0001FC0001FE00
0000FE0003FC00
0000FE0003F800
0000FE0007F800
0000FE0007F000
0000FE000FF000
0000FE000FE000
0000FE001FE000
00007F001FC000
00007F003FC000
00007F003F8000
00007F007F8000
00007F007F0000
00007F00FE0000
00007F00FE0000
00003F01FC0000
00003F01FC0000
00003F83F80000
00003F83F80000
00003F87F00000
00003F87F00000
00001F8FE00000
00001F8FE00000
00001F9FC00000
00001F9F800000
00001FBF800000
00001FBF000000
00001FFF000000
00000FFE000000
00000FFE000000
00000FFC000000
00000FFC000000
00000FF8000000
00000FF8000000
000007F0000000
00000FE0000000
00001FE0000000
00001FC0000000
00003FC0000000
00003F80000000
00007F80000000
00007F00000000
0000FF00000000
0001FE00000000
0001FC00000000
0003FC00000000
0007F800000000
000FF000000000
003FF000000000
FFFFE000000000
FFFFC000000000
FFFF8000000000
FFFF0000000000
FFFC0000000000
FFF00000000000
ENDCHAR
STARTCHAR 007A
ENCODING 122
SWIDTH 438 0
DWIDTH 39 0
BBX 40 48 -1 0
BITMAP
001FFFFFFF
001FFFFFFF
001FFFFFFF
003FFFFFFE
003FFFFFFE
003FFFFFFE
00000003FE
00000003FC
00000007F8
0000000FF0
0000001FE0
0000003FE0
0000003FC0
0000007F80
000000FF00
000001FE00
000003FC00
000007FC00
000007F800
00000FF000
00001FE000
00003FC000
00007F8000
00007F8000
0000FF0000
0001FE0000
0003FC0000
0007F80000
0007F80000
000FF00000
001FE00000
003FC00000
007F800000
00FF000000
00FF000000
01FE000000
03FC000000
07F8000000
0FF0000000
0FF0000000
1FE0000000
3FC0000000
7F80000000
7FFFFFFF00
FFFFFFFF00
FFFFFFFF00
FFFFFFFE00
FFFFFFFE00
ENDCHAR
STARTCHAR 007B
ENCODING 123
SWIDTH 337 0
DWIDTH 30 0
BBX 34 77 1 -14
BITMAP
0000003FC0
000001FFC0
000003FFC0
000007FFC0
00000FFF80
00001FFF80
00001FF000
00003FC000
00003F8000
00007F0000
00007F0000
00007F0000
00007E0000
0000FE0000
0000FE0000
0000FE0000
0000FE0000
0000FC0000
0001FC0000
0001FC0000
0001FC0000
0001F80000
0001F80000
0003F80000
0003F80000
0003F80000
0003F00000
0007F00000
0007F00000
0007E00000
000FE00000
001FE00000
003FC00000
00FF800000
0FFF800000
7FFE000000
7FFC000000
7FF0000000
7FC0000000
FFF0000000
FFF8000000
07FC000000
01FE000000
00FE000000
007E000000
007F000000
007F000000
007F000000
007F000000
007F000000
007E000000
00FE000000
00FE000000
00FE000000
00FE000000
00FC000000
01FC000000
01FC000000
01FC000000
01F8000000
03F8000000
03F8000000
03F8000000
03F8000000
03F0000000
07F0000000
07F0000000
07F0000000
07F8000000
07F8000000
03FE000000
03FFE00000
01FFE00000
01FFE00000
00FFE00000
003FE00000
0007E00000
ENDCHAR
STARTCHAR 007C
ENCODING 124
SWIDTH 540 0
DWIDTH 48 0
BBX 6 89 23 -21
BITMAP
FC
FC
FC
FC
FC
FC
FC
FC
FC
FC
FC
FC
FC
FC
FC
FC
FC
FC
FC
FC
FC
FC
FC
FC
FC
FC
FC
FC
FC
FC
FC
FC
FC
FC
FC
FC
FC
FC
FC
FC
FC
FC
FC
FC
FC
FC
FC
FC
FC
FC
FC
FC
FC
FC
FC
FC
FC
FC
FC
FC
FC
FC
FC
FC
FC
FC
FC
FC
FC
FC
FC
FC
FC
FC
FC
FC
FC
FC
FC
FC
FC
FC
FC
FC
FC
FC
FC
FC
FC
ENDCHAR
STARTCHAR 007D
ENCODING 125
SWIDTH 337 0
DWIDTH 30 0
BBX 33 77 -3 -14
BITMAP
0003FC0000
0003FF0000
0003FFC000
0003FFE000
0003FFE000
0007FFF000
00001FF000
000007F000
000007F000
000007F000
000007F000
000007F000
000007F000
000007F000
000007E000
000007E000
00000FE000
00000FE000
00000FC000
00000FC000
00001FC000
00001FC000
00001FC000
00001F8000
00001F8000
00003F8000
00003F8000
00003F8000
00003F0000
00003F0000
00003F0000
00003F8000
00003F8000
00001FC000
00001FE000
00000FFC00
000007FF80
000003FF80
000000FF80
000007FF80
00001FFF00
00003FFF00
00007FE000
0000FF0000
0001FE0000
0001FC0000
0003F80000
0003F80000
0003F00000
0007F00000
0007F00000
0007F00000
0007E00000
000FE00000
000FE00000
000FE00000
000FC00000
000FC00000
001FC00000
001FC00000
001FC00000
001F800000
003F800000
003F800000
003F800000
003F800000
007F000000
007F000000
00FF000000
01FE000000
0FFE000000
FFFC000000
FFF8000000
FFF8000000
FFE0000000
FFC0000000
FE00000000
ENDCHAR
STARTCHAR 007E
ENCODING 126
SWIDTH 562 0
DWIDTH 50 0
BBX 42 11 6 26
BITMAP
01FE00000000
07FFE0000040
1FFFFC0001C0
3FFFFF0003C0
FFFFFFE00FC0
FFFFFFFFFFC0
FE03FFFFFFC0
F8003FFFFF80
E0000FFFFF00
C00003FFFC00
8000007FF000
ENDCHAR
STARTCHAR 00A0
ENCODING 160
SWIDTH 258 0
DWIDTH 23 0
BBX 0 0 0 0
BITMAP
ENDCHAR
STARTCHAR 00A1
ENCODING 161
SWIDTH 247 0
DWIDTH 22 0
BBX 22 64 -1 -16
BITMAP
0001F8
0007FC
0007FC
000FFC
000FFC
000FFC
000FFC
000FF8
000FF8
0007F0
0003C0
000000
000000
000000
000000
000000
000000
000000
000F80
000F80
001F00
001F00
001F00
001F00
003F00
003F00
003E00
003E00
007E00
007E00
007E00
007E00
00FC00
00FC00
00FC00
01FC00
01FC00
01F800
01F800
03F800
03F800
03F800
03F800
07F000
07F000
07F000
07F000
0FF000
0FF000
0FE000
0FE000
1FE000
1FE000
1FE000
1FE000
3FC000
3FC000
3FC000
3FC000
7FC000
7FC000
7F8000
7F8000
FF8000
ENDCHAR
STARTCHAR 00A2
ENCODING 162
SWIDTH 540 0
DWIDTH 48 0
BBX 37 65 9 -1
BITMAP
000000F800
000000F800
000001F800
000001F000
000001F000
000001F000
000001F000
00000FFF00
00007FFFF0
0001FFFFF8
0007FFFFF8
000FFFFFF0
001FFFFFF0
003FF803F0
007FE00020
00FF800000
01FF000000
03FE000000
03FC000000
07F8000000
07F8000000
0FF0000000
0FF0000000
1FE0000000
1FE0000000
3FC0000000
3FC0000000
3F80000000
3F80000000
7F80000000
7F80000000
7F00000000
7F00000000
7F00000000
7F00000000
7F00000000
7F00000000
FF00000000
FF00000000
7F00000000
7F00000000
7F00000000
7F00000000
7F80000000
7F80000000
3FC0000000
3FC0000000
3FE0000000
1FF8001C00
0FFE00FC00
0FFFFFFC00
07FFFFFC00
03FFFFFC00
00FFFFFC00
003FFFF000
000FFF0000
000FC00000
000FC00000
000F800000
000F800000
000F800000
001F800000
001F800000
001F000000
001F000000
ENDCHAR
STARTCHAR 00A3
ENCODING 163
SWIDTH 540 0
DWIDTH 48 0
BBX 52 64 -1 0
BITMAP
00000000FFF800
00000007FFFF00
0000001FFFFFC0
0000003FFFFFF0
000000FFFFFFF0
000000FFFFFFE0
000001FF801FE0
000003FE0003C0
000007FC0000C0
000007F8000000
000007F0000000
00000FF0000000
00000FE0000000
00001FE0000000
00001FC0000000
00001FC0000000
00001FC0000000
00001FC0000000
00003FC0000000
00003F80000000
00003F80000000
00003F80000000
00007F80000000
00007F00000000
00007F00000000
00007F00000000
00007F00000000
0000FF00000000
0000FE00000000
0000FE00000000
01FFFFFFFE0000
01FFFFFFFE0000
01FFFFFFFC0000
03FFFFFFFC0000
03FFFFFFFC0000
03FFFFFFFC0000
0003FC00000000
0003F800000000
0003F800000000
0003F800000000
0003F800000000
0007F800000000
0007F000000000
0007F000000000
0007F000000000
0007F000000000
000FE000000000
000FE000000000
000FE000000000
001FE000000000
001FC000000000
003FC000000000
003F8000000000
007F0000000000
00FE0000000000
01FC0000000000
07F80000000000
1FFFFFFFFFE000
7FFFFFFFFFE000
7FFFFFFFFFC000
7FFFFFFFFFC000
7FFFFFFFFFC000
FFFFFFFFFFC000
FFFFFFFFFFC000
ENDCHAR
STARTCHAR 00A4
ENCODING 164
SWIDTH 551 0
DWIDTH 49 0
BBX 38 39 7 12
BITMAP
0000000020
1800000070
3C000000F8
7E01FE01FC
FF0FFFC3FC
7F9FFFF7F8
3FFFFFFFF0
1FFFFFFFE0
0FFFEFFFC0
07FC00FF80
07F8003F80
07F0001FC0
0FE0000FC0
0FC00007E0
0F800007E0
1F800003E0
1F800003E0
1F000003F0
1F000003F0
1F000003F0
1F000003F0
1F000003F0
1F800003F0
1F800003E0
1F800007E0
0FC00007E0
0FE0000FC0
07E0001FC0
07F8003F80
07FC00FF80
0FFFCFFFC0
1FFFFFFFE0
3FFFFFFFF0
7FBFFFF7F8
FF0FFFC3FC
7E01FF01FC
3C000000F8
1800000070
0000000020
ENDCHAR
STARTCHAR 00A5
ENCODING 165
SWIDTH 540 0
DWIDTH 48 0
BBX 48 63 6 0
BITMAP
07F0000000FF
07F0000001FE
07F0000001FE
07F0000003FC
03F8000007F8
03F8000007F8
03F800000FF0
03F800001FE0
01FC00001FC0
01FC00003FC0
01FC00007F80
00FC00007F00
00FE0000FF00
00FE0001FE00
00FE0001FC00
007E0003FC00
007F0007F800
007F0007F000
007F000FE000
003F001FE000
003F801FC000
003F803F8000
001F807F8000
001F807F0000
001FC0FE0000
001FC1FE0000
000FC1FC0000
000FC3F80000
000FE7F00000
0007E7F00000
0007EFE00000
0007FFC00000
0007FFC00000
1FFFFFFFF000
1FFFFFFFE000
1FFFFFFFE000
1FFFFFFFE000
3FFFFFFFE000
3FFFFFFFC000
0001F8000000
0003F8000000
0003F8000000
0003F8000000
0003F8000000
0003F0000000
0007F0000000
FFFFFFFF8000
FFFFFFFF8000
FFFFFFFF0000
FFFFFFFF0000
FFFFFFFF0000
000FE0000000
000FE0000000
000FE0000000
000FC0000000
001FC0000000
001FC0000000
001FC0000000
001F80000000
003F80000000
003F80000000
003F80000000
003F80000000
ENDCHAR
STARTCHAR 00A6
ENCODING 166
SWIDTH 540 0
DWIDTH 48 0
BBX 6 89 23 -21
BITMAP
FC
FC
FC
FC
FC
FC
FC
FC
FC
FC
FC
FC
FC
FC
FC
FC
FC
FC
FC
FC
FC
FC
FC
FC
FC
FC
FC
FC
FC
FC
FC
FC
FC
FC
00
00
00
00
00
00
00
00
00
00
00
00
00
00
00
00
00
00
00
00
00
00
FC
FC
FC
FC
FC
FC
FC
FC
FC
FC
FC
FC
FC
FC
FC
FC
FC
FC
FC
FC
FC
FC
FC
FC
FC
FC
FC
FC
FC
FC
FC
FC
FC
ENDCHAR
STARTCHAR 00A7
ENCODING 167
SWIDTH 483 0
DWIDTH 43 0
BBX 41 68 2 0
BITMAP
000003FF8000
00001FFFFC00
00007FFFFF00
0001FFFFFF80
0003FFFFFF80
0007FFFFFF00
000FFC003F00
000FF0000600
001FE0000000
001FC0000000
001FC0000000
001FC0000000
001FC0000000
001FC0000000
001FC0000000
001FE0000000
000FF0000000
000FFC000000
0007FE000000
0003FF800000
0001FFF00000
0000FFFC0000
0003FFFE0000
000FFFFF8000
001FF7FFC000
003F81FFE000
007F007FF000
00FE001FF000
01FC000FF800
01F80007F800
03F80003F800
03F00003F800
03F00001F800
03F00001F800
03F00001F800
03F00003F800
03F80003F800
03F80003F000
03FC0007F000
01FE000FE000
01FF801FC000
00FFE03FC000
007FF87F8000
003FFFFE0000
001FFFFC0000
0007FFF80000
0001FFF00000
00007FF80000
00001FFC0000
000007FE0000
000003FE0000
000000FF0000
000000FF0000
0000007F0000
0000007F0000
0000007F0000
0000007F0000
0000007F0000
0000007F0000
800000FE0000
E00001FE0000
F80007FC0000
FF803FFC0000
FFFFFFF80000
FFFFFFE00000
FFFFFFC00000
3FFFFF000000
07FFF8000000
ENDCHAR
STARTCHAR 00A8
ENCODING 168
SWIDTH 551 0
DWIDTH 49 0
BBX 24 9 20 56
BITMAP
08000C
7E007E
7F007F
FF00FF
FF00FF
FF00FF
FE00FE
7C007C
380038
ENDCHAR
STARTCHAR 00A9
ENCODING 169
SWIDTH 821 0
DWIDTH 73 0
BBX 66 65 4 -1
BITMAP
0000007FFF80000000
000007FFFFF0000000
00001FFFFFFE000000
00007FFFFFFF800000
0001FFF003FFC00000
0003FF00003FF00000
000FF8000007F80000
001FE0000001FE0000
003F80000000FF0000
007F000000003F8000
00FE000000001FC000
01FC000000000FC000
03F80000000007E000
03F0000FFF8003F000
07E0003FFFF001F800
07C000FFFFFC00F800
0F8001FFFFF800FC00
0F8003FFFFF8007C00
1F0007FE01F0007E00
1F000FF80030003E00
3E000FE00000003F00
3E001FC00000001F00
3E001FC00000001F00
7C003F800000000F80
7C003F800000000F80
7C003F000000000F80
7C007F000000000F80
78007F000000000F80
F8007E000000000780
F8007E0000000007C0
F8007E0000000007C0
F8007E0000000007C0
F8007E0000000007C0
F8007E0000000007C0
F8007E0000000007C0
F8007E000000000780
78007F000000000780
7C007F000000000F80
7C007F000000000F80
7C003F000000000F80
7C003F800000000F80
7C003F800000001F00
3E001FC00000001F00
3E001FC00000001F00
3F000FE00000003E00
1F000FF80030003E00
1F8007FF07F0007E00
0F8003FFFFF0007C00
0FC001FFFFF000FC00
07E000FFFFF001F800
07E0003FFFE003F000
03F00007FF0003F000
01F80000000007E000
00FC000000000FC000
00FE000000003F8000
007F800000007F0000
003FC0000000FE0000
000FF0000003FC0000
0007FC00001FF80000
0003FF8000FFF00000
0000FFFFFFFFC00000
00003FFFFFFF000000
00000FFFFFFC000000
000001FFFFE0000000
0000001FFC00000000
ENDCHAR
STARTCHAR 00AA
ENCODING 170
SWIDTH 326 0
DWIDTH 29 0
BBX 27 30 7 34
BITMAP
001FC1E0
007FE1E0
01FFF3E0
03FFFBC0
07F8FFC0
0FE03FC0
0FC01FC0
1F801FC0
1F000F80
3F000F80
3E000F80
3E000F80
7C000F00
7C001F00
7C001F00
7C001F00
7C001F00
F8003E00
F8003E00
F8007E00
F8007E00
F800FE00
7C01FC00
7C03FC00
7E07BC00
7FFF3C00
3FFE7C00
1FFC7800
0FF87800
03E00000
ENDCHAR
STARTCHAR 00AB
ENCODING 171
SWIDTH 461 0
DWIDTH 41 0
BBX 36 37 4 5
BITMAP
0000800000
0001C000C0
0003E001E0
0007F003F0
000FE007F0
001FC00FE0
003FC01FC0
007F803FC0
00FF003F80
01FE007F00
03FC00FE00
07F801FC00
0FF003FC00
1FE007F800
3FC00FF000
7F801FE000
FF003FE000
FF007FC000
FE007F8000
FF007F0000
7F007F8000
7F803F8000
3F803F8000
3F801FC000
1FC01FC000
1FC00FE000
0FE00FE000
07E007F000
07F003F000
03F003F800
03F801F800
01F801FC00
01F800FC00
00FC00FC00
00FC007E00
0078007800
0040002000
ENDCHAR
STARTCHAR 00AC
ENCODING 172
SWIDTH 562 0
DWIDTH 50 0
BBX 42 23 6 11
BITMAP
FFFFFFFFFFC0
FFFFFFFFFFC0
FFFFFFFFFFC0
FFFFFFFFFFC0
FFFFFFFFFFC0
FFFFFFFFFFC0
000000000FC0
000000000FC0
000000000FC0
000000000FC0
000000000FC0
000000000FC0
000000000FC0
000000000FC0
000000000FC0
000000000FC0
000000000FC0
000000000FC0
000000000FC0
000000000FC0
000000000FC0
000000000FC0
000000000FC0
ENDCHAR
STARTCHAR 00AD
ENCODING 173
SWIDTH 303 0
DWIDTH 27 0
BBX 23 7 2 20
BITMAP
3FFFFE
3FFFFC
7FFFFC
7FFFFC
7FFFFC
7FFFFC
FFFFF8
ENDCHAR
STARTCHAR 00AE
ENCODING 174
SWIDTH 821 0
DWIDTH 73 0
BBX 66 65 4 -1
BITMAP
0000007FFF80000000
000007FFFFF0000000
00001FFFFFFE000000
00007FFFFFFF800000
0001FFF003FFC00000
0003FF00003FF00000
000FF8000007F80000
001FE0000001FE0000
003F80000000FF0000
007F000000003F8000
00FE000000001FC000
01FC000000000FC000
03F80000000007E000
03F007FFFC0003F000
07E007FFFF8001F800
07C007FFFFC000F800
0F8007FFFFF000FC00
0F8007FFFFF0007C00
1F0007E01FF8007E00
1F0007E003F8003E00
3E0007E001FC003F00
3E0007E001FC001F00
3E0007E000FC001F00
7C0007E000FC000F80
7C0007E000FC000F80
7C0007E000FC000F80
7C0007E001FC000F80
780007E001FC000F80
F80007E001F8000780
F80007E007F80007C0
F80007E00FF00007C0
F80007FFFFE00007C0
F80007FFFFC00007C0
F80007FFFF800007C0
F80007FFFE000007C0
F80007FFFF00000780
780007E07F00000780
7C0007E03F80000F80
7C0007E01F80000F80
7C0007E01FC0000F80
7C0007E00FE0000F80
7C0007E00FE0001F00
3E0007E007F0001F00
3E0007E007F0001F00
3F0007E003F8003E00
1F0007E001FC003E00
1F8007E001FC007E00
0F8007E000FE007C00
0FC007E000FE00FC00
07E007E0007F01F800
07E007E0003F83F000
03F007E0003F83F000
01F80000000007E000
00FC000000000FC000
00FE000000003F8000
007F800000007F0000
003FC0000000FE0000
000FF0000003FC0000
0007FC00001FF80000
0003FF8000FFF00000
0000FFFFFFFFC00000
00003FFFFFFF000000
00000FFFFFFC000000
000001FFFFE0000000
0000001FFC00000000
ENDCHAR
STARTCHAR 00AF
ENCODING 175
SWIDTH 393 0
DWIDTH 35 0
BBX 36 5 9 68
BITMAP
7FFFFFFFF0
7FFFFFFFF0
7FFFFFFFF0
FFFFFFFFF0
FFFFFFFFE0
ENDCHAR
STARTCHAR 00B0
ENCODING 176
SWIDTH 427 0
DWIDTH 38 0
BBX 28 27 5 37
BITMAP
007FE000
03FFFC00
07FFFE00
0FFFFF00
1FFFFF80
3F801FC0
3F000FC0
7E0007E0
7C0003E0
FC0003F0
FC0003F0
FC0003F0
F80001F0
F80001F0
FC0001F0
FC0003F0
FC0003F0
7C0003E0
7E0007E0
7F000FE0
3F801FC0
1FF07F80
1FFFFF80
0FFFFE00
03FFFC00
00FFF000
000F0000
ENDCHAR
STARTCHAR 00B1
ENCODING 177
SWIDTH 562 0
DWIDTH 50 0
BBX 42 53 6 0
BITMAP
00003F000000
00003F000000
00003F000000
00003F000000
00003F000000
00003F000000
00003F000000
00003F000000
00003F000000
00003F000000
00003F000000
00003F000000
00003F000000
00003F000000
00003F000000
00003F000000
00003F000000
00003F000000
FFFFFFFFFFC0
FFFFFFFFFFC0
FFFFFFFFFFC0
FFFFFFFFFFC0
FFFFFFFFFFC0
FFFFFFFFFFC0
00003F000000
00003F000000
00003F000000
00003F000000
00003F000000
00003F000000
00003F000000
00003F000000
00003F000000
00003F000000
00003F000000
00003F000000
00003F000000
00003F000000
00003F000000
00003F000000
00003F000000
00003F000000
00003F000000
000000000000
000000000000
000000000000
000000000000
FFFFFFFFFFC0
FFFFFFFFFFC0
FFFFFFFFFFC0
FFFFFFFFFFC0
FFFFFFFFFFC0
FFFFFFFFFFC0
ENDCHAR
STARTCHAR 00B2
ENCODING 178
SWIDTH 337 0
DWIDTH 30 0
BBX 29 39 6 37
BITMAP
0001FC00
000FFF80
003FFFC0
00FFFFE0
01FFFFF0
01FE07F0
00F003F8
006001F8
000001F8
000001F8
000001F8
000001F8
000001F8
000001F0
000003F0
000003F0
000007E0
00000FC0
00001FC0
00003F80
00007F00
0000FE00
0001FC00
0003F800
0007F000
000FE000
003F8000
007F0000
00FE0000
01FC0000
03F80000
07E00000
1FC00000
3F800000
7FFFFFC0
7FFFFF80
7FFFFF80
FFFFFF80
FFFFFF80
ENDCHAR
STARTCHAR 00B3
ENCODING 179
SWIDTH 337 0
DWIDTH 30 0
BBX 28 40 7 36
BITMAP
0007F800
003FFF00
00FFFF80
03FFFFC0
03FFFFE0
01F80FE0
01C007F0
008003F0
000003F0
000003F0
000003F0
000003F0
000003E0
000007E0
00000FC0
00001FC0
00007F00
007FFE00
00FFF800
00FFE000
00FFFC00
00FFFE00
00007F00
00003F00
00001F80
00001F80
00000F80
00000F80
00001F80
00001F80
00001F80
00003F80
80003F00
F000FF00
FE03FE00
FFFFFC00
FFFFF800
FFFFF000
1FFF8000
00600000
ENDCHAR
STARTCHAR 00B4
ENCODING 180
SWIDTH 247 0
DWIDTH 22 0
BBX 19 14 10 54
BITMAP
003FE0
007FC0
007F80
00FF00
01FE00
03FC00
03F800
07F000
0FE000
1FC000
3F8000
3F0000
7E0000
FC0000
ENDCHAR
STARTCHAR 00B5
ENCODING 181
SWIDTH 573 0
DWIDTH 51 0
BBX 51 69 -2 -21
BITMAP
0001FC00000FE0
0003FC00000FE0
0003F800000FE0
0003F800001FC0
0003F800001FC0
0007F800001FC0
0007F800001FC0
0007F000003FC0
0007F000003F80
0007F000003F80
000FF000003F80
000FE000003F80
000FE000007F80
000FE000007F00
000FE000007F00
001FE000007F00
001FC00000FF00
001FC00000FE00
001FC00000FE00
001FC00000FE00
003FC00000FE00
003F800001FE00
003F800001FC00
003F800001FC00
007F800001FC00
007F800003FC00
007F000003FC00
007F000003F800
007F000007F800
00FF000007F800
00FE00000FF800
00FE00000FF000
00FE00001FF000
00FE00001FF000
01FE00003FF000
01FE00007FF000
01FE00007FE000
01FE0000FFE000
01FE0001FFE000
03FE0003EFE000
03FF000FCFE000
03FF801FCFC000
03FFE0FF8FC000
07FFFFFF0FC000
07FFFFFE1FC000
07F7FFFC1F8000
07F3FFF01F8000
07E1FFC01F8000
0FE07E00000000
0FE00000000000
0FE00000000000
0FE00000000000
0FE00000000000
1FC00000000000
1FC00000000000
1FC00000000000
1FC00000000000
1FC00000000000
3F800000000000
3F800000000000
3F800000000000
3F800000000000
7F800000000000
7F000000000000
7F000000000000
7F000000000000
7F000000000000
FF000000000000
FE000000000000
ENDCHAR
STARTCHAR 00B6
ENCODING 182
SWIDTH 652 0
DWIDTH 58 0
BBX 43 79 9 -11
BITMAP
00003FFFFFE0
001FFFFFFFE0
007FFFFFFFE0
01FFFFFFFFE0
03FFFFFFFFE0
07FFFFFFFFE0
0FFFFFFFFFE0
1FFFFFF803E0
1FFFFFF803E0
3FFFFFF803E0
3FFFFFF803E0
7FFFFFF803E0
7FFFFFF803E0
7FFFFFF803E0
FFFFFFF803E0
FFFFFFF803E0
FFFFFFF803E0
FFFFFFF803E0
FFFFFFF803E0
FFFFFFF803E0
FFFFFFF803E0
FFFFFFF803E0
FFFFFFF803E0
FFFFFFF803E0
FFFFFFF803E0
FFFFFFF803E0
FFFFFFF803E0
FFFFFFF803E0
FFFFFFF803E0
FFFFFFF803E0
7FFFFFF803E0
7FFFFFF803E0
7FFFFFF803E0
7FFFFFF803E0
3FFFFFF803E0
3FFFFFF803E0
1FFFFFF803E0
1FFFFFF803E0
0FFFFFF803E0
07FFFFF803E0
03FFFFF803E0
00FFFFF803E0
003FFFF803E0
0003F8F803E0
000000F803E0
000000F803E0
000000F803E0
000000F803E0
000000F803E0
000000F803E0
000000F803E0
000000F803E0
000000F803E0
000000F803E0
000000F803E0
000000F803E0
000000F803E0
000000F803E0
000000F803E0
000000F803E0
000000F803E0
000000F803E0
000000F803E0
000000F803E0
000000F803E0
000000F803E0
000000F803E0
000000F803E0
000000F803E0
000000F803E0
000000F803E0
000000F803E0
000000F803E0
000000F803E0
000000F803E0
000000F803E0
000000F803E0
000000F803E0
000000F803E0
ENDCHAR
STARTCHAR 00B7
ENCODING 183
SWIDTH 247 0
DWIDTH 22 0
BBX 11 12 7 25
BITMAP
0200
1FC0
3FC0
7FE0
7FE0
7FE0
FFE0
FFC0
FFC0
7F80
7F00
1C00
ENDCHAR
STARTCHAR 00B8
ENCODING 184
SWIDTH 202 0
DWIDTH 18 0
BBX 17 21 -8 -21
BITMAP
007C00
007800
00F800
01F000
01F000
03F000
03FC00
07FF00
00FF00
003F80
001F80
001F80
001F80
001F80
003F80
003F00
01FF00
FFFE00
FFFC00
FFF800
FFC000
ENDCHAR
STARTCHAR 00B9
ENCODING 185
SWIDTH 337 0
DWIDTH 30 0
BBX 18 38 13 37
BITMAP
000FC0
001FC0
007F80
01FF80
03FF80
0FFF80
1FDF80
7F9F00
FF3F00
7C3F00
383F00
203E00
007E00
007E00
007E00
007E00
00FC00
00FC00
00FC00
00FC00
00FC00
01F800
01F800
01F800
01F800
01F800
03F000
03F000
03F000
03F000
07E000
07E000
07E000
07E000
07E000
0FC000
0FC000
0FC000
ENDCHAR
STARTCHAR 00BA
ENCODING 186
SWIDTH 337 0
DWIDTH 30 0
BBX 25 30 8 34
BITMAP
003FE000
00FFF800
03FFFC00
07FFFE00
0FF0FE00
1FC03F00
1F801F00
3F001F80
3E000F80
7C000F80
7C000F80
7C000F80
F8000F80
F8000F80
F8000F80
F8000F80
F8000F00
F8001F00
F8001F00
F8001F00
F8003E00
F8003E00
FC007C00
7C00FC00
7E03F800
3FFFF000
3FFFE000
1FFFC000
07FF8000
01F80000
ENDCHAR
STARTCHAR 00BB
ENCODING 187
SWIDTH 461 0
DWIDTH 41 0
BBX 37 37 1 5
BITMAP
0060002000
01E000F000
07F003F000
03F001F800
03F801F800
01F801FC00
01FC00FC00
00FC00FE00
00FE007E00
007E007F00
007F003F00
003F003F80
003F801F80
003FC01FC0
001FC01FC0
001FE00FE0
000FE00FF0
000FF007F0
000FF007F8
001FE007F8
003FC00FF8
007F801FF0
00FF003FE0
00FE007FC0
01FE00FF80
03FC01FF00
07F801FE00
0FF003FC00
0FE007F800
1FC00FE000
3F801FC000
7F003F8000
FE007F0000
FC00FE0000
78007C0000
3000380000
0000100000
ENDCHAR
STARTCHAR 00BC
ENCODING 188
SWIDTH 720 0
DWIDTH 64 0
BBX 53 63 8 0
BITMAP
0007F0000003F8
000FF0000007F0
003FF000000FE0
007FE000000FC0
01FFE000001FC0
03FFE000003F80
0FF7E000003F00
3FE7C000007E00
1F87C00000FE00
0F0FC00001FC00
0C0FC00001F800
000FC00003F000
001F800007F000
001F80000FE000
001F80000FC000
001F80001F8000
001F80003F8000
003F00007F0000
003F00007E0000
003F0000FC0000
003F0001FC0000
003F0003F80000
007E0003F00000
007E0007F00000
007E000FE00000
007E001FC003F8
007C001F8003F8
00FC003F8007F8
00FC007F000FF0
00FC00FE001FF0
00FC00FC003FF0
01F801FC007FF0
01F803F8007FE0
01F807F000FBE0
01F807E001F3E0
01F80FE003F7E0
03F01FC007E7E0
03F03F800FC7C0
00003F000F87C0
00007F001F0FC0
0000FE003F0FC0
0000FC007E0FC0
0001F800FC0F80
0003F801F80F80
0007F001F01F80
0007E003E01F80
000FC007C01F00
001FC00FC01F00
003F801F803F00
003F003FFFFFF8
007E003FFFFFF8
00FE003FFFFFF8
01FC003FFFFFF8
01F8007FFFFFF8
03F00000007E00
07F00000007C00
0FE00000007C00
0FC0000000FC00
1FC0000000FC00
3F80000000FC00
7F00000000F800
7E00000000F800
FE00000001F800
ENDCHAR
STARTCHAR 00BD
ENCODING 189
SWIDTH 787 0
DWIDTH 70 0
BBX 59 63 8 0
BITMAP
0007F0000003F800
000FF0000007F000
003FF0000007E000
007FE000000FC000
01FFE000001FC000
03FFE000003F8000
0FF7E000003F0000
3FE7C000007E0000
1F87C00000FE0000
0F0FC00001FC0000
0C0FC00001F80000
000FC00003F80000
001F800007F00000
001F80000FE00000
001F80000FC00000
001F80001FC00000
001F80003F800000
003F00007F000000
003F00007E000000
003F0000FE000000
003F0001FC000000
003F0003F8000000
007E0003F0000000
007E0007F0000000
007E000FE007F800
007E001FC03FFE00
007C001F80FFFF00
00FC003F83FFFF80
00FC007F07FFFFC0
00FC007E07F01FC0
00FC00FC03C00FE0
01F801FC018007E0
01F803F8000007E0
01F803F0000007E0
01F807E0000007E0
01F80FE0000007E0
03F01FC0000007E0
03F01F80000007C0
00003F0000000FC0
00007F0000001FC0
0000FE0000001F80
0000FC0000003F00
0001F80000007F00
0003F8000000FE00
0007F0000001FC00
0007E0000003F800
000FE0000007F000
001FC000000FE000
003F8000001FC000
003F0000007F0000
007F000000FE0000
00FE000001FC0000
01FC000003F80000
01F8000007F00000
03F800000FC00000
07F000003F800000
0FE000007F000000
0FC00000FE000000
1FC00001FFFFFF00
3F800001FFFFFE00
7F000001FFFFFE00
7E000003FFFFFE00
FE000003FFFFFE00
ENDCHAR
STARTCHAR 00BE
ENCODING 190
SWIDTH 776 0
DWIDTH 69 0
BBX 61 64 5 0
BITMAP
001FFC0000000000
007FFF00000003F8
01FFFF80000003F0
07FFFFC0000007E0
03FFFFE000000FE0
03E00FE000001FC0
018007E000001F80
000007F000003F80
000003F000007F00
000003F00000FE00
000003E00000FC00
000003E00001FC00
000007E00003F800
000007C00007F000
00001FC00007E000
00003F80000FE000
00FFFE00001FC000
00FFFC00003F8000
00FFE000003F0000
00FFF000007F0000
01FFFC0000FE0000
0001FE0001FC0000
00007F0001F80000
00003F0003F80000
00001F8007F00000
00001F8007E00000
00001F800FC003F8
00001F801FC003F8
00001F803F8007F8
00001F803F000FF0
00003F007E001FF0
00003F00FE003FF0
C0007F01FC007FF0
F001FE01F8007FE0
FFFFFC03F000FBE0
FFFFF807F001F7E0
FFFFF00FE003F7E0
7FFFC00FC007E7E0
0FFE001F800FC7C0
0000003F800F87C0
0000007F001F0FC0
0000007E003F0FC0
000000FE007E0FC0
000001FC00FC0F80
000003F801F80F80
000003F001F01F80
000007F003E01F80
00000FE007E01F00
00001FC00FC01F00
00001F801F803F00
00003F803FFFFFF8
00007F003FFFFFF8
0000FE003FFFFFF8
0000FC003FFFFFF8
0001FC007FFFFFF8
0003F80000007E00
0007F00000007C00
0007E00000007C00
000FE0000000FC00
001FC0000000FC00
001F80000000FC00
003F00000000F800
007F00000000F800
00FE00000001F800
ENDCHAR
STARTCHAR 00BF
ENCODING 191
SWIDTH 416 0
DWIDTH 37 0
BBX 33 65 -2 -17
BITMAP
0000003F00
0000007F80
000000FF80
000000FF80
000001FF80
000001FF80
000001FF80
000001FF80
000001FF00
000000FE00
0000007C00
0000000000
0000000000
0000000000
0000000000
0000000000
0000000000
0000000000
000001F800
000001F800
000001F800
000003F000
000003F000
000003F000
000007F000
00000FE000
00001FE000
00003FC000
00007F8000
0000FF8000
0001FF0000
0003FE0000
000FFC0000
001FF80000
003FF00000
00FFC00000
01FF800000
03FF000000
07FE000000
07F8000000
0FF0000000
1FE0000000
3FC0000000
3FC0000000
7F80000000
7F80000000
7F00000000
7F00000000
FF00000000
FF00000000
FF00000000
FF00000000
FF00000000
FF00000000
7F00000000
7F80000000
7FC0003C00
7FE000FC00
3FF80FFC00
3FFFFFFE00
1FFFFFFE00
0FFFFFFC00
07FFFFF000
01FFFF8000
003FFC0000
ENDCHAR
STARTCHAR 00C0
ENCODING 192
SWIDTH 551 0
DWIDTH 49 0
BBX 50 84 -5 0
BITMAP
00000003FC0000
00000001FE0000
00000001FE0000
00000000FF0000
000000007F0000
000000007F0000
000000003F8000
000000001F8000
000000001FC000
000000000FC000
0000000007E000
0000000003F000
0000000001F000
0000000001F800
00000000000000
00000000000000
00000000000000
00000000000000
00000000000000
00000000000000
00000000000000
000000003FE000
000000003FE000
000000007FE000
000000007FE000
00000000FFE000
00000000FFE000
00000001FFE000
00000003FFE000
00000003FFF000
00000007F7F000
00000007F7F000
0000000FE7F000
0000000FE7F000
0000001FC3F000
0000001FC3F000
0000003F83F000
0000007F83F800
0000007F03F800
000000FF03F800
000000FE03F800
000001FE03F800
000001FC03F800
000003FC03F800
000003F801F800
000007F801FC00
000007F001FC00
00000FF001FC00
00001FE001FC00
00001FC001FC00
00003FC001FC00
00003F8001FC00
00007F8001FE00
00007F0000FE00
0000FF0000FE00
0000FE0000FE00
0001FE0000FE00
0001FFFFFFFE00
0003FFFFFFFE00
0007FFFFFFFE00
0007FFFFFFFF00
000FFFFFFFFF00
000FFFFFFFFF00
001FFFFFFFFF00
001FC000007F00
003FC000007F00
003F8000007F00
007F8000007F00
00FF0000007F80
00FF0000007F80
01FE0000003F80
01FE0000003F80
03FC0000003F80
03FC0000003F80
07F80000003F80
07F80000003F80
0FF00000003FC0
0FF00000003FC0
1FE00000001FC0
3FC00000001FC0
3FC00000001FC0
7F800000001FC0
7F800000001FC0
FF000000001FC0
ENDCHAR
STARTCHAR 00C1
ENCODING 193
SWIDTH 551 0
DWIDTH 49 0
BBX 54 84 -5 0
BITMAP
000000000007FC
000000000007F8
00000000000FF0
00000000001FE0
00000000003FE0
00000000003FC0
00000000007F80
0000000000FF00
0000000001FE00
0000000003F800
0000000003F000
0000000007E000
000000000FC000
000000001F8000
00000000000000
00000000000000
00000000000000
00000000000000
00000000000000
00000000000000
00000000000000
000000003FE000
000000003FE000
000000007FE000
000000007FE000
00000000FFE000
00000000FFE000
00000001FFE000
00000003FFE000
00000003FFF000
00000007F7F000
00000007F7F000
0000000FE7F000
0000000FE7F000
0000001FC3F000
0000001FC3F000
0000003F83F000
0000007F83F800
0000007F03F800
000000FF03F800
000000FE03F800
000001FE03F800
000001FC03F800
000003FC03F800
000003F801F800
000007F801FC00
000007F001FC00
00000FF001FC00
00001FE001FC00
00001FC001FC00
00003FC001FC00
00003F8001FC00
00007F8001FE00
00007F0000FE00
0000FF0000FE00
0000FE0000FE00
0001FE0000FE00
0001FFFFFFFE00
0003FFFFFFFE00
0007FFFFFFFE00
0007FFFFFFFF00
000FFFFFFFFF00
000FFFFFFFFF00
001FFFFFFFFF00
001FC000007F00
003FC000007F00
003F8000007F00
007F8000007F00
00FF0000007F80
00FF0000007F80
01FE0000003F80
01FE0000003F80
03FC0000003F80
03FC0000003F80
07F80000003F80
07F80000003F80
0FF00000003FC0
0FF00000003FC0
1FE00000001FC0
3FC00000001FC0
3FC00000001FC0
7F800000001FC0
7F800000001FC0
FF000000001FC0
ENDCHAR
STARTCHAR 00C2
ENCODING 194
SWIDTH 551 0
DWIDTH 49 0
BBX 52 84 -5 0
BITMAP
0000000003F800
0000000007FC00
000000000FFC00
000000001FFC00
000000003FFE00
000000007FFF00
00000000FF7F00
00000001FE3F80
00000003FC1F80
00000007F80FC0
0000000FE00FE0
0000001FC007E0
0000003F8003F0
0000003E0001F0
00000000000000
00000000000000
00000000000000
00000000000000
00000000000000
00000000000000
00000000000000
000000003FE000
000000003FE000
000000007FE000
000000007FE000
00000000FFE000
00000000FFE000
00000001FFE000
00000003FFE000
00000003FFF000
00000007F7F000
00000007F7F000
0000000FE7F000
0000000FE7F000
0000001FC3F000
0000001FC3F000
0000003F83F000
0000007F83F800
0000007F03F800
000000FF03F800
000000FE03F800
000001FE03F800
000001FC03F800
000003FC03F800
000003F801F800
000007F801FC00
000007F001FC00
00000FF001FC00
00001FE001FC00
00001FC001FC00
00003FC001FC00
00003F8001FC00
00007F8001FE00
00007F0000FE00
0000FF0000FE00
0000FE0000FE00
0001FE0000FE00
0001FFFFFFFE00
0003FFFFFFFE00
0007FFFFFFFE00
0007FFFFFFFF00
000FFFFFFFFF00
000FFFFFFFFF00
001FFFFFFFFF00
001FC000007F00
003FC000007F00
003F8000007F00
007F8000007F00
00FF0000007F80
00FF0000007F80
01FE0000003F80
01FE0000003F80
03FC0000003F80
03FC0000003F80
07F80000003F80
07F80000003F80
0FF00000003FC0
0FF00000003FC0
1FE00000001FC0
3FC00000001FC0
3FC00000001FC0
7F800000001FC0
7F800000001FC0
FF000000001FC0
ENDCHAR
STARTCHAR 00C3
ENCODING 195
SWIDTH 551 0
DWIDTH 49 0
BBX 57 81 -5 0
BITMAP
00000000FC000F80
00000003FF000F00
00000007FFC01F00
0000000FFFE01F00
0000001FFFF87E00
0000001FFFFFFE00
0000003F07FFFC00
0000003E01FFF800
0000007C00FFF800
0000007C003FF000
00000078000FC000
0000000000000000
0000000000000000
0000000000000000
0000000000000000
0000000000000000
0000000000000000
0000000000000000
000000003FE00000
000000003FE00000
000000007FE00000
000000007FE00000
00000000FFE00000
00000000FFE00000
00000001FFE00000
00000003FFE00000
00000003FFF00000
00000007F7F00000
00000007F7F00000
0000000FE7F00000
0000000FE7F00000
0000001FC3F00000
0000001FC3F00000
0000003F83F00000
0000007F83F80000
0000007F03F80000
000000FF03F80000
000000FE03F80000
000001FE03F80000
000001FC03F80000
000003FC03F80000
000003F801F80000
000007F801FC0000
000007F001FC0000
00000FF001FC0000
00001FE001FC0000
00001FC001FC0000
00003FC001FC0000
00003F8001FC0000
00007F8001FE0000
00007F0000FE0000
0000FF0000FE0000
0000FE0000FE0000
0001FE0000FE0000
0001FFFFFFFE0000
0003FFFFFFFE0000
0007FFFFFFFE0000
0007FFFFFFFF0000
000FFFFFFFFF0000
000FFFFFFFFF0000
001FFFFFFFFF0000
001FC000007F0000
003FC000007F0000
003F8000007F0000
007F8000007F0000
00FF0000007F8000
00FF0000007F8000
01FE0000003F8000
01FE0000003F8000
03FC0000003F8000
03FC0000003F8000
07F80000003F8000
07F80000003F8000
0FF00000003FC000
0FF00000003FC000
1FE00000001FC000
3FC00000001FC000
3FC00000001FC000
7F800000001FC000
7F800000001FC000
FF000000001FC000
ENDCHAR
STARTCHAR 00C4
ENCODING 196
SWIDTH 551 0
DWIDTH 49 0
BBX 53 81 -5 0
BITMAP
00000000400040
00000003F003F0
00000003F007F0
00000007F807F8
00000007F807F8
00000007F007F0
00000007F007F0
00000007E007E0
00000001C001C0
00000000000000
00000000000000
00000000000000
00000000000000
00000000000000
00000000000000
00000000000000
00000000000000
00000000000000
000000003FE000
000000003FE000
000000007FE000
000000007FE000
00000000FFE000
00000000FFE000
00000001FFE000
00000003FFE000
00000003FFF000
00000007F7F000
00000007F7F000
0000000FE7F000
0000000FE7F000
0000001FC3F000
0000001FC3F000
0000003F83F000
0000007F83F800
0000007F03F800
000000FF03F800
000000FE03F800
000001FE03F800
000001FC03F800
000003FC03F800
000003F801F800
000007F801FC00
000007F001FC00
00000FF001FC00
00001FE001FC00
00001FC001FC00
00003FC001FC00
00003F8001FC00
00007F8001FE00
00007F0000FE00
0000FF0000FE00
0000FE0000FE00
0001FE0000FE00
0001FFFFFFFE00
0003FFFFFFFE00
0007FFFFFFFE00
0007FFFFFFFF00
000FFFFFFFFF00
000FFFFFFFFF00
001FFFFFFFFF00
001FC000007F00
003FC000007F00
003F8000007F00
007F8000007F00
00FF0000007F80
00FF0000007F80
01FE0000003F80
01FE0000003F80
03FC0000003F80
03FC0000003F80
07F80000003F80
07F80000003F80
0FF00000003FC0
0FF00000003FC0
1FE00000001FC0
3FC00000001FC0
3FC00000001FC0
7F800000001FC0
7F800000001FC0
FF000000001FC0
ENDCHAR
STARTCHAR 00C5
ENCODING 197
SWIDTH 551 0
DWIDTH 49 0
BBX 50 87 -5 0
BITMAP
000000000FF000
000000003FFC00
000000007FFE00
00000000FFFF00
00000000F81F80
00000001F00F80
00000001F00780
00000001E007C0
00000001E007C0
00000001E007C0
00000001E007C0
00000001F00780
00000001F00F80
00000000FC3F80
00000000FFFF00
000000007FFE00
000000003FFC00
000000000FF000
00000000000000
00000000000000
00000000000000
00000000000000
00000000000000
00000000000000
000000003FE000
000000003FE000
000000007FE000
000000007FE000
00000000FFE000
00000000FFE000
00000001FFE000
00000003FFE000
00000003FFF000
00000007F7F000
00000007F7F000
0000000FE7F000
0000000FE7F000
0000001FC3F000
0000001FC3F000
0000003F83F000
0000007F83F800
0000007F03F800
000000FF03F800
000000FE03F800
000001FE03F800
000001FC03F800
000003FC03F800
000003F801F800
000007F801FC00
000007F001FC00
00000FF001FC00
00001FE001FC00
00001FC001FC00
00003FC001FC00
00003F8001FC00
00007F8001FE00
00007F0000FE00
0000FF0000FE00
0000FE0000FE00
0001FE0000FE00
0001FFFFFFFE00
0003FFFFFFFE00
0007FFFFFFFE00
0007FFFFFFFF00
000FFFFFFFFF00
000FFFFFFFFF00
001FFFFFFFFF00
001FC000007F00
003FC000007F00
003F8000007F00
007F8000007F00
00FF0000007F80
00FF0000007F80
01FE0000003F80
01FE0000003F80
03FC0000003F80
03FC0000003F80
07F80000003F80
07F80000003F80
0FF00000003FC0
0FF00000003FC0
1FE00000001FC0
3FC00000001FC0
3FC00000001FC0
7F800000001FC0
7F800000001FC0
FF000000001FC0
ENDCHAR
STARTCHAR 00C6
ENCODING 198
SWIDTH 810 0
DWIDTH 72 0
BBX 81 63 -5 0
BITMAP
0000000000FFFFFFFFFF80
0000000001FFFFFFFFFF80
0000000003FFFFFFFFFF80
0000000003FFFFFFFFFF80
0000000007FFFFFFFFFF00
0000000007FFFFFFFFFF00
000000000FF0FE00000000
000000001FE1FE00000000
000000001FC1FE00000000
000000003FC1FC00000000
000000007F81FC00000000
000000007F83FC00000000
00000000FF03FC00000000
00000001FE03F800000000
00000001FE03F800000000
00000003FC03F800000000
00000003F807F800000000
00000007F807F800000000
0000000FF007F000000000
0000000FF007F000000000
0000001FE007F000000000
0000003FC00FF000000000
0000003FC00FE000000000
0000007F800FE000000000
000000FF000FE000000000
000000FF001FE000000000
000001FE001FE000000000
000001FE001FFFFFFFC000
000003FC001FFFFFFFC000
000007F8001FFFFFFF8000
000007F8003FFFFFFF8000
00000FF0003FFFFFFF8000
00001FE0003FFFFFFF8000
00001FE0003F8000000000
00003FC0003F8000000000
00007FC0007F8000000000
00007FFFFFFF8000000000
0000FFFFFFFF0000000000
0000FFFFFFFF0000000000
0001FFFFFFFF0000000000
0003FFFFFFFF0000000000
0003FFFFFFFF0000000000
0007FFFFFFFE0000000000
000FF00000FE0000000000
000FF00000FE0000000000
001FE00001FE0000000000
003FE00001FE0000000000
003FC00001FC0000000000
007F800001FC0000000000
007F800003FC0000000000
00FF000003FC0000000000
01FE000003F80000000000
01FE000003F80000000000
03FC000003F80000000000
07FC000007F80000000000
07F8000007F80000000000
0FF0000007FFFFFFF80000
1FF0000007FFFFFFF80000
1FE0000007FFFFFFF80000
3FC000000FFFFFFFF80000
7FC000000FFFFFFFF00000
7F8000000FFFFFFFF00000
FF8000000FFFFFFFF00000
ENDCHAR
STARTCHAR 00C7
ENCODING 199
SWIDTH 585 0
DWIDTH 52 0
BBX 49 85 7 -21
BITMAP
0000003FFFC000
000001FFFFF800
00000FFFFFFF00
00003FFFFFFF80
00007FFFFFFF80
0001FFFFFFFF00
0003FFFC03FF00
0007FFC0003E00
000FFE00000600
001FFC00000000
003FF000000000
007FE000000000
00FFC000000000
00FF8000000000
01FF0000000000
03FE0000000000
03FC0000000000
07FC0000000000
07F80000000000
0FF00000000000
0FF00000000000
1FE00000000000
1FE00000000000
3FC00000000000
3FC00000000000
3FC00000000000
7F800000000000
7F800000000000
7F800000000000
7F800000000000
FF000000000000
FF000000000000
FF000000000000
FF000000000000
FF000000000000
FF000000000000
FE000000000000
FE000000000000
FE000000000000
FE000000000000
FE000000000000
FE000000000000
FE000000000000
FE000000000000
FF000000000000
FF000000000000
FF000000000000
FF000000000000
FF800000000000
7F800000000000
7F800000000000
7FC00000000000
3FE00000000000
3FE00000000000
1FF00000000000
1FFC0000000000
0FFE0000180000
07FF8001F80000
03FFFFFFF80000
01FFFFFFF80000
00FFFFFFF80000
007FFFFFF80000
001FFFFFF80000
0007FFFF800000
00007FF0000000
00003E00000000
00007C00000000
00007C00000000
0000F800000000
0000FC00000000
0001FF00000000
0003FF80000000
00003FC0000000
00001FC0000000
00000FC0000000
00000FC0000000
00000FC0000000
00000FC0000000
00000FC0000000
00001FC0000000
0000FF80000000
003FFF00000000
003FFE00000000
003FFC00000000
003FF000000000
ENDCHAR
STARTCHAR 00C8
ENCODING 200
SWIDTH 506 0
DWIDTH 45 0
BBX 45 84 4 0
BITMAP
000007F80000
000007F80000
000003FC0000
000003FC0000
000001FC0000
000000FE0000
000000FE0000
0000007F0000
0000003F0000
0000001F8000
0000001FC000
0000000FC000
00000007E000
00000003E000
000000000000
000000000000
000000000000
000000000000
000000000000
000000000000
000000000000
0007FFFFFFF8
0007FFFFFFF8
0007FFFFFFF8
000FFFFFFFF0
000FFFFFFFF0
000FFFFFFFF0
000FE0000000
001FE0000000
001FE0000000
001FC0000000
001FC0000000
001FC0000000
003FC0000000
003FC0000000
003F80000000
003F80000000
003F80000000
007F80000000
007F00000000
007F00000000
007F00000000
00FF00000000
00FF00000000
00FE00000000
00FE00000000
00FE00000000
01FE00000000
01FFFFFFFC00
01FFFFFFFC00
01FFFFFFF800
01FFFFFFF800
03FFFFFFF800
03FFFFFFF800
03F800000000
03F800000000
03F800000000
07F800000000
07F000000000
07F000000000
07F000000000
0FF000000000
0FF000000000
0FE000000000
0FE000000000
0FE000000000
1FE000000000
1FE000000000
1FC000000000
1FC000000000
1FC000000000
3FC000000000
3F8000000000
3F8000000000
3F8000000000
3F8000000000
7F8000000000
7FFFFFFF8000
7FFFFFFF8000
7FFFFFFF8000
FFFFFFFF8000
FFFFFFFF0000
FFFFFFFF0000
FFFFFFFF0000
ENDCHAR
STARTCHAR 00C9
ENCODING 201
SWIDTH 506 0
DWIDTH 45 0
BBX 45 84 4 0
BITMAP
000000000FF0
000000001FF0
000000003FE0
000000003FC0
000000007F80
00000000FF00
00000001FE00
00000003FC00
00000003F800
00000007F000
0000000FE000
0000001FC000
0000003F0000
0000003E0000
000000000000
000000000000
000000000000
000000000000
000000000000
000000000000
000000000000
0007FFFFFFF8
0007FFFFFFF8
0007FFFFFFF8
000FFFFFFFF0
000FFFFFFFF0
000FFFFFFFF0
000FE0000000
001FE0000000
001FE0000000
001FC0000000
001FC0000000
001FC0000000
003FC0000000
003FC0000000
003F80000000
003F80000000
003F80000000
007F80000000
007F00000000
007F00000000
007F00000000
00FF00000000
00FF00000000
00FE00000000
00FE00000000
00FE00000000
01FE00000000
01FFFFFFFC00
01FFFFFFFC00
01FFFFFFF800
01FFFFFFF800
03FFFFFFF800
03FFFFFFF800
03F800000000
03F800000000
03F800000000
07F800000000
07F000000000
07F000000000
07F000000000
0FF000000000
0FF000000000
0FE000000000
0FE000000000
0FE000000000
1FE000000000
1FE000000000
1FC000000000
1FC000000000
1FC000000000
3FC000000000
3F8000000000
3F8000000000
3F8000000000
3F8000000000
7F8000000000
7FFFFFFF8000
7FFFFFFF8000
7FFFFFFF8000
FFFFFFFF8000
FFFFFFFF0000
FFFFFFFF0000
FFFFFFFF0000
ENDCHAR
STARTCHAR 00CA
ENCODING 202
SWIDTH 506 0
DWIDTH 45 0
BBX 45 84 4 0
BITMAP
0000000FF000
0000000FF000
0000001FF800
0000003FF800
0000007FFC00
000000FFFC00
000001FEFE00
000003FC7E00
000007F07F00
00000FE03F80
00001FC01F80
00003F800FC0
00007E0007E0
0000FC0003E0
000000000000
000000000000
000000000000
000000000000
000000000000
000000000000
000000000000
0007FFFFFFF8
0007FFFFFFF8
0007FFFFFFF8
000FFFFFFFF0
000FFFFFFFF0
000FFFFFFFF0
000FE0000000
001FE0000000
001FE0000000
001FC0000000
001FC0000000
001FC0000000
003FC0000000
003FC0000000
003F80000000
003F80000000
003F80000000
007F80000000
007F00000000
007F00000000
007F00000000
00FF00000000
00FF00000000
00FE00000000
00FE00000000
00FE00000000
01FE00000000
01FFFFFFFC00
01FFFFFFFC00
01FFFFFFF800
01FFFFFFF800
03FFFFFFF800
03FFFFFFF800
03F800000000
03F800000000
03F800000000
07F800000000
07F000000000
07F000000000
07F000000000
0FF000000000
0FF000000000
0FE000000000
0FE000000000
0FE000000000
1FE000000000
1FE000000000
1FC000000000
1FC000000000
1FC000000000
3FC000000000
3F8000000000
3F8000000000
3F8000000000
3F8000000000
7F8000000000
7FFFFFFF8000
7FFFFFFF8000
7FFFFFFF8000
FFFFFFFF8000
FFFFFFFF0000
FFFFFFFF0000
FFFFFFFF0000
ENDCHAR
STARTCHAR 00CB
ENCODING 203
SWIDTH 506 0
DWIDTH 45 0
BBX 45 81 4 0
BITMAP
000001000180
000007E007E0
00000FE00FE0
00000FE00FE0
00000FE01FE0
00001FE01FE0
00000FE00FE0
00000FC00FC0
000007800780
000000000000
000000000000
000000000000
000000000000
000000000000
000000000000
000000000000
000000000000
000000000000
0007FFFFFFF8
0007FFFFFFF8
0007FFFFFFF8
000FFFFFFFF0
000FFFFFFFF0
000FFFFFFFF0
000FE0000000
001FE0000000
001FE0000000
001FC0000000
001FC0000000
001FC0000000
003FC0000000
003FC0000000
003F80000000
003F80000000
003F80000000
007F80000000
007F00000000
007F00000000
007F00000000
00FF00000000
00FF00000000
00FE00000000
00FE00000000
00FE00000000
01FE00000000
01FFFFFFFC00
01FFFFFFFC00
01FFFFFFF800
01FFFFFFF800
03FFFFFFF800
03FFFFFFF800
03F800000000
03F800000000
03F800000000
07F800000000
07F000000000
07F000000000
07F000000000
0FF000000000
0FF000000000
0FE000000000
0FE000000000
0FE000000000
1FE000000000
1FE000000000
1FC000000000
1FC000000000
1FC000000000
3FC000000000
3F8000000000
3F8000000000
3F8000000000
3F8000000000
7F8000000000
7FFFFFFF8000
7FFFFFFF8000
7FFFFFFF8000
FFFFFFFF8000
FFFFFFFF0000
FFFFFFFF0000
FFFFFFFF0000
ENDCHAR
STARTCHAR 00CC
ENCODING 204
SWIDTH 270 0
DWIDTH 24 0
BBX 22 84 4 0
BITMAP
00FF00
007F80
007F80
003F80
003FC0
001FC0
000FE0
000FE0
0007F0
0003F0
0001F8
0001F8
0000FC
00007C
000000
000000
000000
000000
000000
000000
000000
0007F0
0007F0
0007F0
000FF0
000FE0
000FE0
000FE0
000FE0
001FE0
001FC0
001FC0
001FC0
003FC0
003F80
003F80
003F80
003F80
007F80
007F00
007F00
007F00
007F00
00FF00
00FE00
00FE00
00FE00
01FE00
01FE00
01FC00
01FC00
01FC00
03FC00
03F800
03F800
03F800
03F800
07F800
07F000
07F000
07F000
07F000
0FF000
0FE000
0FE000
0FE000
1FE000
1FC000
1FC000
1FC000
1FC000
3FC000
3F8000
3F8000
3F8000
3F8000
7F8000
7F0000
7F0000
7F0000
FF0000
FE0000
FE0000
FE0000
ENDCHAR
STARTCHAR 00CD
ENCODING 205
SWIDTH 270 0
DWIDTH 24 0
BBX 33 84 4 0
BITMAP
000000FF80
000001FF00
000001FE00
000003FC00
000007F800
00000FF000
00000FE000
00001FC000
00003F8000
00007F0000
0000FE0000
0000FC0000
0001F80000
0003F00000
0000000000
0000000000
0000000000
0000000000
0000000000
0000000000
0000000000
0007F00000
0007F00000
0007F00000
000FF00000
000FE00000
000FE00000
000FE00000
000FE00000
001FE00000
001FC00000
001FC00000
001FC00000
003FC00000
003F800000
003F800000
003F800000
003F800000
007F800000
007F000000
007F000000
007F000000
007F000000
00FF000000
00FE000000
00FE000000
00FE000000
01FE000000
01FE000000
01FC000000
01FC000000
01FC000000
03FC000000
03F8000000
03F8000000
03F8000000
03F8000000
07F8000000
07F0000000
07F0000000
07F0000000
07F0000000
0FF0000000
0FE0000000
0FE0000000
0FE0000000
1FE0000000
1FC0000000
1FC0000000
1FC0000000
1FC0000000
3FC0000000
3F80000000
3F80000000
3F80000000
3F80000000
7F80000000
7F00000000
7F00000000
7F00000000
FF00000000
FE00000000
FE00000000
FE00000000
ENDCHAR
STARTCHAR 00CE
ENCODING 206
SWIDTH 270 0
DWIDTH 24 0
BBX 31 84 4 0
BITMAP
00007F00
0000FF80
0001FF80
0003FFC0
0007FFC0
0007FFE0
000FEFE0
001FC7F0
003F83F0
007F01F8
01FC00FC
03F800FC
07F0007E
07E0003E
00000000
00000000
00000000
00000000
00000000
00000000
00000000
0007F000
0007F000
0007F000
000FF000
000FE000
000FE000
000FE000
000FE000
001FE000
001FC000
001FC000
001FC000
003FC000
003F8000
003F8000
003F8000
003F8000
007F8000
007F0000
007F0000
007F0000
007F0000
00FF0000
00FE0000
00FE0000
00FE0000
01FE0000
01FE0000
01FC0000
01FC0000
01FC0000
03FC0000
03F80000
03F80000
03F80000
03F80000
07F80000
07F00000
07F00000
07F00000
07F00000
0FF00000
0FE00000
0FE00000
0FE00000
1FE00000
1FC00000
1FC00000
1FC00000
1FC00000
3FC00000
3F800000
3F800000
3F800000
3F800000
7F800000
7F000000
7F000000
7F000000
FF000000
FE000000
FE000000
FE000000
ENDCHAR
STARTCHAR 00CF
ENCODING 207
SWIDTH 270 0
DWIDTH 24 0
BBX 32 81 4 0
BITMAP
00080008
007E007E
00FE00FE
00FF00FF
00FF00FF
00FE00FE
00FE00FE
00FC00FC
00380038
00000000
00000000
00000000
00000000
00000000
00000000
00000000
00000000
00000000
0007F000
0007F000
0007F000
000FF000
000FE000
000FE000
000FE000
000FE000
001FE000
001FC000
001FC000
001FC000
003FC000
003F8000
003F8000
003F8000
003F8000
007F8000
007F0000
007F0000
007F0000
007F0000
00FF0000
00FE0000
00FE0000
00FE0000
01FE0000
01FE0000
01FC0000
01FC0000
01FC0000
03FC0000
03F80000
03F80000
03F80000
03F80000
07F80000
07F00000
07F00000
07F00000
07F00000
0FF00000
0FE00000
0FE00000
0FE00000
1FE00000
1FC00000
1FC00000
1FC00000
1FC00000
3FC00000
3F800000
3F800000
3F800000
3F800000
7F800000
7F000000
7F000000
7F000000
FF000000
FE000000
FE000000
FE000000
ENDCHAR
STARTCHAR 00D0
ENCODING 208
SWIDTH 663 0
DWIDTH 59 0
BBX 54 63 3 0
BITMAP
0003FFFFF80000
0003FFFFFF0000
0007FFFFFFC000
0007FFFFFFF000
0007FFFFFFFC00
0007FFFFFFFE00
0007F0003FFF00
000FF00007FF80
000FF00001FF80
000FE00000FFC0
000FE000007FE0
000FE000003FE0
001FE000001FE0
001FE000001FF0
001FC000000FF0
001FC000000FF0
001FC0000007F8
003FC0000007F8
003F80000007F8
003F80000007F8
003F80000003F8
007F80000003F8
007F80000003F8
007F00000003FC
007F00000003FC
007F00000003FC
00FF00000003FC
00FF00000003F8
7FFFFFFC0003F8
7FFFFFF80003F8
7FFFFFF80007F8
7FFFFFF80007F8
FFFFFFF80007F8
FFFFFFF80007F8
FFFFFFF00007F8
03FC0000000FF0
03FC0000000FF0
03F80000000FF0
03F80000001FF0
03F80000001FE0
07F80000001FE0
07F80000003FE0
07F00000003FC0
07F00000007FC0
07F0000000FF80
0FF0000000FF80
0FF0000001FF00
0FE0000003FE00
0FE0000007FE00
0FE000000FFC00
1FE000001FF800
1FC000003FF000
1FC00000FFE000
1FC00001FFC000
3FC0000FFF8000
3FC0003FFF0000
3F801FFFFE0000
3FFFFFFFF80000
3FFFFFFFF00000
7FFFFFFFC00000
7FFFFFFE000000
7FFFFFF0000000
7FFFFE00000000
ENDCHAR
STARTCHAR 00D1
ENCODING 209
SWIDTH 697 0
DWIDTH 62 0
BBX 59 81 4 0
BITMAP
00000003F0003E00
0000000FFC003C00
0000001FFF007C00
0000003FFF80FC00
0000007FFFE1F800
0000007FFFFFF800
000000FC1FFFF000
000000F80FFFE000
000001F003FFC000
000001F000FF8000
000001E0003E0000
0000000000000000
0000000000000000
0000000000000000
0000000000000000
0000000000000000
0000000000000000
0000000000000000
0007F80000000FE0
0007FC0000001FC0
000FFC0000001FC0
000FFC0000001FC0
000FFE0000001FC0
000FFE0000001FC0
000FFE0000003F80
001FFF0000003F80
001FFF0000003F80
001FFF8000003F80
001FBF8000003F80
001FBF8000007F00
003F9FC000007F00
003F9FC000007F00
003F9FC000007F00
003F0FE00000FE00
007F0FE00000FE00
007F0FF00000FE00
007F07F00000FE00
007F07F00000FE00
007E03F80001FC00
00FE03F80001FC00
00FE03F80001FC00
00FE01FC0001FC00
00FE01FC0001FC00
00FE01FE0003F800
01FC00FE0003F800
01FC00FE0003F800
01FC007F0003F800
01FC007F0007F800
01F8007F0007F000
03F8003F8007F000
03F8003F8007F000
03F8003FC007F000
03F8001FC00FE000
07F0001FC00FE000
07F0000FE00FE000
07F0000FE00FE000
07F0000FF00FE000
07F00007F01FC000
0FE00007F01FC000
0FE00003F81FC000
0FE00003F81FC000
0FE00003F81FC000
0FE00001FC3F8000
1FC00001FC3F8000
1FC00001FE3F8000
1FC00000FE3F8000
1FC00000FE3F8000
3F8000007F3F0000
3F8000007F7F0000
3F8000007F7F0000
3F8000003FFF0000
3F8000003FFE0000
7F0000003FFE0000
7F0000001FFE0000
7F0000001FFE0000
7F0000000FFE0000
7F0000000FFC0000
FE0000000FFC0000
FE00000007FC0000
FE00000007FC0000
FE00000003FC0000
ENDCHAR
STARTCHAR 00D2
ENCODING 210
SWIDTH 720 0
DWIDTH 64 0
BBX 54 85 7 -1
BITMAP
0000007F800000
0000003FC00000
0000003FC00000
0000001FC00000
0000001FE00000
0000000FE00000
00000007F00000
00000003F00000
00000003F80000
00000001F80000
00000000FC0000
000000007E0000
000000007E0000
000000003F0000
00000000000000
00000000000000
00000000000000
00000000000000
00000000000000
00000000000000
000000FFFE0000
000007FFFFC000
00001FFFFFF000
00007FFFFFF800
0001FFFFFFFC00
0003FFFFFFFF00
0007FFE01FFF00
000FFF0003FF80
001FFC0000FFC0
003FF000007FE0
007FE000003FE0
00FF8000001FF0
01FF0000001FF0
01FF0000000FF0
03FE00000007F8
03FC00000007F8
07F800000007F8
0FF800000003FC
0FF000000003FC
0FF000000003FC
1FE000000003FC
1FE000000003FC
3FC000000003FC
3FC000000003FC
3FC000000003FC
7F8000000003FC
7F8000000003FC
7F8000000003FC
7F8000000003FC
7F0000000003FC
FF0000000003FC
FF0000000003FC
FF0000000003FC
FF0000000003FC
FF0000000007F8
FE0000000007F8
FE0000000007F8
FE0000000007F8
FE000000000FF8
FE000000000FF0
FE000000000FF0
FE000000001FF0
FE000000001FE0
FE000000001FE0
FF000000003FE0
FF000000003FC0
FF000000007FC0
FF000000007F80
FF80000000FF80
7F80000001FF00
7F80000001FF00
7FC0000003FE00
3FE0000007FC00
3FE000000FFC00
1FF000001FF800
1FFC00007FF000
0FFE0001FFE000
07FF8007FFC000
03FFFFFFFF8000
01FFFFFFFF0000
00FFFFFFFC0000
007FFFFFF80000
001FFFFFE00000
0003FFFF000000
00003FF0000000
ENDCHAR
STARTCHAR 00D3
ENCODING 211
SWIDTH 720 0
DWIDTH 64 0
BBX 54 85 7 -1
BITMAP
0000000000FF80
0000000001FF00
0000000001FE00
0000000003FC00
0000000007F800
000000000FF000
000000000FE000
000000001FC000
000000003F8000
000000007F0000
00000000FE0000
00000000FC0000
00000001F80000
00000003F00000
00000000000000
00000000000000
00000000000000
00000000000000
00000000000000
00000000000000
000000FFFE0000
000007FFFFC000
00001FFFFFF000
00007FFFFFF800
0001FFFFFFFC00
0003FFFFFFFF00
0007FFE01FFF00
000FFF0003FF80
001FFC0000FFC0
003FF000007FE0
007FE000003FE0
00FF8000001FF0
01FF0000001FF0
01FF0000000FF0
03FE00000007F8
03FC00000007F8
07F800000007F8
0FF800000003FC
0FF000000003FC
0FF000000003FC
1FE000000003FC
1FE000000003FC
3FC000000003FC
3FC000000003FC
3FC000000003FC
7F8000000003FC
7F8000000003FC
7F8000000003FC
7F8000000003FC
7F0000000003FC
FF0000000003FC
FF0000000003FC
FF0000000003FC
FF0000000003FC
FF0000000007F8
FE0000000007F8
FE0000000007F8
FE0000000007F8
FE000000000FF8
FE000000000FF0
FE000000000FF0
FE000000001FF0
FE000000001FE0
FE000000001FE0
FF000000003FE0
FF000000003FC0
FF000000007FC0
FF000000007F80
FF80000000FF80
7F80000001FF00
7F80000001FF00
7FC0000003FE00
3FE0000007FC00
3FE000000FFC00
1FF000001FF800
1FFC00007FF000
0FFE0001FFE000
07FF8007FFC000
03FFFFFFFF8000
01FFFFFFFF0000
00FFFFFFFC0000
007FFFFFF80000
001FFFFFE00000
0003FFFF000000
00003FF0000000
ENDCHAR
STARTCHAR 00D4
ENCODING 212
SWIDTH 720 0
DWIDTH 64 0
BBX 54 85 7 -1
BITMAP
000000007F0000
00000000FF0000
00000001FF8000
00000003FF8000
00000007FFC000
0000000FFFC000
0000001FEFE000
0000003FC7F000
0000007F83F000
000000FE03F800
000001FC01FC00
000003F800FC00
000007F0007E00
00000FC0003E00
00000000000000
00000000000000
00000000000000
00000000000000
00000000000000
00000000000000
000000FFFE0000
000007FFFFC000
00001FFFFFF000
00007FFFFFF800
0001FFFFFFFC00
0003FFFFFFFF00
0007FFE01FFF00
000FFF0003FF80
001FFC0000FFC0
003FF000007FE0
007FE000003FE0
00FF8000001FF0
01FF0000001FF0
01FF0000000FF0
03FE00000007F8
03FC00000007F8
07F800000007F8
0FF800000003FC
0FF000000003FC
0FF000000003FC
1FE000000003FC
1FE000000003FC
3FC000000003FC
3FC000000003FC
3FC000000003FC
7F8000000003FC
7F8000000003FC
7F8000000003FC
7F8000000003FC
7F0000000003FC
FF0000000003FC
FF0000000003FC
FF0000000003FC
FF0000000003FC
FF0000000007F8
FE0000000007F8
FE0000000007F8
FE0000000007F8
FE000000000FF8
FE000000000FF0
FE000000000FF0
FE000000001FF0
FE000000001FE0
FE000000001FE0
FF000000003FE0
FF000000003FC0
FF000000007FC0
FF000000007F80
FF80000000FF80
7F80000001FF00
7F80000001FF00
7FC0000003FE00
3FE0000007FC00
3FE000000FFC00
1FF000001FF800
1FFC00007FF000
0FFE0001FFE000
07FF8007FFC000
03FFFFFFFF8000
01FFFFFFFF0000
00FFFFFFFC0000
007FFFFFF80000
001FFFFFE00000
0003FFFF000000
00003FF0000000
ENDCHAR
STARTCHAR 00D5
ENCODING 213
SWIDTH 720 0
DWIDTH 64 0
BBX 54 82 7 -1
BITMAP
0000001F8001F0
0000007FE001E0
000000FFF803E0
000001FFFC07E0
000003FFFF0FC0
000003FFFFFFC0
000007E0FFFF80
000007C07FFF00
00000F801FFF00
00000F8007FC00
00000F0001F800
00000000000000
00000000000000
00000000000000
00000000000000
00000000000000
00000000000000
000000FFFE0000
000007FFFFC000
00001FFFFFF000
00007FFFFFF800
0001FFFFFFFC00
0003FFFFFFFF00
0007FFE01FFF00
000FFF0003FF80
001FFC0000FFC0
003FF000007FE0
007FE000003FE0
00FF8000001FF0
01FF0000001FF0
01FF0000000FF0
03FE00000007F8
03FC00000007F8
07F800000007F8
0FF800000003FC
0FF000000003FC
0FF000000003FC
1FE000000003FC
1FE000000003FC
3FC000000003FC
3FC000000003FC
3FC000000003FC
7F8000000003FC
7F8000000003FC
7F8000000003FC
7F8000000003FC
7F0000000003FC
FF0000000003FC
FF0000000003FC
FF0000000003FC
FF0000000003FC
FF0000000007F8
FE0000000007F8
FE0000000007F8
FE0000000007F8
FE000000000FF8
FE000000000FF0
FE000000000FF0
FE000000001FF0
FE000000001FE0
FE000000001FE0
FF000000003FE0
FF000000003FC0
FF000000007FC0
FF000000007F80
FF80000000FF80
7F80000001FF00
7F80000001FF00
7FC0000003FE00
3FE0000007FC00
3FE000000FFC00
1FF000001FF800
1FFC00007FF000
0FFE0001FFE000
07FF8007FFC000
03FFFFFFFF8000
01FFFFFFFF0000
00FFFFFFFC0000
007FFFFFF80000
001FFFFFE00000
0003FFFF000000
00003FF0000000
ENDCHAR
STARTCHAR 00D6
ENCODING 214
SWIDTH 720 0
DWIDTH 64 0
BBX 54 82 7 -1
BITMAP
00000008000800
0000007E007E00
000000FE00FE00
000000FF00FF00
000000FF00FE00
000000FE00FE00
000000FE00FE00
000000FC00FC00
00000038003800
00000000000000
00000000000000
00000000000000
00000000000000
00000000000000
00000000000000
00000000000000
00000000000000
000000FFFE0000
000007FFFFC000
00001FFFFFF000
00007FFFFFF800
0001FFFFFFFC00
0003FFFFFFFF00
0007FFE01FFF00
000FFF0003FF80
001FFC0000FFC0
003FF000007FE0
007FE000003FE0
00FF8000001FF0
01FF0000001FF0
01FF0000000FF0
03FE00000007F8
03FC00000007F8
07F800000007F8
0FF800000003FC
0FF000000003FC
0FF000000003FC
1FE000000003FC
1FE000000003FC
3FC000000003FC
3FC000000003FC
3FC000000003FC
7F8000000003FC
7F8000000003FC
7F8000000003FC
7F8000000003FC
7F0000000003FC
FF0000000003FC
FF0000000003FC
FF0000000003FC
FF0000000003FC
FF0000000007F8
FE0000000007F8
FE0000000007F8
FE0000000007F8
FE000000000FF8
FE000000000FF0
FE000000000FF0
FE000000001FF0
FE000000001FE0
FE000000001FE0
FF000000003FE0
FF000000003FC0
FF000000007FC0
FF000000007F80
FF80000000FF80
7F80000001FF00
7F80000001FF00
7FC0000003FE00
3FE0000007FC00
3FE000000FFC00
1FF000001FF800
1FFC00007FF000
0FFE0001FFE000
07FF8007FFC000
03FFFFFFFF8000
01FFFFFFFF0000
00FFFFFFFC0000
007FFFFFF80000
001FFFFFE00000
0003FFFF000000
00003FF0000000
ENDCHAR
STARTCHAR 00D7
ENCODING 215
SWIDTH 562 0
DWIDTH 50 0
BBX 38 39 8 12
BITMAP
1000000020
3800000070
7C000000F8
FE000001FC
FF000003FC
7F800007F8
3FC0000FF0
1FE0001FE0
0FF0003FC0
07F8007F80
03FC00FF00
01FE01FE00
00FF03FC00
007F87F800
003FCFF000
001FFFE000
000FFFC000
0007FF8000
0003FF0000
0001FE0000
0003FF0000
0007FF8000
000FFFC000
001FFFE000
003FCFF000
007F87F800
00FF03FC00
01FF01FE00
03FE00FF00
07FC007F80
0FF8003FC0
1FF0001FE0
3FE0000FF0
7FC00007F8
FF800003FC
FF000001FC
7E000000F8
3C00000070
1800000020
ENDCHAR
STARTCHAR 00D8
ENCODING 216
SWIDTH 720 0
DWIDTH 64 0
BBX 58 69 5 -3
BITMAP
0000000000000600
0000000000000F80
0000003FFF801FC0
000001FFFFE03FC0
000007FFFFF83F80
00001FFFFFFE7F80
00007FFFFFFFFF00
0000FFFFFFFFFE00
0001FFF007FFFC00
0003FF8000FFF800
0007FE00003FF000
000FFC00001FF000
001FF800001FF800
003FE000003FFC00
007FC000007FFC00
007FC000007FFC00
00FF800000FFFE00
00FF000001FFFE00
01FE000003FDFE00
03FE000007F8FE00
03FC00000FF8FF00
03FC00000FF0FF00
07F800001FE0FF00
07F800003FC0FF00
0FF000007F80FF00
0FF00000FF00FF00
0FF00000FF00FF00
1FE00001FE00FF00
1FE00003FC00FF00
1FE00007F800FF00
1FE0000FF000FF00
3FC0000FE000FF00
3FC0001FE000FF00
3FC0003FC000FF00
3FC0007F8000FF00
3FC000FF0000FF00
3FC000FE0000FE00
3F8001FE0001FE00
3F8003FC0001FE00
3F8007F80001FE00
3F800FF00001FE00
3F801FE00003FC00
3F801FC00003FC00
3F803FC00003FC00
3F807F800007F800
3F80FF000007F800
3FC1FE00000FF800
3FC1FC00000FF000
3FC3FC00001FF000
3FC7F800001FE000
3FCFF000003FE000
1FFFE000007FC000
1FFFC000007FC000
1FFF800000FF8000
0FFF800001FF0000
0FFF000003FF0000
07FE000007FE0000
07FE00001FFC0000
03FF80007FF80000
07FFE001FFF00000
0FFFFFFFFFE00000
1FFFFFFFFFC00000
3FFFFFFFFF000000
3F8FFFFFFE000000
7F83FFFFF8000000
FF00FFFFC0000000
7E000FFC00000000
3C00000000000000
1800000000000000
ENDCHAR
STARTCHAR 00D9
ENCODING 217
SWIDTH 675 0
DWIDTH 60 0
BBX 54 85 7 -1
BITMAP
000000FF000000
000000FF000000
0000007F000000
0000007F800000
0000003F800000
0000003FC00000
0000001FC00000
0000000FE00000
00000007E00000
00000007F00000
00000003F00000
00000001F80000
00000000F80000
000000007C0000
00000000000000
00000000000000
00000000000000
00000000000000
00000000000000
00000000000000
00000000000000
007F80000001FC
007F00000003FC
007F00000003FC
007F00000003F8
00FF00000003F8
00FE00000003F8
00FE00000007F8
00FE00000007F8
01FE00000007F0
01FE00000007F0
01FC00000007F0
01FC0000000FF0
01FC0000000FE0
03FC0000000FE0
03FC0000000FE0
03F80000001FE0
03F80000001FE0
03F80000001FC0
07F80000001FC0
07F00000001FC0
07F00000003FC0
07F00000003FC0
0FF00000003F80
0FF00000003F80
0FE00000003F80
0FE00000007F80
0FE00000007F00
1FE00000007F00
1FE00000007F00
1FC0000000FF00
1FC0000000FF00
1FC0000000FE00
3FC0000000FE00
3F80000000FE00
3F80000001FE00
3F80000001FE00
7F80000001FC00
7F80000001FC00
7F00000001FC00
7F00000003FC00
7F00000003FC00
7F00000003F800
FF00000003F800
FF00000007F800
FE00000007F800
FE00000007F000
FE0000000FF000
FE0000000FF000
FF0000001FE000
FF0000001FE000
FF0000003FC000
7F0000003FC000
7F8000007F8000
7FC00000FF8000
3FE00001FF0000
3FF00007FE0000
1FFC001FFE0000
1FFFFFFFFC0000
0FFFFFFFF00000
07FFFFFFE00000
03FFFFFFC00000
00FFFFFF000000
003FFFF8000000
0001FF80000000
ENDCHAR
STARTCHAR 00DA
ENCODING 218
SWIDTH 675 0
DWIDTH 60 0
BBX 54 85 7 -1
BITMAP
0000000003FE00
0000000003FC00
0000000007F800
000000000FF800
000000001FF000
000000001FE000
000000003FC000
000000007F8000
00000000FF0000
00000001FE0000
00000001F80000
00000003F00000
00000007E00000
0000000FC00000
00000000000000
00000000000000
00000000000000
00000000000000
00000000000000
00000000000000
00000000000000
007F80000001FC
007F00000003FC
007F00000003FC
007F00000003F8
00FF00000003F8
00FE00000003F8
00FE00000007F8
00FE00000007F8
01FE00000007F0
01FE00000007F0
01FC00000007F0
01FC0000000FF0
01FC0000000FE0
03FC0000000FE0
03FC0000000FE0
03F80000001FE0
03F80000001FE0
03F80000001FC0
07F80000001FC0
07F00000001FC0
07F00000003FC0
07F00000003FC0
0FF00000003F80
0FF00000003F80
0FE00000003F80
0FE00000007F80
0FE00000007F00
1FE00000007F00
1FE00000007F00
1FC0000000FF00
1FC0000000FF00
1FC0000000FE00
3FC0000000FE00
3F80000000FE00
3F80000001FE00
3F80000001FE00
7F80000001FC00
7F80000001FC00
7F00000001FC00
7F00000003FC00
7F00000003FC00
7F00000003F800
FF00000003F800
FF00000007F800
FE00000007F800
FE00000007F000
FE0000000FF000
FE0000000FF000
FF0000001FE000
FF0000001FE000
FF0000003FC000
7F0000003FC000
7F8000007F8000
7FC00000FF8000
3FE00001FF0000
3FF00007FE0000
1FFC001FFE0000
1FFFFFFFFC0000
0FFFFFFFF00000
07FFFFFFE00000
03FFFFFFC00000
00FFFFFF000000
003FFFF8000000
0001FF80000000
ENDCHAR
STARTCHAR 00DB
ENCODING 219
SWIDTH 675 0
DWIDTH 60 0
BBX 54 85 7 -1
BITMAP
00000001FC0000
00000003FE0000
00000007FE0000
0000000FFF0000
0000000FFF0000
0000001FFF8000
0000003F9F8000
0000007F1FC000
000000FE0FE000
000001FC07E000
000003F003F000
00000FE003F000
00001FC001F800
00001F8000F800
00000000000000
00000000000000
00000000000000
00000000000000
00000000000000
00000000000000
00000000000000
007F80000001FC
007F00000003FC
007F00000003FC
007F00000003F8
00FF00000003F8
00FE00000003F8
00FE00000007F8
00FE00000007F8
01FE00000007F0
01FE00000007F0
01FC00000007F0
01FC0000000FF0
01FC0000000FE0
03FC0000000FE0
03FC0000000FE0
03F80000001FE0
03F80000001FE0
03F80000001FC0
07F80000001FC0
07F00000001FC0
07F00000003FC0
07F00000003FC0
0FF00000003F80
0FF00000003F80
0FE00000003F80
0FE00000007F80
0FE00000007F00
1FE00000007F00
1FE00000007F00
1FC0000000FF00
1FC0000000FF00
1FC0000000FE00
3FC0000000FE00
3F80000000FE00
3F80000001FE00
3F80000001FE00
7F80000001FC00
7F80000001FC00
7F00000001FC00
7F00000003FC00
7F00000003FC00
7F00000003F800
FF00000003F800
FF00000007F800
FE00000007F800
FE00000007F000
FE0000000FF000
FE0000000FF000
FF0000001FE000
FF0000001FE000
FF0000003FC000
7F0000003FC000
7F8000007F8000
7FC00000FF8000
3FE00001FF0000
3FF00007FE0000
1FFC001FFE0000
1FFFFFFFFC0000
0FFFFFFFF00000
07FFFFFFE00000
03FFFFFFC00000
00FFFFFF000000
003FFFF8000000
0001FF80000000
ENDCHAR
STARTCHAR 00DC
ENCODING 220
SWIDTH 675 0
DWIDTH 60 0
BBX 54 82 7 -1
BITMAP
00000060006000
000001F801F800
000001FC01FC00
000003FC03FC00
000003FC03FC00
000003FC03FC00
000003F803F800
000001F001F000
000000E000E000
00000000000000
00000000000000
00000000000000
00000000000000
00000000000000
00000000000000
00000000000000
00000000000000
00000000000000
007F80000001FC
007F00000003FC
007F00000003FC
007F00000003F8
00FF00000003F8
00FE00000003F8
00FE00000007F8
00FE00000007F8
01FE00000007F0
01FE00000007F0
01FC00000007F0
01FC0000000FF0
01FC0000000FE0
03FC0000000FE0
03FC0000000FE0
03F80000001FE0
03F80000001FE0
03F80000001FC0
07F80000001FC0
07F00000001FC0
07F00000003FC0
07F00000003FC0
0FF00000003F80
0FF00000003F80
0FE00000003F80
0FE00000007F80
0FE00000007F00
1FE00000007F00
1FE00000007F00
1FC0000000FF00
1FC0000000FF00
1FC0000000FE00
3FC0000000FE00
3F80000000FE00
3F80000001FE00
3F80000001FE00
7F80000001FC00
7F80000001FC00
7F00000001FC00
7F00000003FC00
7F00000003FC00
7F00000003F800
FF00000003F800
FF00000007F800
FE00000007F800
FE00000007F000
FE0000000FF000
FE0000000FF000
FF0000001FE000
FF0000001FE000
FF0000003FC000
7F0000003FC000
7F8000007F8000
7FC00000FF8000
3FE00001FF0000
3FF00007FE0000
1FFC001FFE0000
1FFFFFFFFC0000
0FFFFFFFF00000
07FFFFFFE00000
03FFFFFFC00000
00FFFFFF000000
003FFFF8000000
0001FF80000000
ENDCHAR
STARTCHAR 00DD
ENCODING 221
SWIDTH 506 0
DWIDTH 45 0
BBX 45 84 8 0
BITMAP
00000003FC00
00000007FC00
0000000FF800
0000000FF000
0000001FE000
0000003FC000
0000007F8000
000000FF0000
000000FE0000
000001FC0000
000003F80000
000007F00000
00000FC00000
00000F800000
000000000000
000000000000
000000000000
000000000000
000000000000
000000000000
000000000000
FF0000000FF8
7F0000000FF0
7F0000001FE0
7F8000003FE0
3F8000003FC0
3F8000007F80
3F800000FF00
3F800000FF00
1FC00001FE00
1FC00003FC00
1FC00003FC00
1FC00007F800
0FE0000FF000
0FE0000FF000
0FE0001FE000
0FE0003FC000
07F0003FC000
07F0007F8000
07F000FF0000
07F000FF0000
03F801FE0000
03F803FC0000
03F803F80000
01F807F80000
01FC0FF00000
01FC0FE00000
01FC1FE00000
00FC3FC00000
00FE3F800000
00FE7F800000
00FEFF000000
007EFE000000
007FFE000000
007FFC000000
007FF8000000
003FF8000000
003FF0000000
003FE0000000
001FC0000000
001FC0000000
003FC0000000
003F80000000
003F80000000
003F80000000
003F80000000
007F80000000
007F00000000
007F00000000
007F00000000
00FF00000000
00FF00000000
00FE00000000
00FE00000000
00FE00000000
01FE00000000
01FE00000000
01FC00000000
01FC00000000
01FC00000000
03FC00000000
03FC00000000
03F800000000
03F800000000
ENDCHAR
STARTCHAR 00DE
ENCODING 222
SWIDTH 562 0
DWIDTH 50 0
BBX 44 63 4 0
BITMAP
0007F0000000
0007F0000000
0007F0000000
000FF0000000
000FE0000000
000FE0000000
000FE0000000
001FE0000000
001FE0000000
001FC0000000
001FC0000000
001FFFFF8000
003FFFFFF000
003FFFFFFC00
003FFFFFFE00
003FFFFFFF00
003FFFFFFF80
007F8007FFC0
007F0000FFC0
007F00003FE0
007F00001FE0
00FF00001FE0
00FF00000FF0
00FE00000FF0
00FE00000FF0
00FE00000FF0
01FE000007F0
01FE000007F0
01FC00000FF0
01FC00000FF0
01FC00000FF0
03FC00000FF0
03F800000FE0
03F800001FE0
03F800001FE0
03F800001FE0
07F800003FC0
07F000007FC0
07F00000FF80
07F00001FF80
0FF00007FF00
0FF0003FFE00
0FE007FFFC00
0FFFFFFFF800
0FFFFFFFE000
1FFFFFFFC000
1FFFFFFF0000
1FFFFFF80000
1FFFFF000000
1FC000000000
3FC000000000
3FC000000000
3F8000000000
3F8000000000
3F8000000000
7F8000000000
7F0000000000
7F0000000000
7F0000000000
FF0000000000
FF0000000000
FE0000000000
FE0000000000
ENDCHAR
STARTCHAR 00DF
ENCODING 223
SWIDTH 573 0
DWIDTH 51 0
BBX 59 89 -11 -21
BITMAP
0000000001FFC000
000000000FFFF800
000000003FFFFE00
00000000FFFFFF00
00000001FFFFFF80
00000003FFFFFFC0
00000007FF00FFC0
0000000FF8003FE0
0000000FF0001FE0
0000001FE0000FE0
0000003FC0000FE0
0000003FC0000FE0
0000003F80000FE0
0000007F80000FE0
0000007F00000FE0
0000007F00000FE0
000000FF00001FE0
000000FE00003FC0
000000FE00007F80
000000FE0000FF80
000000FE0001FF00
000001FE0007FE00
000001FC000FFC00
000001FC001FF800
000001FC007FE000
000001FC00FFC000
000003FC01FF8000
000003F803FF0000
000003F803FC0000
000003F807F80000
000007F807F00000
000007F007F00000
000007F00FF00000
000007F00FF00000
000007F00FF00000
00000FF007F00000
00000FE007F80000
00000FE007FC0000
00000FE003FE0000
00000FE003FF0000
00001FE001FFC000
00001FC000FFE000
00001FC0007FF000
00001FC0003FF800
00003FC0000FFC00
00003FC00007FC00
00003F800003FE00
00003F800001FE00
00003F800000FF00
00007F800000FF00
00007F0000007F00
00007F0000007F00
00007F0000007F00
00007F0000007F00
0000FF0000007F00
0000FE0000007F00
0000FE0000007F00
0000FE000000FF00
0000FE000000FF00
0001FE100001FE00
0001FC180003FE00
0001FC1E0007FC00
0001FC1FC03FFC00
0003FC1FFFFFF800
0003FC1FFFFFF000
0003F81FFFFFE000
0003F80FFFFF8000
0003F803FFFE0000
0007F8003FE00000
0007F00000000000
0007F00000000000
0007F00000000000
0007F00000000000
000FF00000000000
000FE00000000000
000FE00000000000
000FE00000000000
001FE00000000000
001FC00000000000
003FC00000000000
003FC00000000000
007F800000000000
00FF800000000000
FFFF000000000000
FFFE000000000000
FFFC000000000000
FFF8000000000000
FFF0000000000000
FFC0000000000000
ENDCHAR
STARTCHAR 00E0
ENCODING 224
SWIDTH 562 0
DWIDTH 50 0
BBX 44 69 4 -1
BITMAP
00003FC00000
00001FE00000
00001FE00000
00000FF00000
000007F00000
000007F00000
000003F80000
000001F80000
000001FC0000
000000FC0000
0000007E0000
0000003F0000
0000001F0000
0000001F8000
000000000000
000000000000
000000000000
000000000000
000000000000
000000000000
00003FF801F0
0000FFFE01F0
0003FFFF03F0
000FFFFF83F0
001FFFFFC7F0
003FFFFFC7E0
007FF00FE7E0
00FFC003EFE0
00FF8001FFE0
01FF0000FFE0
03FE0000FFC0
03FC00007FC0
07F800007FC0
07F800007FC0
0FF000007FC0
0FF000007F80
1FE000007F80
1FE000007F80
3FC000007F80
3FC000007F00
3FC000007F00
3F8000007F00
7F800000FF00
7F800000FF00
7F800000FE00
7F000000FE00
7F000001FE00
7F000001FE00
FF000001FE00
FF000003FC00
FF000003FC00
FF000007FC00
FF000007FC00
FF00000FF800
FF00000FF800
FF00001FF800
7F00003FF800
7F00007FF800
7F8000FFF000
7F8001FBF000
7FC003F3F000
3FE00FE3F000
3FF83FC7F000
1FFFFF87E000
0FFFFF07E000
07FFFE07E000
03FFF807E000
01FFE007E000
003F80000000
ENDCHAR
STARTCHAR 00E1
ENCODING 225
SWIDTH 562 0
DWIDTH 50 0
BBX 44 69 4 -1
BITMAP
000000007F80
00000000FF80
00000001FF00
00000001FE00
00000003FC00
00000007F800
0000000FF000
0000000FE000
0000001FC000
0000003F8000
0000007F0000
000000FE0000
000001FC0000
000001F00000
000000000000
000000000000
000000000000
000000000000
000000000000
000000000000
00003FF801F0
0000FFFE01F0
0003FFFF03F0
000FFFFF83F0
001FFFFFC7F0
003FFFFFC7E0
007FF00FE7E0
00FFC003EFE0
00FF8001FFE0
01FF0000FFE0
03FE0000FFC0
03FC00007FC0
07F800007FC0
07F800007FC0
0FF000007FC0
0FF000007F80
1FE000007F80
1FE000007F80
3FC000007F80
3FC000007F00
3FC000007F00
3F8000007F00
7F800000FF00
7F800000FF00
7F800000FE00
7F000000FE00
7F000001FE00
7F000001FE00
FF000001FE00
FF000003FC00
FF000003FC00
FF000007FC00
FF000007FC00
FF00000FF800
FF00000FF800
FF00001FF800
7F00003FF800
7F00007FF800
7F8000FFF000
7F8001FBF000
7FC003F3F000
3FE00FE3F000
3FF83FC7F000
1FFFFF87E000
0FFFFF07E000
07FFFE07E000
03FFF807E000
01FFE007E000
003F80000000
ENDCHAR
STARTCHAR 00E2
ENCODING 226
SWIDTH 562 0
DWIDTH 50 0
BBX 44 69 4 -1
BITMAP
0000007F8000
0000007F8000
000000FFC000
000001FFC000
000003FFE000
000007FFE000
00000FF7F000
00001FE3F800
00003FC1F800
00007F00FC00
0000FE00FE00
0001FC007E00
0003F0003F00
0007E0001F00
000000000000
000000000000
000000000000
000000000000
000000000000
000000000000
00003FF801F0
0000FFFE01F0
0003FFFF03F0
000FFFFF83F0
001FFFFFC7F0
003FFFFFC7E0
007FF00FE7E0
00FFC003EFE0
00FF8001FFE0
01FF0000FFE0
03FE0000FFC0
03FC00007FC0
07F800007FC0
07F800007FC0
0FF000007FC0
0FF000007F80
1FE000007F80
1FE000007F80
3FC000007F80
3FC000007F00
3FC000007F00
3F8000007F00
7F800000FF00
7F800000FF00
7F800000FE00
7F000000FE00
7F000001FE00
7F000001FE00
FF000001FE00
FF000003FC00
FF000003FC00
FF000007FC00
FF000007FC00
FF00000FF800
FF00000FF800
FF00001FF800
7F00003FF800
7F00007FF800
7F8000FFF000
7F8001FBF000
7FC003F3F000
3FE00FE3F000
3FF83FC7F000
1FFFFF87E000
0FFFFF07E000
07FFFE07E000
03FFF807E000
01FFE007E000
003F80000000
ENDCHAR
STARTCHAR 00E3
ENCODING 227
SWIDTH 562 0
DWIDTH 50 0
BBX 44 66 4 -1
BITMAP
00001FC000F0
00003FF001F0
0000FFFC01F0
0000FFFE03E0
0001FFFF87E0
0003FFFFFFC0
0003F07FFFC0
0007E03FFF80
0007C00FFF00
0007C003FE00
00078000F800
000000000000
000000000000
000000000000
000000000000
000000000000
000000000000
00003FF801F0
0000FFFE01F0
0003FFFF03F0
000FFFFF83F0
001FFFFFC7F0
003FFFFFC7E0
007FF00FE7E0
00FFC003EFE0
00FF8001FFE0
01FF0000FFE0
03FE0000FFC0
03FC00007FC0
07F800007FC0
07F800007FC0
0FF000007FC0
0FF000007F80
1FE000007F80
1FE000007F80
3FC000007F80
3FC000007F00
3FC000007F00
3F8000007F00
7F800000FF00
7F800000FF00
7F800000FE00
7F000000FE00
7F000001FE00
7F000001FE00
FF000001FE00
FF000003FC00
FF000003FC00
FF000007FC00
FF000007FC00
FF00000FF800
FF00000FF800
FF00001FF800
7F00003FF800
7F00007FF800
7F8000FFF000
7F8001FBF000
7FC003F3F000
3FE00FE3F000
3FF83FC7F000
1FFFFF87E000
0FFFFF07E000
07FFFE07E000
03FFF807E000
01FFE007E000
003F80000000
ENDCHAR
STARTCHAR 00E4
ENCODING 228
SWIDTH 562 0
DWIDTH 50 0
BBX 44 66 4 -1
BITMAP
00000C000C00
00003F003F00
00007F007F00
00007F007F00
00007F007F00
00007F007F00
00007F007F00
00007E007E00
000018001C00
000000000000
000000000000
000000000000
000000000000
000000000000
000000000000
000000000000
000000000000
00003FF801F0
0000FFFE01F0
0003FFFF03F0
000FFFFF83F0
001FFFFFC7F0
003FFFFFC7E0
007FF00FE7E0
00FFC003EFE0
00FF8001FFE0
01FF0000FFE0
03FE0000FFC0
03FC00007FC0
07F800007FC0
07F800007FC0
0FF000007FC0
0FF000007F80
1FE000007F80
1FE000007F80
3FC000007F80
3FC000007F00
3FC000007F00
3F8000007F00
7F800000FF00
7F800000FF00
7F800000FE00
7F000000FE00
7F000001FE00
7F000001FE00
FF000001FE00
FF000003FC00
FF000003FC00
FF000007FC00
FF000007FC00
FF00000FF800
FF00000FF800
FF00001FF800
7F00003FF800
7F00007FF800
7F8000FFF000
7F8001FBF000
7FC003F3F000
3FE00FE3F000
3FF83FC7F000
1FFFFF87E000
0FFFFF07E000
07FFFE07E000
03FFF807E000
01FFE007E000
003F80000000
ENDCHAR
STARTCHAR 00E5
ENCODING 229
SWIDTH 562 0
DWIDTH 50 0
BBX 44 73 4 -1
BITMAP
000000FF8000
000003FFC000
000007FFE000
00000FFFF000
00001F81F800
00001F00F800
00001E007800
00001E007C00
00001E007C00
00001E007C00
00001E007C00
00001F007800
00001F00F800
00000FC3F800
00000FFFF000
000007FFE000
000003FFC000
000000FF0000
000000000000
000000000000
000000000000
000000000000
000000000000
000000000000
00003FF801F0
0000FFFE01F0
0003FFFF03F0
000FFFFF83F0
001FFFFFC7F0
003FFFFFC7E0
007FF00FE7E0
00FFC003EFE0
00FF8001FFE0
01FF0000FFE0
03FE0000FFC0
03FC00007FC0
07F800007FC0
07F800007FC0
0FF000007FC0
0FF000007F80
1FE000007F80
1FE000007F80
3FC000007F80
3FC000007F00
3FC000007F00
3F8000007F00
7F800000FF00
7F800000FF00
7F800000FE00
7F000000FE00
7F000001FE00
7F000001FE00
FF000001FE00
FF000003FC00
FF000003FC00
FF000007FC00
FF000007FC00
FF00000FF800
FF00000FF800
FF00001FF800
7F00003FF800
7F00007FF800
7F8000FFF000
7F8001FBF000
7FC003F3F000
3FE00FE3F000
3FF83FC7F000
1FFFFF87E000
0FFFFF07E000
07FFFE07E000
03FFF807E000
01FFE007E000
003F80000000
ENDCHAR
STARTCHAR 00E6
ENCODING 230
SWIDTH 821 0
DWIDTH 73 0
BBX 67 49 4 -1
BITMAP
00003FF007C07FF000
0001FFF807C1FFFC00
0003FFFC0F87FFFF00
000FFFFE0F8FFFFF80
001FFFFF0F9FFFFF80
003FFFFF9FBFFFFFC0
007FF01F9FFF807FC0
00FFC007DFFE001FE0
01FF8003FFFC001FE0
01FF0003FFF8000FE0
03FE0001FFF0000FE0
07FC0001FFE0000FE0
07F80001FFC0000FE0
0FF80001FFC0001FE0
0FF00001FF80001FC0
0FE00001FF00001FC0
1FE00001FF00003FC0
1FE00001FE0000FF80
3FC00001FE0001FF00
3FC00001FE000FFF00
3FC00001FC00FFFE00
3F800001FFFFFFFC00
7F800001FFFFFFF000
7F800003FFFFFFC000
7F800003FFFFFF0000
7F000003FFFFF80000
7F000003FFFF000000
7F000007F800000000
FF000007F800000000
FF000007F800000000
FF00000FF800000000
FF00000FF800000000
FF00001FF800000000
FF00001FF800000000
FF00003FF800000000
FF00007FFC00000000
FF00007FFC00000000
7F0000FFFC00000000
7F8001FFFE00000000
7F8003EFFF00000000
7FC007CFFF80003800
3FC01FCFFFC000F800
3FF07F8FBFF80FF800
1FFFFF1FBFFFFFF800
1FFFFE1F1FFFFFF800
0FFFF81F0FFFFFF800
07FFF01F03FFFFE000
03FFC01F01FFFF0000
007E0000001FF00000
ENDCHAR
STARTCHAR 00E7
ENCODING 231
SWIDTH 450 0
DWIDTH 40 0
BBX 37 69 4 -21
BITMAP
00001FFF80
0000FFFFF0
0003FFFFF8
0007FFFFF0
001FFFFFF0
003FFFFFF0
007FF001E0
00FFC00020
01FF800000
01FF000000
03FE000000
07FC000000
07F8000000
0FF0000000
0FF0000000
1FE0000000
1FE0000000
1FC0000000
3FC0000000
3FC0000000
3F80000000
7F80000000
7F80000000
7F00000000
7F00000000
7F00000000
7F00000000
FF00000000
FF00000000
FF00000000
FF00000000
FF00000000
FF00000000
FF00000000
7F00000000
7F00000000
7F80000000
7F80000000
7FC0000000
3FC0000000
3FE0000400
1FF8003C00
0FFE01FC00
0FFFFFFC00
07FFFFFC00
03FFFFFC00
00FFFFF800
003FFFE000
0007FE0000
000F800000
000F800000
001F000000
001F000000
003F000000
003FC00000
007FF00000
000FF00000
0003F80000
0001F80000
0001F80000
0001F80000
0001F80000
0003F80000
0007F00000
001FF00000
0FFFE00000
0FFFC00000
0FFF800000
0FFC000000
ENDCHAR
STARTCHAR 00E8
ENCODING 232
SWIDTH 495 0
DWIDTH 44 0
BBX 38 69 4 -1
BITMAP
0000FF0000
0000FF0000
00007F8000
00007F8000
00003FC000
00001FC000
00001FC000
00000FE000
000007F000
000003F000
000003F800
000001F800
000000FC00
0000007C00
0000000000
0000000000
0000000000
0000000000
0000000000
0000000000
00003FFE00
0000FFFF80
0003FFFFC0
0007FFFFE0
001FFFFFF0
003FFFFFF8
007FF00FF8
00FFC007F8
00FF0003F8
01FE0003FC
03FC0003FC
03FC0003FC
07F80003F8
0FF00003F8
0FF00003F8
1FE00007F8
1FE0000FF0
1FC0001FF0
3FC0007FE0
3FC001FFC0
3F801FFF80
7FFFFFFF00
7FFFFFFE00
7FFFFFF800
7FFFFFE000
7FFFFF0000
7FFFE00000
7F00000000
FF00000000
FF00000000
FF00000000
FF00000000
FF00000000
7F00000000
7F00000000
7F00000000
7F80000000
7F80000000
3FC0000000
3FC0000100
3FE0000700
1FF8001F00
0FFE01FF00
0FFFFFFF00
07FFFFFF00
03FFFFFF00
00FFFFF800
003FFFE000
0003FE0000
ENDCHAR
STARTCHAR 00E9
ENCODING 233
SWIDTH 495 0
DWIDTH 44 0
BBX 39 69 4 -1
BITMAP
00000003FE
00000003FC
00000007FC
0000000FF8
0000000FF0
0000001FE0
0000003FC0
0000007F80
0000007F00
000000FE00
000001FC00
000003F800
000007E000
000007C000
0000000000
0000000000
0000000000
0000000000
0000000000
0000000000
00003FFE00
0000FFFF80
0003FFFFC0
0007FFFFE0
001FFFFFF0
003FFFFFF8
007FF00FF8
00FFC007F8
00FF0003F8
01FE0003FC
03FC0003FC
03FC0003FC
07F80003F8
0FF00003F8
0FF00003F8
1FE00007F8
1FE0000FF0
1FC0001FF0
3FC0007FE0
3FC001FFC0
3F801FFF80
7FFFFFFF00
7FFFFFFE00
7FFFFFF800
7FFFFFE000
7FFFFF0000
7FFFE00000
7F00000000
FF00000000
FF00000000
FF00000000
FF00000000
FF00000000
7F00000000
7F00000000
7F00000000
7F80000000
7F80000000
3FC0000000
3FC0000100
3FE0000700
1FF8001F00
0FFE01FF00
0FFFFFFF00
07FFFFFF00
03FFFFFF00
00FFFFF800
003FFFE000
0003FE0000
ENDCHAR
STARTCHAR 00EA
ENCODING 234
SWIDTH 495 0
DWIDTH 44 0
BBX 38 69 4 -1
BITMAP
000001FE00
000003FE00
000007FE00
000007FF00
00000FFF80
00001FFF80
00003F9FC0
00007F0FC0
0000FE0FE0
0001FC07F0
0003F803F0
0007E001F8
000FC000F8
001F80007C
0000000000
0000000000
0000000000
0000000000
0000000000
0000000000
00003FFE00
0000FFFF80
0003FFFFC0
0007FFFFE0
001FFFFFF0
003FFFFFF8
007FF00FF8
00FFC007F8
00FF0003F8
01FE0003FC
03FC0003FC
03FC0003FC
07F80003F8
0FF00003F8
0FF00003F8
1FE00007F8
1FE0000FF0
1FC0001FF0
3FC0007FE0
3FC001FFC0
3F801FFF80
7FFFFFFF00
7FFFFFFE00
7FFFFFF800
7FFFFFE000
7FFFFF0000
7FFFE00000
7F00000000
FF00000000
FF00000000
FF00000000
FF00000000
FF00000000
7F00000000
7F00000000
7F00000000
7F80000000
7F80000000
3FC0000000
3FC0000100
3FE0000700
1FF8001F00
0FFE01FF00
0FFFFFFF00
07FFFFFF00
03FFFFFF00
00FFFFF800
003FFFE000
0003FE0000
ENDCHAR
STARTCHAR 00EB
ENCODING 235
SWIDTH 495 0
DWIDTH 44 0
BBX 38 66 4 -1
BITMAP
0000200030
0000F800F8
0001FC01FC
0003FC03FC
0003FC03FC
0003FC03FC
0003F803F8
0001F801F8
0000E000E0
0000000000
0000000000
0000000000
0000000000
0000000000
0000000000
0000000000
0000000000
00003FFE00
0000FFFF80
0003FFFFC0
0007FFFFE0
001FFFFFF0
003FFFFFF8
007FF00FF8
00FFC007F8
00FF0003F8
01FE0003FC
03FC0003FC
03FC0003FC
07F80003F8
0FF00003F8
0FF00003F8
1FE00007F8
1FE0000FF0
1FC0001FF0
3FC0007FE0
3FC001FFC0
3F801FFF80
7FFFFFFF00
7FFFFFFE00
7FFFFFF800
7FFFFFE000
7FFFFF0000
7FFFE00000
7F00000000
FF00000000
FF00000000
FF00000000
FF00000000
FF00000000
7F00000000
7F00000000
7F00000000
7F80000000
7F80000000
3FC0000000
3FC0000100
3FE0000700
1FF8001F00
0FFE01FF00
0FFFFFFF00
07FFFFFF00
03FFFFFF00
00FFFFF800
003FFFE000
0003FE0000
ENDCHAR
STARTCHAR 00EC
ENCODING 236
SWIDTH 247 0
DWIDTH 22 0
BBX 19 68 3 0
BITMAP
07F800
03FC00
03FC00
01FC00
01FE00
00FE00
007F00
003F00
003F80
001F80
000FC0
0007E0
0007E0
0003E0
000000
000000
000000
000000
000000
000000
003F80
007F80
007F00
007F00
007F00
007F00
00FF00
00FE00
00FE00
00FE00
01FE00
01FE00
01FC00
01FC00
01FC00
03FC00
03F800
03F800
03F800
03F800
07F800
07F000
07F000
07F000
0FF000
0FF000
0FE000
0FE000
0FE000
1FE000
1FE000
1FC000
1FC000
1FC000
3FC000
3F8000
3F8000
3F8000
3F8000
7F8000
7F0000
7F0000
7F0000
FF0000
FF0000
FE0000
FE0000
FE0000
ENDCHAR
STARTCHAR 00ED
ENCODING 237
SWIDTH 247 0
DWIDTH 22 0
BBX 28 68 3 0
BITMAP
00000FF0
00001FF0
00003FE0
00003FC0
00007F80
0000FF00
0001FE00
0001FC00
0003F800
0007F000
000FE000
001FC000
001F8000
003E0000
00000000
00000000
00000000
00000000
00000000
00000000
003F8000
007F8000
007F0000
007F0000
007F0000
007F0000
00FF0000
00FE0000
00FE0000
00FE0000
01FE0000
01FE0000
01FC0000
01FC0000
01FC0000
03FC0000
03F80000
03F80000
03F80000
03F80000
07F80000
07F00000
07F00000
07F00000
0FF00000
0FF00000
0FE00000
0FE00000
0FE00000
1FE00000
1FE00000
1FC00000
1FC00000
1FC00000
3FC00000
3F800000
3F800000
3F800000
3F800000
7F800000
7F000000
7F000000
7F000000
FF000000
FF000000
FE000000
FE000000
FE000000
ENDCHAR
STARTCHAR 00EE
ENCODING 238
SWIDTH 247 0
DWIDTH 22 0
BBX 27 68 3 0
BITMAP
000FF000
000FF000
001FF800
003FF800
007FFC00
00FFFE00
01FEFE00
03FC7F00
07F83F00
0FE01F80
1FC01FC0
3F800FC0
7F0007E0
FC0003E0
00000000
00000000
00000000
00000000
00000000
00000000
003F8000
007F8000
007F0000
007F0000
007F0000
007F0000
00FF0000
00FE0000
00FE0000
00FE0000
01FE0000
01FE0000
01FC0000
01FC0000
01FC0000
03FC0000
03F80000
03F80000
03F80000
03F80000
07F80000
07F00000
07F00000
07F00000
0FF00000
0FF00000
0FE00000
0FE00000
0FE00000
1FE00000
1FE00000
1FC00000
1FC00000
1FC00000
3FC00000
3F800000
3F800000
3F800000
3F800000
7F800000
7F000000
7F000000
7F000000
FF000000
FF000000
FE000000
FE000000
FE000000
ENDCHAR
STARTCHAR 00EF
ENCODING 239
SWIDTH 247 0
DWIDTH 22 0
BBX 27 65 3 0
BITMAP
01800180
07E007E0
0FE00FE0
0FE00FE0
0FE00FE0
0FE00FE0
0FE00FE0
0FC00FC0
03000300
00000000
00000000
00000000
00000000
00000000
00000000
00000000
00000000
003F8000
007F8000
007F0000
007F0000
007F0000
007F0000
00FF0000
00FE0000
00FE0000
00FE0000
01FE0000
01FE0000
01FC0000
01FC0000
01FC0000
03FC0000
03F80000
03F80000
03F80000
03F80000
07F80000
07F00000
07F00000
07F00000
0FF00000
0FF00000
0FE00000
0FE00000
0FE00000
1FE00000
1FE00000
1FC00000
1FC00000
1FC00000
3FC00000
3F800000
3F800000
3F800000
3F800000
7F800000
7F000000
7F000000
7F000000
FF000000
FF000000
FE000000
FE000000
FE000000
ENDCHAR
STARTCHAR 00F0
ENCODING 240
SWIDTH 562 0
DWIDTH 50 0
BBX 45 69 4 -1
BITMAP
000001000000
0000038000E0
000007C001F0
00000FF007F0
00001FF81FF8
00000FFC7FF0
000007FEFFC0
000001FFFF00
000000FFFC00
0000007FF800
000000FFE000
000001FFE000
000007FFF000
00001FFFF800
00007FF3F800
0001FFC3FC00
0000FF01FC00
0000FC00FE00
00007000FE00
000060007F00
000000007F00
000000003F00
000000003F80
000000003F80
000000001F80
000000001F80
00003FE01FC0
0003FFFC1FC0
000FFFFE1FC0
001FFFFF1FC0
007FFFFF9FC0
00FFFFFFDFC0
01FFE01FEFC0
03FF0007EFC0
07FE0003FFC0
07F80001FFC0
0FF00000FFC0
1FE00000FFC0
1FE000007FC0
3FC000007FC0
3FC000007FC0
3F8000007F80
7F8000007F80
7F0000007F80
7F0000007F80
7F0000007F80
FF0000007F80
FF0000007F00
FE0000007F00
FE000000FF00
FE000000FF00
FE000000FE00
FE000001FE00
FE000001FC00
FE000003FC00
FF000003F800
FF000007F800
7F00000FF000
7F80000FF000
7F80001FE000
3FC0007FC000
3FF001FFC000
1FFC07FF8000
0FFFFFFF0000
07FFFFFC0000
03FFFFF80000
01FFFFE00000
007FFF800000
000FF8000000
ENDCHAR
STARTCHAR 00F1
ENCODING 241
SWIDTH 573 0
DWIDTH 51 0
BBX 47 65 2 0
BITMAP
000003F0003E
00000FFC003E
00001FFF007C
00003FFFC07C
00003FFFE0FC
00007FFFFFF8
0000FC1FFFF0
0000F807FFF0
0000F801FFE0
0001F000FFC0
0001F0003F00
000000000000
000000000000
000000000000
000000000000
000000000000
00000003C000
003F803FFC00
003F80FFFF00
003F83FFFF80
003F07FFFFC0
007F0FFFFFE0
007F1FFFFFE0
007F3FE03FF0
007F7F801FF0
007FFE000FF0
00FFFC000FF0
00FFF00007F0
00FFF00007F0
00FFE00007F0
00FFC00007F0
01FF800007F0
01FF80000FF0
01FF00000FF0
01FF00000FF0
03FE00000FF0
03FE00000FE0
03FC00001FE0
03FC00001FE0
03FC00001FE0
07F800001FE0
07F800003FC0
07F800003FC0
07F800003FC0
07F000003FC0
0FF000003F80
0FF000007F80
0FF000007F80
0FE000007F80
0FE000007F80
1FE000007F00
1FE00000FF00
1FE00000FF00
1FC00000FF00
3FC00000FE00
3FC00001FE00
3FC00001FE00
3FC00001FE00
3F800001FE00
7F800001FC00
7F800003FC00
7F800003FC00
7F000003FC00
7F000003F800
FF000003F800
ENDCHAR
STARTCHAR 00F2
ENCODING 242
SWIDTH 562 0
DWIDTH 50 0
BBX 42 69 4 -1
BITMAP
00007F800000
00007F800000
00003F800000
00003FC00000
00001FC00000
00000FE00000
00000FE00000
000007F00000
000003F00000
000003F80000
000001F80000
000000FC0000
0000007E0000
0000003E0000
000000000000
000000000000
000000000000
000000000000
000000000000
000000000000
00001FFC0000
0000FFFF8000
0003FFFFC000
000FFFFFF000
001FFFFFF800
003FFFFFFC00
007FF00FFE00
00FFC003FE00
01FF0001FF00
03FE0000FF00
03FC00007F80
07F800007F80
07F800003F80
0FF000003F80
0FE000003FC0
1FE000003FC0
1FC000003FC0
3FC000003FC0
3FC000003FC0
3F8000003FC0
3F8000003FC0
7F8000003FC0
7F8000003FC0
7F0000003F80
7F0000003F80
7F0000003F80
7F0000007F80
FF0000007F80
FF0000007F00
FF0000007F00
FF000000FF00
FF000000FF00
FF000000FE00
7F000001FE00
7F000001FC00
7F000003FC00
7F800007F800
7F800007F800
3FC0000FF000
3FC0001FE000
1FE0007FE000
1FF800FFC000
0FFF0FFF8000
07FFFFFF0000
03FFFFFE0000
01FFFFF80000
007FFFE00000
001FFF800000
0001F0000000
ENDCHAR
STARTCHAR 00F3
ENCODING 243
SWIDTH 562 0
DWIDTH 50 0
BBX 42 69 4 -1
BITMAP
00000001FF00
00000001FE00
00000003FC00
00000007FC00
00000007F800
0000000FF000
0000001FE000
0000003FC000
0000007F8000
0000007F0000
000000FC0000
000001F80000
000003F00000
000003E00000
000000000000
000000000000
000000000000
000000000000
000000000000
000000000000
00001FFC0000
0000FFFF8000
0003FFFFC000
000FFFFFF000
001FFFFFF800
003FFFFFFC00
007FF00FFE00
00FFC003FE00
01FF0001FF00
03FE0000FF00
03FC00007F80
07F800007F80
07F800003F80
0FF000003F80
0FE000003FC0
1FE000003FC0
1FC000003FC0
3FC000003FC0
3FC000003FC0
3F8000003FC0
3F8000003FC0
7F8000003FC0
7F8000003FC0
7F0000003F80
7F0000003F80
7F0000003F80
7F0000007F80
FF0000007F80
FF0000007F00
FF0000007F00
FF000000FF00
FF000000FF00
FF000000FE00
7F000001FE00
7F000001FC00
7F000003FC00
7F800007F800
7F800007F800
3FC0000FF000
3FC0001FE000
1FE0007FE000
1FF800FFC000
0FFF0FFF8000
07FFFFFF0000
03FFFFFE0000
01FFFFF80000
007FFFE00000
001FFF800000
0001F0000000
ENDCHAR
STARTCHAR 00F4
ENCODING 244
SWIDTH 562 0
DWIDTH 50 0
BBX 42 69 4 -1
BITMAP
000000FE0000
000001FF0000
000003FF0000
000007FF8000
000007FF8000
00000FFFC000
00001FCFC000
00003F8FE000
00007F07F000
0000FE03F000
0001F801F800
0007F000FC00
000FE000FC00
000FC0007E00
000000000000
000000000000
000000000000
000000000000
000000000000
000000000000
00001FFC0000
0000FFFF8000
0003FFFFC000
000FFFFFF000
001FFFFFF800
003FFFFFFC00
007FF00FFE00
00FFC003FE00
01FF0001FF00
03FE0000FF00
03FC00007F80
07F800007F80
07F800003F80
0FF000003F80
0FE000003FC0
1FE000003FC0
1FC000003FC0
3FC000003FC0
3FC000003FC0
3F8000003FC0
3F8000003FC0
7F8000003FC0
7F8000003FC0
7F0000003F80
7F0000003F80
7F0000003F80
7F0000007F80
FF0000007F80
FF0000007F00
FF0000007F00
FF000000FF00
FF000000FF00
FF000000FE00
7F000001FE00
7F000001FC00
7F000003FC00
7F800007F800
7F800007F800
3FC0000FF000
3FC0001FE000
1FE0007FE000
1FF800FFC000
0FFF0FFF8000
07FFFFFF0000
03FFFFFE0000
01FFFFF80000
007FFFE00000
001FFF800000
0001F0000000
ENDCHAR
STARTCHAR 00F5
ENCODING 245
SWIDTH 562 0
DWIDTH 50 0
BBX 43 66 4 -1
BITMAP
00003F0003E0
0000FFC003E0
0001FFF007C0
0003FFFC07C0
0007FFFE1FC0
0007FFFFFF80
000FC1FFFF00
000F807FFF00
000F803FFE00
001F000FFC00
001F0003F000
000000000000
000000000000
000000000000
000000000000
000000000000
000000000000
00001FFC0000
0000FFFF8000
0003FFFFC000
000FFFFFF000
001FFFFFF800
003FFFFFFC00
007FF00FFE00
00FFC003FE00
01FF0001FF00
03FE0000FF00
03FC00007F80
07F800007F80
07F800003F80
0FF000003F80
0FE000003FC0
1FE000003FC0
1FC000003FC0
3FC000003FC0
3FC000003FC0
3F8000003FC0
3F8000003FC0
7F8000003FC0
7F8000003FC0
7F0000003F80
7F0000003F80
7F0000003F80
7F0000007F80
FF0000007F80
FF0000007F00
FF0000007F00
FF000000FF00
FF000000FF00
FF000000FE00
7F000001FE00
7F000001FC00
7F000003FC00
7F800007F800
7F800007F800
3FC0000FF000
3FC0001FE000
1FE0007FE000
1FF800FFC000
0FFF0FFF8000
07FFFFFF0000
03FFFFFE0000
01FFFFF80000
007FFFE00000
001FFF800000
0001F0000000
ENDCHAR
STARTCHAR 00F6
ENCODING 246
SWIDTH 562 0
DWIDTH 50 0
BBX 42 66 4 -1
BITMAP
000010001800
00007C007C00
0000FE00FE00
0001FE01FE00
0001FE01FE00
0001FE01FE00
0001FC01FC00
0000FC00FC00
000070007000
000000000000
000000000000
000000000000
000000000000
000000000000
000000000000
000000000000
000000000000
00001FFC0000
0000FFFF8000
0003FFFFC000
000FFFFFF000
001FFFFFF800
003FFFFFFC00
007FF00FFE00
00FFC003FE00
01FF0001FF00
03FE0000FF00
03FC00007F80
07F800007F80
07F800003F80
0FF000003F80
0FE000003FC0
1FE000003FC0
1FC000003FC0
3FC000003FC0
3FC000003FC0
3F8000003FC0
3F8000003FC0
7F8000003FC0
7F8000003FC0
7F0000003F80
7F0000003F80
7F0000003F80
7F0000007F80
FF0000007F80
FF0000007F00
FF0000007F00
FF000000FF00
FF000000FF00
FF000000FE00
7F000001FE00
7F000001FC00
7F000003FC00
7F800007F800
7F800007F800
3FC0000FF000
3FC0001FE000
1FE0007FE000
1FF800FFC000
0FFF0FFF8000
07FFFFFF0000
03FFFFFE0000
01FFFFF80000
007FFFE00000
001FFF800000
0001F0000000
ENDCHAR
STARTCHAR 00F7
ENCODING 247
SWIDTH 562 0
DWIDTH 50 0
BBX 42 41 6 11
BITMAP
00000C000000
00003F000000
00007F800000
00007FC00000
0000FFC00000
0000FFC00000
0000FFC00000
00007F800000
00007F800000
00003F000000
000000000000
000000000000
000000000000
000000000000
000000000000
000000000000
000000000000
000000000000
FFFFFFFFFFC0
FFFFFFFFFFC0
FFFFFFFFFFC0
FFFFFFFFFFC0
FFFFFFFFFFC0
FFFFFFFFFFC0
000000000000
000000000000
000000000000
000000000000
000000000000
000000000000
000000000000
00003F000000
00007F800000
00007F800000
00007FC00000
0000FFC00000
0000FFC00000
00007FC00000
00007F800000
00007F800000
00001E000000
ENDCHAR
STARTCHAR 00F8
ENCODING 248
SWIDTH 562 0
DWIDTH 50 0
BBX 45 53 3 -2
BITMAP
0000000000C0
0000000001F0
00000FFE03F8
00007FFFC7F0
0001FFFFF7F0
0007FFFFFFE0
000FFFFFFFC0
001FFFFFFF80
003FF803FF00
007FE001FF80
00FF8000FF80
01FF0001FF80
01FE0003FFC0
03FC0007FFC0
03F8000FFFC0
07F8000FFFC0
07F0001FDFE0
0FF0003F8FE0
0FE0007F0FE0
1FE000FE0FE0
1FC001FE0FE0
1FC001FC0FE0
1FC003F80FE0
3F8007F00FC0
3F800FE01FC0
3F801FC01FC0
3F803FC01FC0
3F803F801FC0
3F807F001FC0
7F00FE001F80
7F01FC003F80
7F03F8003F80
7F03F8003F80
7F07F0007F00
7F0FE0007F00
3F9FC000FE00
3FBF8000FE00
3FFF8001FE00
3FFF0001FC00
3FFE0003F800
1FFC0007F800
1FF8000FF000
0FF0001FE000
0FFC007FE000
0FFF03FFC000
1FFFFFFF8000
3FFFFFFE0000
7FFFFFFC0000
FF3FFFF00000
FE0FFFC00000
FC00F8000000
780000000000
100000000000
ENDCHAR
STARTCHAR 00F9
ENCODING 249
SWIDTH 573 0
DWIDTH 51 0
BBX 44 69 5 -1
BITMAP
00003FC00000
00003FC00000
00001FC00000
00001FE00000
00000FE00000
000007F00000
000007F00000
000003F80000
000001F80000
000001FC0000
000000FC0000
0000007E0000
0000003F0000
0000001F0000
000000000000
000000000000
000000000000
000000000000
000000000000
000000000000
01FC00000FF0
01FC00000FE0
01FC00000FE0
03FC00000FE0
03FC00000FE0
03F800001FC0
03F800001FC0
03F800001FC0
07F800001FC0
07F000003FC0
07F000003F80
07F000003F80
0FF000003F80
0FF000003F80
0FE000007F80
0FE000007F00
0FE000007F00
1FE000007F00
1FE000007F00
1FC00000FF00
1FC00000FE00
1FC00000FE00
3FC00000FE00
3F800001FE00
3F800001FC00
3F800001FC00
7F800001FC00
7F800003FC00
7F000003FC00
7F000007F800
7F000007F800
FF000007F800
FF00000FF800
FE00001FF800
FE00001FF000
FE00003FF000
FE00007FF000
FE0000FFF000
FE0001FFE000
FF0003F7E000
FF0007EFE000
FF801FCFE000
7FE0FF8FE000
7FFFFF0FC000
3FFFFE0FC000
1FFFFC0FC000
0FFFF00FC000
07FFE00FC000
00FF00000000
ENDCHAR
STARTCHAR 00FA
ENCODING 250
SWIDTH 573 0
DWIDTH 51 0
BBX 44 69 5 -1
BITMAP
00000000FF80
00000000FF00
00000001FE00
00000003FC00
00000007FC00
00000007F800
0000000FF000
0000001FE000
0000003FC000
0000007F0000
0000007E0000
000000FC0000
000001F80000
000003F00000
000000000000
000000000000
000000000000
000000000000
000000000000
000000000000
01FC00000FF0
01FC00000FE0
01FC00000FE0
03FC00000FE0
03FC00000FE0
03F800001FC0
03F800001FC0
03F800001FC0
07F800001FC0
07F000003FC0
07F000003F80
07F000003F80
0FF000003F80
0FF000003F80
0FE000007F80
0FE000007F00
0FE000007F00
1FE000007F00
1FE000007F00
1FC00000FF00
1FC00000FE00
1FC00000FE00
3FC00000FE00
3F800001FE00
3F800001FC00
3F800001FC00
7F800001FC00
7F800003FC00
7F000003FC00
7F000007F800
7F000007F800
FF000007F800
FF00000FF800
FE00001FF800
FE00001FF000
FE00003FF000
FE00007FF000
FE0000FFF000
FE0001FFE000
FF0003F7E000
FF0007EFE000
FF801FCFE000
7FE0FF8FE000
7FFFFF0FC000
3FFFFE0FC000
1FFFFC0FC000
0FFFF00FC000
07FFE00FC000
00FF00000000
ENDCHAR
STARTCHAR 00FB
ENCODING 251
SWIDTH 573 0
DWIDTH 51 0
BBX 44 69 5 -1
BITMAP
0000007F0000
000000FF8000
000001FF8000
000003FFC000
000007FFC000
000007FFE000
00000FE7E000
00001FC7F000
00003F83F800
00007F01F800
0001FC00FC00
0003F8007E00
0007F0007E00
0007C0003F00
000000000000
000000000000
000000000000
000000000000
000000000000
000000000000
01FC00000FF0
01FC00000FE0
01FC00000FE0
03FC00000FE0
03FC00000FE0
03F800001FC0
03F800001FC0
03F800001FC0
07F800001FC0
07F000003FC0
07F000003F80
07F000003F80
0FF000003F80
0FF000003F80
0FE000007F80
0FE000007F00
0FE000007F00
1FE000007F00
1FE000007F00
1FC00000FF00
1FC00000FE00
1FC00000FE00
3FC00000FE00
3F800001FE00
3F800001FC00
3F800001FC00
7F800001FC00
7F800003FC00
7F000003FC00
7F000007F800
7F000007F800
FF000007F800
FF00000FF800
FE00001FF800
FE00001FF000
FE00003FF000
FE00007FF000
FE0000FFF000
FE0001FFE000
FF0003F7E000
FF0007EFE000
FF801FCFE000
7FE0FF8FE000
7FFFFF0FC000
3FFFFE0FC000
1FFFFC0FC000
0FFFF00FC000
07FFE00FC000
00FF00000000
ENDCHAR
STARTCHAR 00FC
ENCODING 252
SWIDTH 573 0
DWIDTH 51 0
BBX 44 66 5 -1
BITMAP
000008000C00
00007E007E00
00007F007F00
0000FF00FF00
0000FF00FF00
0000FF00FF00
0000FE00FE00
00007C007C00
000038003800
000000000000
000000000000
000000000000
000000000000
000000000000
000000000000
000000000000
000000000000
01FC00000FF0
01FC00000FE0
01FC00000FE0
03FC00000FE0
03FC00000FE0
03F800001FC0
03F800001FC0
03F800001FC0
07F800001FC0
07F000003FC0
07F000003F80
07F000003F80
0FF000003F80
0FF000003F80
0FE000007F80
0FE000007F00
0FE000007F00
1FE000007F00
1FE000007F00
1FC00000FF00
1FC00000FE00
1FC00000FE00
3FC00000FE00
3F800001FE00
3F800001FC00
3F800001FC00
7F800001FC00
7F800003FC00
7F000003FC00
7F000007F800
7F000007F800
FF000007F800
FF00000FF800
FE00001FF800
FE00001FF000
FE00003FF000
FE00007FF000
FE0000FFF000
FE0001FFE000
FF0003F7E000
FF0007EFE000
FF801FCFE000
7FE0FF8FE000
7FFFFF0FC000
3FFFFE0FC000
1FFFFC0FC000
0FFFF00FC000
07FFE00FC000
00FF00000000
ENDCHAR
STARTCHAR 00FD
ENCODING 253
SWIDTH 450 0
DWIDTH 40 0
BBX 54 89 -9 -21
BITMAP
0000000001FF00
0000000001FE00
0000000003FE00
0000000007FC00
0000000007F800
000000000FF000
000000001FE000
000000003FC000
000000003F8000
000000007F0000
00000000FE0000
00000001FC0000
00000003F00000
00000003E00000
00000000000000
00000000000000
00000000000000
00000000000000
00000000000000
00000000000000
0007F8000003FC
0007F8000003FC
0003F8000007F8
0003F8000007F8
0003F800000FF0
0003F800000FE0
0003F800001FE0
0003FC00001FC0
0003FC00003FC0
0001FC00003F80
0001FC00007F80
0001FC00007F00
0001FC0000FF00
0001FC0000FE00
0001FC0001FE00
0000FE0003FC00
0000FE0003F800
0000FE0007F800
0000FE0007F000
0000FE000FF000
0000FE000FE000
0000FE001FE000
00007F001FC000
00007F003FC000
00007F003F8000
00007F007F8000
00007F007F0000
00007F00FE0000
00007F00FE0000
00003F01FC0000
00003F01FC0000
00003F83F80000
00003F83F80000
00003F87F00000
00003F87F00000
00001F8FE00000
00001F8FE00000
00001F9FC00000
00001F9F800000
00001FBF800000
00001FBF000000
00001FFF000000
00000FFE000000
00000FFE000000
00000FFC000000
00000FFC000000
00000FF8000000
00000FF8000000
000007F0000000
00000FE0000000
00001FE0000000
00001FC0000000
00003FC0000000
00003F80000000
00007F80000000
00007F00000000
0000FF00000000
0001FE00000000
0001FC00000000
0003FC00000000
0007F800000000
000FF000000000
003FF000000000
FFFFE000000000
FFFFC000000000
FFFF8000000000
FFFF0000000000
FFFC0000000000
FFF00000000000
ENDCHAR
STARTCHAR 00FE
ENCODING 254
SWIDTH 573 0
DWIDTH 51 0
BBX 49 89 -2 -21
BITMAP
00001FC0000000
00001FC0000000
00003FC0000000
00003F80000000
00003F80000000
00003F80000000
00003F80000000
00007F80000000
00007F00000000
00007F00000000
00007F00000000
0000FF00000000
0000FF00000000
0000FE00000000
0000FE00000000
0000FE00000000
0001FE00000000
0001FC00000000
0001FC00000000
0001FC00000000
0001FC01FF8000
0003F807FFE000
0003F81FFFF000
0003F83FFFF800
0003F8FFFFFC00
0003F1FFFFFE00
0007F3FC07FE00
0007F7F001FF00
0007F7C000FF00
0007EF8000FF00
000FFF00007F00
000FFE00007F80
000FFC00007F80
000FFC00007F80
000FF800007F80
001FF000003F80
001FF000003F80
001FE000007F80
001FE000007F80
001FC000007F80
003FC000007F80
003FC000007F80
003F8000007F00
003F8000007F00
003F8000007F00
007F000000FF00
007F000000FF00
007F000000FF00
007F000000FE00
00FF000001FE00
00FF000001FE00
00FF000003FC00
00FF000003FC00
00FF000003FC00
01FF000007F800
01FF00000FF800
01FF00000FF000
01FF00001FF000
01FF80003FE000
03FF80007FC000
03FFC000FFC000
03FBF003FF8000
03FBFC0FFF0000
03F1FFFFFE0000
07F0FFFFFC0000
07F07FFFF00000
07F03FFFE00000
07F00FFF800000
0FF003F8000000
0FE00000000000
0FE00000000000
0FE00000000000
0FE00000000000
1FE00000000000
1FC00000000000
1FC00000000000
1FC00000000000
1FC00000000000
3FC00000000000
3F800000000000
3F800000000000
3F800000000000
3F800000000000
7F000000000000
7F000000000000
7F000000000000
7F000000000000
FF000000000000
FE000000000000
ENDCHAR
STARTCHAR 00FF
ENCODING 255
SWIDTH 450 0
DWIDTH 40 0
BBX 54 86 -9 -21
BITMAP
00000038003800
0000007E007E00
000000FE00FE00
000000FE00FE00
000001FE01FE00
000001FE01FE00
000000FE01FC00
000000FC00FC00
00000070007000
00000000000000
00000000000000
00000000000000
00000000000000
00000000000000
00000000000000
00000000000000
00000000000000
0007F8000003FC
0007F8000003FC
0003F8000007F8
0003F8000007F8
0003F800000FF0
0003F800000FE0
0003F800001FE0
0003FC00001FC0
0003FC00003FC0
0001FC00003F80
0001FC00007F80
0001FC00007F00
0001FC0000FF00
0001FC0000FE00
0001FC0001FE00
0000FE0003FC00
0000FE0003F800
0000FE0007F800
0000FE0007F000
0000FE000FF000
0000FE000FE000
0000FE001FE000
00007F001FC000
00007F003FC000
00007F003F8000
00007F007F8000
00007F007F0000
00007F00FE0000
00007F00FE0000
00003F01FC0000
00003F01FC0000
00003F83F80000
00003F83F80000
00003F87F00000
00003F87F00000
00001F8FE00000
00001F8FE00000
00001F9FC00000
00001F9F800000
00001FBF800000
00001FBF000000
00001FFF000000
00000FFE000000
00000FFE000000
00000FFC000000
00000FFC000000
00000FF8000000
00000FF8000000
000007F0000000
00000FE0000000
00001FE0000000
00001FC0000000
00003FC0000000
00003F80000000
00007F80000000
00007F00000000
0000FF00000000
0001FE00000000
0001FC00000000
0003FC00000000
0007F800000000
000FF000000000
003FF000000000
FFFFE000000000
FFFFC000000000
FFFF8000000000
FFFF0000000000
FFFC0000000000
FFF00000000000
ENDCHAR
STARTCHAR 0100
ENCODING 256
SWIDTH 551 0
DWIDTH 49 0
BBX 52 76 -5 0
BITMAP
00000007FFFFF0
00000007FFFFF0
0000000FFFFFF0
0000000FFFFFF0
0000000FFFFFF0
0000000FFFFFE0
00000000000000
00000000000000
00000000000000
00000000000000
00000000000000
00000000000000
00000000000000
000000003FE000
000000003FE000
000000007FE000
000000007FE000
00000000FFE000
00000000FFE000
00000001FFE000
00000003FFE000
00000003FFF000
00000007F7F000
00000007F7F000
0000000FE7F000
0000000FE7F000
0000001FC3F000
0000001FC3F000
0000003F83F000
0000007F83F800
0000007F03F800
000000FF03F800
000000FE03F800
000001FE03F800
000001FC03F800
000003FC03F800
000003F801F800
000007F801FC00
000007F001FC00
00000FF001FC00
00001FE001FC00
00001FC001FC00
00003FC001FC00
00003F8001FC00
00007F8001FE00
00007F0000FE00
0000FF0000FE00
0000FE0000FE00
0001FE0000FE00
0001FFFFFFFE00
0003FFFFFFFE00
0007FFFFFFFE00
0007FFFFFFFF00
000FFFFFFFFF00
000FFFFFFFFF00
001FFFFFFFFF00
001FC000007F00
003FC000007F00
003F8000007F00
007F8000007F00
00FF0000007F80
00FF0000007F80
01FE0000003F80
01FE0000003F80
03FC0000003F80
03FC0000003F80
07F80000003F80
07F80000003F80
0FF00000003FC0
0FF00000003FC0
1FE00000001FC0
3FC00000001FC0
3FC00000001FC0
7F800000001FC0
7F800000001FC0
FF000000001FC0
ENDCHAR
STARTCHAR 0101
ENCODING 257
SWIDTH 562 0
DWIDTH 50 0
BBX 44 61 4 -1
BITMAP
0000FFFFFF00
0000FFFFFF00
0000FFFFFF00
0000FFFFFF00
0000FFFFFE00
0001FFFFFE00
000000000000
000000000000
000000000000
000000000000
000000000000
000000000000
00003FF801F0
0000FFFE01F0
0003FFFF03F0
000FFFFF83F0
001FFFFFC7F0
003FFFFFC7E0
007FF00FE7E0
00FFC003EFE0
00FF8001FFE0
01FF0000FFE0
03FE0000FFC0
03FC00007FC0
07F800007FC0
07F800007FC0
0FF000007FC0
0FF000007F80
1FE000007F80
1FE000007F80
3FC000007F80
3FC000007F00
3FC000007F00
3F8000007F00
7F800000FF00
7F800000FF00
7F800000FE00
7F000000FE00
7F000001FE00
7F000001FE00
FF000001FE00
FF000003FC00
FF000003FC00
FF000007FC00
FF000007FC00
FF00000FF800
FF00000FF800
FF00001FF800
7F00003FF800
7F00007FF800
7F8000FFF000
7F8001FBF000
7FC003F3F000
3FE00FE3F000
3FF83FC7F000
1FFFFF87E000
0FFFFF07E000
07FFFE07E000
03FFF807E000
01FFE007E000
003F80000000
ENDCHAR
STARTCHAR 0102
ENCODING 258
SWIDTH 551 0
DWIDTH 49 0
BBX 54 82 -5 0
BITMAP
0000000780007C
00000007800078
000000078000F8
00000007C000F8
00000007E001F0
00000007F007F0
00000007FFFFE0
00000003FFFFE0
00000001FFFFC0
00000000FFFF80
000000007FFE00
000000001FF800
00000000000000
00000000000000
00000000000000
00000000000000
00000000000000
00000000000000
00000000000000
000000003FE000
000000003FE000
000000007FE000
000000007FE000
00000000FFE000
00000000FFE000
00000001FFE000
00000003FFE000
00000003FFF000
00000007F7F000
00000007F7F000
0000000FE7F000
0000000FE7F000
0000001FC3F000
0000001FC3F000
0000003F83F000
0000007F83F800
0000007F03F800
000000FF03F800
000000FE03F800
000001FE03F800
000001FC03F800
000003FC03F800
000003F801F800
000007F801FC00
000007F001FC00
00000FF001FC00
00001FE001FC00
00001FC001FC00
00003FC001FC00
00003F8001FC00
00007F8001FE00
00007F0000FE00
0000FF0000FE00
0000FE0000FE00
0001FE0000FE00
0001FFFFFFFE00
0003FFFFFFFE00
0007FFFFFFFE00
0007FFFFFFFF00
000FFFFFFFFF00
000FFFFFFFFF00
001FFFFFFFFF00
001FC000007F00
003FC000007F00
003F8000007F00
007F8000007F00
00FF0000007F80
00FF0000007F80
01FE0000003F80
01FE0000003F80
03FC0000003F80
03FC0000003F80
07F80000003F80
07F80000003F80
0FF00000003FC0
0FF00000003FC0
1FE00000001FC0
3FC00000001FC0
3FC00000001FC0
7F800000001FC0
7F800000001FC0
FF000000001FC0
ENDCHAR
STARTCHAR 0103
ENCODING 259
SWIDTH 562 0
DWIDTH 50 0
BBX 44 67 4 -1
BITMAP
000078000780
0000F8000F80
0000F8000F80
00007C001F80
00007C003F00
00007F00FF00
00007FFFFE00
00003FFFFC00
00003FFFF800
00001FFFF000
000007FFE000
000001FF0000
000000000000
000000000000
000000000000
000000000000
000000000000
000000000000
00003FF801F0
0000FFFE01F0
0003FFFF03F0
000FFFFF83F0
001FFFFFC7F0
003FFFFFC7E0
007FF00FE7E0
00FFC003EFE0
00FF8001FFE0
01FF0000FFE0
03FE0000FFC0
03FC00007FC0
07F800007FC0
07F800007FC0
0FF000007FC0
0FF000007F80
1FE000007F80
1FE000007F80
3FC000007F80
3FC000007F00
3FC000007F00
3F8000007F00
7F800000FF00
7F800000FF00
7F800000FE00
7F000000FE00
7F000001FE00
7F000001FE00
FF000001FE00
FF000003FC00
FF000003FC00
FF000007FC00
FF000007FC00
FF00000FF800
FF00000FF800
FF00001FF800
7F00003FF800
7F00007FF800
7F8000FFF000
7F8001FBF000
7FC003F3F000
3FE00FE3F000
3FF83FC7F000
1FFFFF87E000
0FFFFF07E000
07FFFE07E000
03FFF807E000
01FFE007E000
003F80000000
ENDCHAR
STARTCHAR 0104
ENCODING 260
SWIDTH 551 0
DWIDTH 49 0
BBX 50 82 -5 -19
BITMAP
000000003FE000
000000003FE000
000000007FE000
000000007FE000
00000000FFE000
00000000FFE000
00000001FFE000
00000003FFE000
00000003FFF000
00000007F7F000
00000007F7F000
0000000FE7F000
0000000FE7F000
0000001FC3F000
0000001FC3F000
0000003F83F000
0000007F83F800
0000007F03F800
000000FF03F800
000000FE03F800
000001FE03F800
000001FC03F800
000003FC03F800
000003F801F800
000007F801FC00
000007F001FC00
00000FF001FC00
00001FE001FC00
00001FC001FC00
00003FC001FC00
00003F8001FC00
00007F8001FE00
00007F0000FE00
0000FF0000FE00
0000FE0000FE00
0001FE0000FE00
0001FFFFFFFE00
0003FFFFFFFE00
0007FFFFFFFE00
0007FFFFFFFF00
000FFFFFFFFF00
000FFFFFFFFF00
001FFFFFFFFF00
001FC000007F00
003FC000007F00
003F8000007F00
007F8000007F00
00FF0000007F80
00FF0000007F80
01FE0000003F80
01FE0000003F80
03FC0000003F80
03FC0000003F80
07F80000003F80
07F80000003F80
0FF00000003FC0
0FF00000003FC0
1FE00000001FC0
3FC00000001FC0
3FC00000001FC0
7F800000001FC0
7F800000001FC0
FF000000001FC0
00000000003F00
00000000007E00
0000000000F800
0000000003F000
0000000007E000
0000000007C000
000000000FC000
000000001F8000
000000001F0000
000000003F0000
000000003F0000
000000003F0000
000000003F0000
000000003F8000
000000003FFE00
000000001FFE00
000000001FFE00
000000000FFE00
0000000003FE00
ENDCHAR
STARTCHAR 0105
ENCODING 261
SWIDTH 562 0
DWIDTH 50 0
BBX 44 67 4 -19
BITMAP
00003FF801F0
0000FFFE01F0
0003FFFF03F0
000FFFFF83F0
001FFFFFC7F0
003FFFFFC7E0
007FF00FE7E0
00FFC003EFE0
00FF8001FFE0
01FF0000FFE0
03FE0000FFC0
03FC00007FC0
07F800007FC0
07F800007FC0
0FF000007FC0
0FF000007F80
1FE000007F80
1FE000007F80
3FC000007F80
3FC000007F00
3FC000007F00
3F8000007F00
7F800000FF00
7F800000FF00
7F800000FE00
7F000000FE00
7F000001FE00
7F000001FE00
FF000001FE00
FF000003FC00
FF000003FC00
FF000007FC00
FF000007FC00
FF00000FF800
FF00000FF800
FF00001FF800
7F00003FF800
7F00007FF800
7F8000FFF000
7F8001FBF000
7FC003F3F000
3FE00FE3F000
3FF83FC7F000
1FFFFF87E000
0FFFFF07E000
07FFFE07E000
03FFF807E000
01FFE007E000
003F800F8000
0000003F0000
0000007E0000
000000FC0000
000001F00000
000003F00000
000007E00000
00000FC00000
00000FC00000
00000F800000
00001F800000
00001F800000
00001F800000
00001FC00000
00001FFF0000
00000FFF0000
00000FFF0000
000007FF0000
000001FF0000
ENDCHAR
STARTCHAR 0106
ENCODING 262
SWIDTH 585 0
DWIDTH 52 0
BBX 49 85 7 -1
BITMAP
0000000001FF00
0000000003FE00
0000000003FC00
0000000007F800
000000000FF000
000000001FE000
000000001FC000
000000003F8000
000000007F0000
00000000FE0000
00000001FC0000
00000001F80000
00000003F00000
00000007E00000
00000000000000
00000000000000
00000000000000
00000000000000
00000000000000
00000000000000
0000003FFFC000
000001FFFFF800
00000FFFFFFF00
00003FFFFFFF80
00007FFFFFFF80
0001FFFFFFFF00
0003FFFC03FF00
0007FFC0003E00
000FFE00000600
001FFC00000000
003FF000000000
007FE000000000
00FFC000000000
00FF8000000000
01FF0000000000
03FE0000000000
03FC0000000000
07FC0000000000
07F80000000000
0FF00000000000
0FF00000000000
1FE00000000000
1FE00000000000
3FC00000000000
3FC00000000000
3FC00000000000
7F800000000000
7F800000000000
7F800000000000
7F800000000000
FF000000000000
FF000000000000
FF000000000000
FF000000000000
FF000000000000
FF000000000000
FE000000000000
FE000000000000
FE000000000000
FE000000000000
FE000000000000
FE000000000000
FE000000000000
FE000000000000
FF000000000000
FF000000000000
FF000000000000
FF000000000000
FF800000000000
7F800000000000
7F800000000000
7FC00000000000
3FE00000000000
3FE00000000000
1FF00000000000
1FFC0000000000
0FFE0000180000
07FF8001F80000
03FFFFFFF80000
01FFFFFFF80000
00FFFFFFF80000
007FFFFFF80000
001FFFFFF80000
0007FFFF800000
00007FF0000000
ENDCHAR
STARTCHAR 0107
ENCODING 263
SWIDTH 450 0
DWIDTH 40 0
BBX 38 69 4 -1
BITMAP
00000003FC
00000007FC
0000000FF8
0000000FF0
0000001FE0
0000003FC0
0000007F80
0000007F00
000000FE00
000001FC00
000003F800
000007F000
00000FE000
00000F8000
0000000000
0000000000
0000000000
0000000000
0000000000
0000000000
00001FFF80
0000FFFFF0
0003FFFFF8
0007FFFFF0
001FFFFFF0
003FFFFFF0
007FF001E0
00FFC00020
01FF800000
01FF000000
03FE000000
07FC000000
07F8000000
0FF0000000
0FF0000000
1FE0000000
1FE0000000
1FC0000000
3FC0000000
3FC0000000
3F80000000
7F80000000
7F80000000
7F00000000
7F00000000
7F00000000
7F00000000
FF00000000
FF00000000
FF00000000
FF00000000
FF00000000
FF00000000
FF00000000
7F00000000
7F00000000
7F80000000
7F80000000
7FC0000000
3FC0000000
3FE0000400
1FF8003C00
0FFE01FC00
0FFFFFFC00
07FFFFFC00
03FFFFFC00
00FFFFF800
003FFFE000
0003FE0000
ENDCHAR
STARTCHAR 0108
ENCODING 264
SWIDTH 585 0
DWIDTH 52 0
BBX 49 85 7 -1
BITMAP
00000000FE0000
00000001FF0000
00000003FF0000
00000003FF8000
00000007FF8000
0000000FFFC000
0000001FCFC000
0000003F8FE000
0000007F07F000
000000FE03F000
000001FC01F800
000003F001FC00
000007E000FC00
00000FC0007E00
00000000000000
00000000000000
00000000000000
00000000000000
00000000000000
00000000000000
0000003FFFC000
000001FFFFF800
00000FFFFFFF00
00003FFFFFFF80
00007FFFFFFF80
0001FFFFFFFF00
0003FFFC03FF00
0007FFC0003E00
000FFE00000600
001FFC00000000
003FF000000000
007FE000000000
00FFC000000000
00FF8000000000
01FF0000000000
03FE0000000000
03FC0000000000
07FC0000000000
07F80000000000
0FF00000000000
0FF00000000000
1FE00000000000
1FE00000000000
3FC00000000000
3FC00000000000
3FC00000000000
7F800000000000
7F800000000000
7F800000000000
7F800000000000
FF000000000000
FF000000000000
FF000000000000
FF000000000000
FF000000000000
FF000000000000
FE000000000000
FE000000000000
FE000000000000
FE000000000000
FE000000000000
FE000000000000
FE000000000000
FE000000000000
FF000000000000
FF000000000000
FF000000000000
FF000000000000
FF800000000000
7F800000000000
7F800000000000
7FC00000000000
3FE00000000000
3FE00000000000
1FF00000000000
1FFC0000000000
0FFE0000180000
07FF8001F80000
03FFFFFFF80000
01FFFFFFF80000
00FFFFFFF80000
007FFFFFF80000
001FFFFFF80000
0007FFFF800000
00007FF0000000
ENDCHAR
STARTCHAR 0109
ENCODING 265
SWIDTH 450 0
DWIDTH 40 0
BBX 37 69 4 -1
BITMAP
000003FC00
000003FC00
000007FE00
00000FFE00
00001FFF00
00003FFF00
00007FBF80
0000FF1FC0
0001FC0FC0
0003F80FE0
0007F007F0
000FE003F0
001F8001F8
003F0000F8
0000000000
0000000000
0000000000
0000000000
0000000000
0000000000
00001FFF80
0000FFFFF0
0003FFFFF8
0007FFFFF0
001FFFFFF0
003FFFFFF0
007FF001E0
00FFC00020
01FF800000
01FF000000
03FE000000
07FC000000
07F8000000
0FF0000000
0FF0000000
1FE0000000
1FE0000000
1FC0000000
3FC0000000
3FC0000000
3F80000000
7F80000000
7F80000000
7F00000000
7F00000000
7F00000000
7F00000000
FF00000000
FF00000000
FF00000000
FF00000000
FF00000000
FF00000000
FF00000000
7F00000000
7F00000000
7F80000000
7F80000000
7FC0000000
3FC0000000
3FE0000400
1FF8003C00
0FFE01FC00
0FFFFFFC00
07FFFFFC00
03FFFFFC00
00FFFFF800
003FFFE000
0003FE0000
ENDCHAR
STARTCHAR 010A
ENCODING 266
SWIDTH 585 0
DWIDTH 52 0
BBX 49 82 7 -1
BITMAP
000000007C0000
00000000FE0000
00000001FE0000
00000001FE0000
00000001FE0000
00000001FE0000
00000001FE0000
00000001FC0000
00000000F80000
00000000000000
00000000000000
00000000000000
00000000000000
00000000000000
00000000000000
00000000000000
00000000000000
0000003FFFC000
000001FFFFF800
00000FFFFFFF00
00003FFFFFFF80
00007FFFFFFF80
0001FFFFFFFF00
0003FFFC03FF00
0007FFC0003E00
000FFE00000600
001FFC00000000
003FF000000000
007FE000000000
00FFC000000000
00FF8000000000
01FF0000000000
03FE0000000000
03FC0000000000
07FC0000000000
07F80000000000
0FF00000000000
0FF00000000000
1FE00000000000
1FE00000000000
3FC00000000000
3FC00000000000
3FC00000000000
7F800000000000
7F800000000000
7F800000000000
7F800000000000
FF000000000000
FF000000000000
FF000000000000
FF000000000000
FF000000000000
FF000000000000
FE000000000000
FE000000000000
FE000000000000
FE000000000000
FE000000000000
FE000000000000
FE000000000000
FE000000000000
FF000000000000
FF000000000000
FF000000000000
FF000000000000
FF800000000000
7F800000000000
7F800000000000
7FC00000000000
3FE00000000000
3FE00000000000
1FF00000000000
1FFC0000000000
0FFE0000180000
07FF8001F80000
03FFFFFFF80000
01FFFFFFF80000
00FFFFFFF80000
007FFFFFF80000
001FFFFFF80000
0007FFFF800000
00007FF0000000
ENDCHAR
STARTCHAR 010B
ENCODING 267
SWIDTH 450 0
DWIDTH 40 0
BBX 37 66 4 -1
BITMAP
000001F800
000003FC00
000003FC00
000007FC00
000007FC00
000007FC00
000007F800
000003F800
000001E000
0000000000
0000000000
0000000000
0000000000
0000000000
0000000000
0000000000
0000000000
00001FFF80
0000FFFFF0
0003FFFFF8
0007FFFFF0
001FFFFFF0
003FFFFFF0
007FF001E0
00FFC00020
01FF800000
01FF000000
03FE000000
07FC000000
07F8000000
0FF0000000
0FF0000000
1FE0000000
1FE0000000
1FC0000000
3FC0000000
3FC0000000
3F80000000
7F80000000
7F80000000
7F00000000
7F00000000
7F00000000
7F00000000
FF00000000
FF00000000
FF00000000
FF00000000
FF00000000
FF00000000
FF00000000
7F00000000
7F00000000
7F80000000
7F80000000
7FC0000000
3FC0000000
3FE0000400
1FF8003C00
0FFE01FC00
0FFFFFFC00
07FFFFFC00
03FFFFFC00
00FFFFF800
003FFFE000
0003FE0000
ENDCHAR
STARTCHAR 010C
ENCODING 268
SWIDTH 585 0
DWIDTH 52 0
BBX 50 85 7 -1
BITMAP
000001F0000FC0
000001F8001F80
000000FC007F00
000000FE00FE00
0000007E01FC00
0000003F03F800
0000003F8FF000
0000001FDFE000
0000001FFFC000
0000000FFF8000
0000000FFF0000
00000007FE0000
00000007FC0000
00000003FC0000
00000000000000
00000000000000
00000000000000
00000000000000
00000000000000
00000000000000
0000003FFFC000
000001FFFFF800
00000FFFFFFF00
00003FFFFFFF80
00007FFFFFFF80
0001FFFFFFFF00
0003FFFC03FF00
0007FFC0003E00
000FFE00000600
001FFC00000000
003FF000000000
007FE000000000
00FFC000000000
00FF8000000000
01FF0000000000
03FE0000000000
03FC0000000000
07FC0000000000
07F80000000000
0FF00000000000
0FF00000000000
1FE00000000000
1FE00000000000
3FC00000000000
3FC00000000000
3FC00000000000
7F800000000000
7F800000000000
7F800000000000
7F800000000000
FF000000000000
FF000000000000
FF000000000000
FF000000000000
FF000000000000
FF000000000000
FE000000000000
FE000000000000
FE000000000000
FE000000000000
FE000000000000
FE000000000000
FE000000000000
FE000000000000
FF000000000000
FF000000000000
FF000000000000
FF000000000000
FF800000000000
7F800000000000
7F800000000000
7FC00000000000
3FE00000000000
3FE00000000000
1FF00000000000
1FFC0000000000
0FFE0000180000
07FF8001F80000
03FFFFFFF80000
01FFFFFFF80000
00FFFFFFF80000
007FFFFFF80000
001FFFFFF80000
0007FFFF800000
00007FF0000000
ENDCHAR
STARTCHAR 010D
ENCODING 269
SWIDTH 450 0
DWIDTH 40 0
BBX 40 69 4 -1
BITMAP
0003E0001F
0003F0007F
0001F800FE
0001F801FC
0000FC07F8
0000FE0FF0
00007F1FE0
00003F3FC0
00003FFF80
00001FFF00
00001FFE00
00000FFC00
00000FF800
000007F000
0000000000
0000000000
0000000000
0000000000
0000000000
0000000000
00001FFF80
0000FFFFF0
0003FFFFF8
0007FFFFF0
001FFFFFF0
003FFFFFF0
007FF001E0
00FFC00020
01FF800000
01FF000000
03FE000000
07FC000000
07F8000000
0FF0000000
0FF0000000
1FE0000000
1FE0000000
1FC0000000
3FC0000000
3FC0000000
3F80000000
7F80000000
7F80000000
7F00000000
7F00000000
7F00000000
7F00000000
FF00000000
FF00000000
FF00000000
FF00000000
FF00000000
FF00000000
FF00000000
7F00000000
7F00000000
7F80000000
7F80000000
7FC0000000
3FC0000000
3FE0000400
1FF8003C00
0FFE01FC00
0FFFFFFC00
07FFFFFC00
03FFFFFC00
00FFFFF800
003FFFE000
0003FE0000
ENDCHAR
STARTCHAR 010E
ENCODING 270
SWIDTH 663 0
DWIDTH 59 0
BBX 53 84 4 0
BITMAP
000000F80003E0
0000007C000FE0
0000007E001FC0
0000003F003F80
0000003F80FE00
0000001FC1FC00
0000000FC3F800
0000000FE7F000
00000007FFE000
00000007FFC000
00000003FF8000
00000003FF8000
00000001FF0000
00000001FE0000
00000000000000
00000000000000
00000000000000
00000000000000
00000000000000
00000000000000
00000000000000
0007FFFFF00000
0007FFFFFE0000
0007FFFFFF8000
000FFFFFFFE000
000FFFFFFFF800
000FFFFFFFFC00
000FE0007FFE00
001FE0000FFF00
001FE00003FF00
001FC00001FF80
001FC00000FFC0
001FC000007FC0
003FC000003FC0
003FC000003FE0
003F8000001FE0
003F8000001FE0
003F8000000FF0
007F8000000FF0
007F0000000FF0
007F0000000FF0
007F00000007F0
00FF00000007F0
00FF00000007F0
00FE00000007F8
00FE00000007F8
00FE00000007F8
01FE00000007F8
01FE00000007F0
01FC00000007F0
01FC00000007F0
01FC0000000FF0
03FC0000000FF0
03FC0000000FF0
03F80000000FF0
03F80000000FF0
03F80000001FE0
07F80000001FE0
07F00000001FE0
07F00000003FE0
07F00000003FC0
0FF00000003FC0
0FF00000007FC0
0FE00000007F80
0FE0000000FF80
0FE0000001FF00
1FE0000001FF00
1FE0000003FE00
1FC0000007FC00
1FC000000FFC00
1FC000001FF800
3FC000003FF000
3F8000007FE000
3F800001FFC000
3F800003FF8000
3F80001FFF0000
7F80007FFE0000
7F003FFFFC0000
7FFFFFFFF00000
7FFFFFFFE00000
FFFFFFFF800000
FFFFFFFC000000
FFFFFFE0000000
FFFFFC00000000
ENDCHAR
STARTCHAR 010F
ENCODING 271
SWIDTH 607 0
DWIDTH 54 0
BBX 63 69 4 -1
BITMAP
00000000003F807E
00000000007F80FE
00000000007F00FE
00000000007F01FC
00000000007F01FC
00000000007F03F8
0000000000FF03F0
0000000000FE07F0
0000000000FE07E0
0000000000FE0FC0
0000000000FE0FC0
0000000001FE1F80
0000000001FC1F00
0000000001FC3E00
0000000001FC3C00
0000000001FC0000
0000000003F80000
0000000003F80000
0000000003F80000
0000000003F80000
00003FF807F80000
0001FFFE07F00000
0003FFFF07F00000
000FFFFF87F00000
001FFFFFC7F00000
003FFFFFE7F00000
007FF007E7E00000
00FFC003FFE00000
01FF8001FFE00000
01FF0000FFE00000
03FE0000FFE00000
07FC00007FC00000
07F800007FC00000
0FF800007FC00000
0FF000007FC00000
1FE000007F800000
1FE000007F800000
1FE000007F800000
3FC000007F800000
3FC000007F800000
3F8000007F000000
3F8000007F000000
7F8000007F000000
7F8000007F000000
7F000000FF000000
7F000000FE000000
7F000000FE000000
FF000001FE000000
FF000001FE000000
FF000003FC000000
FF000003FC000000
FF000007FC000000
FF000007FC000000
FF00000FFC000000
FF00000FF8000000
FF00001FF8000000
FF00003FF8000000
7F00007FF8000000
7F8000FFF8000000
7F8001FBF0000000
7FC003F3F0000000
3FE00FE7F0000000
3FF83FC7F0000000
1FFFFF87F0000000
0FFFFF07E0000000
0FFFFE07E0000000
03FFF807E0000000
01FFF007E0000000
003F800000000000
ENDCHAR
STARTCHAR 0110
ENCODING 272
SWIDTH 663 0
DWIDTH 59 0
BBX 54 63 3 0
BITMAP
0003FFFFF80000
0003FFFFFF0000
0007FFFFFFC000
0007FFFFFFF000
0007FFFFFFFC00
0007FFFFFFFE00
0007F0003FFF00
000FF00007FF80
000FF00001FF80
000FE00000FFC0
000FE000007FE0
000FE000003FE0
001FE000001FE0
001FE000001FF0
001FC000000FF0
001FC000000FF0
001FC0000007F8
003FC0000007F8
003F80000007F8
003F80000007F8
003F80000003F8
007F80000003F8
007F80000003F8
007F00000003FC
007F00000003FC
007F00000003FC
00FF00000003FC
00FF00000003F8
7FFFFFFC0003F8
7FFFFFF80003F8
7FFFFFF80007F8
7FFFFFF80007F8
FFFFFFF80007F8
FFFFFFF80007F8
FFFFFFF00007F8
03FC0000000FF0
03FC0000000FF0
03F80000000FF0
03F80000001FF0
03F80000001FE0
07F80000001FE0
07F80000003FE0
07F00000003FC0
07F00000007FC0
07F0000000FF80
0FF0000000FF80
0FF0000001FF00
0FE0000003FE00
0FE0000007FE00
0FE000000FFC00
1FE000001FF800
1FC000003FF000
1FC00000FFE000
1FC00001FFC000
3FC0000FFF8000
3FC0003FFF0000
3F801FFFFE0000
3FFFFFFFF80000
3FFFFFFFF00000
7FFFFFFFC00000
7FFFFFFE000000
7FFFFFF0000000
7FFFFE00000000
ENDCHAR
STARTCHAR 0111
ENCODING 273
SWIDTH 573 0
DWIDTH 51 0
BBX 53 69 4 -1
BITMAP
00000000003F80
00000000003F80
00000000007F80
00000000007F00
00000000007F00
00000000007F00
00000000007F00
0000000000FE00
0000000000FE00
000001FFFFFFF8
000001FFFFFFF8
000001FFFFFFF8
000001FFFFFFF8
000001FFFFFFF8
0000000001FC00
0000000003FC00
0000000003F800
0000000003F800
0000000003F800
0000000003F800
00003FF807F800
0001FFFE07F000
0007FFFF07F000
000FFFFF87F000
001FFFFFC7F000
003FFFFFE7F000
007FF007E7E000
00FFC003FFE000
01FF8001FFE000
01FF0000FFE000
03FE00007FE000
07FC00007FC000
07F800007FC000
0FF800007FC000
0FF000007FC000
1FE000007F8000
1FE000007F8000
1FE000007F8000
3FC000007F8000
3FC000007F8000
3F8000007F0000
3F8000007F0000
7F8000007F0000
7F8000007F0000
7F800000FF0000
7F000000FE0000
7F000000FE0000
7F000001FE0000
FF000001FE0000
FF000001FE0000
FF000003FC0000
FF000003FC0000
FF000007FC0000
FF00000FFC0000
FF00000FF80000
FF00001FF80000
7F00003FF80000
7F00007FF80000
7F8000FFF80000
7F8001FBF00000
7FC003F3F00000
3FE007E7F00000
3FF83FC7F00000
1FFFFF87F00000
0FFFFF07E00000
07FFFE07E00000
03FFFC07E00000
01FFF007E00000
003F8000000000
ENDCHAR
STARTCHAR 0112
ENCODING 274
SWIDTH 506 0
DWIDTH 45 0
BBX 45 76 4 0
BITMAP
00001FFFFFE0
00001FFFFFE0
00001FFFFFE0
00001FFFFFC0
00003FFFFFC0
00003FFFFFC0
000000000000
000000000000
000000000000
000000000000
000000000000
000000000000
000000000000
0007FFFFFFF8
0007FFFFFFF8
0007FFFFFFF8
000FFFFFFFF0
000FFFFFFFF0
000FFFFFFFF0
000FE0000000
001FE0000000
001FE0000000
001FC0000000
001FC0000000
001FC0000000
003FC0000000
003FC0000000
003F80000000
003F80000000
003F80000000
007F80000000
007F00000000
007F00000000
007F00000000
00FF00000000
00FF00000000
00FE00000000
00FE00000000
00FE00000000
01FE00000000
01FFFFFFFC00
01FFFFFFFC00
01FFFFFFF800
01FFFFFFF800
03FFFFFFF800
03FFFFFFF800
03F800000000
03F800000000
03F800000000
07F800000000
07F000000000
07F000000000
07F000000000
0FF000000000
0FF000000000
0FE000000000
0FE000000000
0FE000000000
1FE000000000
1FE000000000
1FC000000000
1FC000000000
1FC000000000
3FC000000000
3F8000000000
3F8000000000
3F8000000000
3F8000000000
7F8000000000
7FFFFFFF8000
7FFFFFFF8000
7FFFFFFF8000
FFFFFFFF8000
FFFFFFFF0000
FFFFFFFF0000
FFFFFFFF0000
ENDCHAR
STARTCHAR 0113
ENCODING 275
SWIDTH 495 0
DWIDTH 44 0
BBX 38 61 4 -1
BITMAP
0003FFFFFC
0003FFFFFC
0003FFFFF8
0007FFFFF8
0007FFFFF8
0007FFFFF8
0000000000
0000000000
0000000000
0000000000
0000000000
0000000000
00003FFE00
0000FFFF80
0003FFFFC0
0007FFFFE0
001FFFFFF0
003FFFFFF8
007FF00FF8
00FFC007F8
00FF0003F8
01FE0003FC
03FC0003FC
03FC0003FC
07F80003F8
0FF00003F8
0FF00003F8
1FE00007F8
1FE0000FF0
1FC0001FF0
3FC0007FE0
3FC001FFC0
3F801FFF80
7FFFFFFF00
7FFFFFFE00
7FFFFFF800
7FFFFFE000
7FFFFF0000
7FFFE00000
7F00000000
FF00000000
FF00000000
FF00000000
FF00000000
FF00000000
7F00000000
7F00000000
7F00000000
7F80000000
7F80000000
3FC0000000
3FC0000100
3FE0000700
1FF8001F00
0FFE01FF00
0FFFFFFF00
07FFFFFF00
03FFFFFF00
00FFFFF800
003FFFE000
0003FE0000
ENDCHAR
STARTCHAR 0114
ENCODING 276
SWIDTH 506 0
DWIDTH 45 0
BBX 45 82 4 0
BITMAP
00001F0000F0
00001F0001F0
00001F0001F0
00001F0003E0
00001F8007E0
00000FE01FC0
00000FFFFFC0
00000FFFFF80
000007FFFF00
000003FFFE00
000001FFFC00
0000007FE000
000000000000
000000000000
000000000000
000000000000
000000000000
000000000000
000000000000
0007FFFFFFF8
0007FFFFFFF8
0007FFFFFFF8
000FFFFFFFF0
000FFFFFFFF0
000FFFFFFFF0
000FE0000000
001FE0000000
001FE0000000
001FC0000000
001FC0000000
001FC0000000
003FC0000000
003FC0000000
003F80000000
003F80000000
003F80000000
007F80000000
007F00000000
007F00000000
007F00000000
00FF00000000
00FF00000000
00FE00000000
00FE00000000
00FE00000000
01FE00000000
01FFFFFFFC00
01FFFFFFFC00
01FFFFFFF800
01FFFFFFF800
03FFFFFFF800
03FFFFFFF800
03F800000000
03F800000000
03F800000000
07F800000000
07F000000000
07F000000000
07F000000000
0FF000000000
0FF000000000
0FE000000000
0FE000000000
0FE000000000
1FE000000000
1FE000000000
1FC000000000
1FC000000000
1FC000000000
3FC000000000
3F8000000000
3F8000000000
3F8000000000
3F8000000000
7F8000000000
7FFFFFFF8000
7FFFFFFF8000
7FFFFFFF8000
FFFFFFFF8000
FFFFFFFF0000
FFFFFFFF0000
FFFFFFFF0000
ENDCHAR
STARTCHAR 0115
ENCODING 277
SWIDTH 495 0
DWIDTH 44 0
BBX 39 67 4 -1
BITMAP
0003E0001E
0003E0003E
0003E0003E
0003E0007C
0003F000FC
0001FC03F8
0001FFFFF8
0001FFFFF0
0000FFFFE0
00007FFFC0
00003FFF00
000007FC00
0000000000
0000000000
0000000000
0000000000
0000000000
0000000000
00003FFE00
0000FFFF80
0003FFFFC0
0007FFFFE0
001FFFFFF0
003FFFFFF8
007FF00FF8
00FFC007F8
00FF0003F8
01FE0003FC
03FC0003FC
03FC0003FC
07F80003F8
0FF00003F8
0FF00003F8
1FE00007F8
1FE0000FF0
1FC0001FF0
3FC0007FE0
3FC001FFC0
3F801FFF80
7FFFFFFF00
7FFFFFFE00
7FFFFFF800
7FFFFFE000
7FFFFF0000
7FFFE00000
7F00000000
FF00000000
FF00000000
FF00000000
FF00000000
FF00000000
7F00000000
7F00000000
7F00000000
7F80000000
7F80000000
3FC0000000
3FC0000100
3FE0000700
1FF8001F00
0FFE01FF00
0FFFFFFF00
07FFFFFF00
03FFFFFF00
00FFFFF800
003FFFE000
0003FE0000
ENDCHAR
STARTCHAR 0116
ENCODING 278
SWIDTH 506 0
DWIDTH 45 0
BBX 45 81 4 0
BITMAP
00000007E000
0000000FE000
0000000FF000
0000001FF000
0000001FF000
0000001FF000
0000001FE000
0000000FC000
000000078000
000000000000
000000000000
000000000000
000000000000
000000000000
000000000000
000000000000
000000000000
000000000000
0007FFFFFFF8
0007FFFFFFF8
0007FFFFFFF8
000FFFFFFFF0
000FFFFFFFF0
000FFFFFFFF0
000FE0000000
001FE0000000
001FE0000000
001FC0000000
001FC0000000
001FC0000000
003FC0000000
003FC0000000
003F80000000
003F80000000
003F80000000
007F80000000
007F00000000
007F00000000
007F00000000
00FF00000000
00FF00000000
00FE00000000
00FE00000000
00FE00000000
01FE00000000
01FFFFFFFC00
01FFFFFFFC00
01FFFFFFF800
01FFFFFFF800
03FFFFFFF800
03FFFFFFF800
03F800000000
03F800000000
03F800000000
07F800000000
07F000000000
07F000000000
07F000000000
0FF000000000
0FF000000000
0FE000000000
0FE000000000
0FE000000000
1FE000000000
1FE000000000
1FC000000000
1FC000000000
1FC000000000
3FC000000000
3F8000000000
3F8000000000
3F8000000000
3F8000000000
7F8000000000
7FFFFFFF8000
7FFFFFFF8000
7FFFFFFF8000
FFFFFFFF8000
FFFFFFFF0000
FFFFFFFF0000
FFFFFFFF0000
ENDCHAR
STARTCHAR 0117
ENCODING 279
SWIDTH 495 0
DWIDTH 44 0
BBX 38 66 4 -1
BITMAP
000000F800
000001FC00
000003FE00
000003FE00
000003FE00
000003FC00
000003FC00
000003F800
000000F000
0000000000
0000000000
0000000000
0000000000
0000000000
0000000000
0000000000
0000000000
00003FFE00
0000FFFF80
0003FFFFC0
0007FFFFE0
001FFFFFF0
003FFFFFF8
007FF00FF8
00FFC007F8
00FF0003F8
01FE0003FC
03FC0003FC
03FC0003FC
07F80003F8
0FF00003F8
0FF00003F8
1FE00007F8
1FE0000FF0
1FC0001FF0
3FC0007FE0
3FC001FFC0
3F801FFF80
7FFFFFFF00
7FFFFFFE00
7FFFFFF800
7FFFFFE000
7FFFFF0000
7FFFE00000
7F00000000
FF00000000
FF00000000
FF00000000
FF00000000
FF00000000
7F00000000
7F00000000
7F00000000
7F80000000
7F80000000
3FC0000000
3FC0000100
3FE0000700
1FF8001F00
0FFE01FF00
0FFFFFFF00
07FFFFFF00
03FFFFFF00
00FFFFF800
003FFFE000
0003FE0000
ENDCHAR
STARTCHAR 0118
ENCODING 280
SWIDTH 506 0
DWIDTH 45 0
BBX 45 82 4 -19
BITMAP
0007FFFFFFF8
0007FFFFFFF8
0007FFFFFFF8
000FFFFFFFF0
000FFFFFFFF0
000FFFFFFFF0
000FE0000000
001FE0000000
001FE0000000
001FC0000000
001FC0000000
001FC0000000
003FC0000000
003FC0000000
003F80000000
003F80000000
003F80000000
007F80000000
007F00000000
007F00000000
007F00000000
00FF00000000
00FF00000000
00FE00000000
00FE00000000
00FE00000000
01FE00000000
01FFFFFFFC00
01FFFFFFFC00
01FFFFFFF800
01FFFFFFF800
03FFFFFFF800
03FFFFFFF800
03F800000000
03F800000000
03F800000000
07F800000000
07F000000000
07F000000000
07F000000000
0FF000000000
0FF000000000
0FE000000000
0FE000000000
0FE000000000
1FE000000000
1FE000000000
1FC000000000
1FC000000000
1FC000000000
3FC000000000
3F8000000000
3F8000000000
3F8000000000
3F8000000000
7F8000000000
7FFFFFFF8000
7FFFFFFF8000
7FFFFFFF8000
FFFFFFFF8000
FFFFFFFF0000
FFFFFFFF0000
FFFFFFFF0000
000001F80000
000003F00000
000007C00000
00001F800000
00003F000000
00007E000000
00007E000000
0000FC000000
0000F8000000
0001F8000000
0001F8000000
0001F8000000
0001F8000000
0001FC000000
0001FFF00000
0000FFF00000
0000FFF00000
00007FF00000
00001FF00000
ENDCHAR
STARTCHAR 0119
ENCODING 281
SWIDTH 495 0
DWIDTH 44 0
BBX 37 67 4 -19
BITMAP
00003FFE00
0000FFFF80
0003FFFFC0
000FFFFFE0
001FFFFFF0
003FFFFFF0
007FF00FF8
00FFC007F8
01FF0003F8
01FE0003F8
03FC0003F8
07F80003F8
07F80003F8
0FF00003F8
0FF00003F8
1FE00007F8
1FE0000FF0
1FC0001FF0
3FC0007FE0
3F8001FFC0
3F801FFF80
7FFFFFFF00
7FFFFFFE00
7FFFFFF800
7FFFFFE000
7FFFFF0000
7FFFE00000
FF00000000
FF00000000
FF00000000
FF00000000
FF00000000
FF00000000
FF00000000
7F00000000
7F00000000
7F80000000
7F80000000
7FC0000000
3FC0000100
3FE0000700
1FF8003F00
0FFE01FF00
0FFFFFFF00
07FFFFFF00
03FFFFFF00
00FFFFF800
003FFFF000
0007FFE000
00000FC000
00001F8000
00003F0000
00007E0000
0000FC0000
0001F80000
0001F00000
0003F00000
0003F00000
0003E00000
0007E00000
0007F00000
0003F00000
0003FFC000
0003FFC000
0001FFC000
0000FFC000
00007FC000
ENDCHAR
STARTCHAR 011A
ENCODING 282
SWIDTH 506 0
DWIDTH 45 0
BBX 46 84 4 0
BITMAP
00001F00007C
00001F8001FC
00000FC003F0
000007E00FE0
000007F01FC0
000003F03F80
000001F87F00
000001FCFE00
000000FFFC00
000000FFF800
0000007FF000
0000007FF000
0000003FE000
0000003FC000
000000000000
000000000000
000000000000
000000000000
000000000000
000000000000
000000000000
0007FFFFFFF8
0007FFFFFFF8
0007FFFFFFF8
000FFFFFFFF0
000FFFFFFFF0
000FFFFFFFF0
000FE0000000
001FE0000000
001FE0000000
001FC0000000
001FC0000000
001FC0000000
003FC0000000
003FC0000000
003F80000000
003F80000000
003F80000000
007F80000000
007F00000000
007F00000000
007F00000000
00FF00000000
00FF00000000
00FE00000000
00FE00000000
00FE00000000
01FE00000000
01FFFFFFFC00
01FFFFFFFC00
01FFFFFFF800
01FFFFFFF800
03FFFFFFF800
03FFFFFFF800
03F800000000
03F800000000
03F800000000
07F800000000
07F000000000
07F000000000
07F000000000
0FF000000000
0FF000000000
0FE000000000
0FE000000000
0FE000000000
1FE000000000
1FE000000000
1FC000000000
1FC000000000
1FC000000000
3FC000000000
3F8000000000
3F8000000000
3F8000000000
3F8000000000
7F8000000000
7FFFFFFF8000
7FFFFFFF8000
7FFFFFFF8000
FFFFFFFF8000
FFFFFFFF0000
FFFFFFFF0000
FFFFFFFF0000
ENDCHAR
STARTCHAR 011B
ENCODING 283
SWIDTH 495 0
DWIDTH 44 0
BBX 41 69 4 -1
BITMAP
0003E0001F80
0003F0003F00
0001F8007E00
0000FC01FC00
0000FE03F800
00007E07F000
00003F0FE000
00003FBFC000
00001FFF8000
00001FFF0000
00000FFE0000
00000FFC0000
000007FC0000
000007F80000
000000000000
000000000000
000000000000
000000000000
000000000000
000000000000
00003FFE0000
0000FFFF8000
0003FFFFC000
0007FFFFE000
001FFFFFF000
003FFFFFF800
007FF00FF800
00FFC007F800
00FF0003F800
01FE0003FC00
03FC0003FC00
03FC0003FC00
07F80003F800
0FF00003F800
0FF00003F800
1FE00007F800
1FE0000FF000
1FC0001FF000
3FC0007FE000
3FC001FFC000
3F801FFF8000
7FFFFFFF0000
7FFFFFFE0000
7FFFFFF80000
7FFFFFE00000
7FFFFF000000
7FFFE0000000
7F0000000000
FF0000000000
FF0000000000
FF0000000000
FF0000000000
FF0000000000
7F0000000000
7F0000000000
7F0000000000
7F8000000000
7F8000000000
3FC000000000
3FC000010000
3FE000070000
1FF8001F0000
0FFE01FF0000
0FFFFFFF0000
07FFFFFF0000
03FFFFFF0000
00FFFFF80000
003FFFE00000
0003FE000000
ENDCHAR
STARTCHAR 011C
ENCODING 284
SWIDTH 675 0
DWIDTH 60 0
BBX 52 85 7 -1
BITMAP
000000003F8000
000000007F8000
00000000FFC000
00000001FFC000
00000003FFE000
00000007FFF000
0000000FF7F000
0000001FE3F800
0000003FC1F800
0000007F80FC00
000000FE00FE00
000001FC007E00
000003F8003F00
000007E0001F00
00000000000000
00000000000000
00000000000000
00000000000000
00000000000000
00000000000000
0000003FFFE000
000001FFFFFE00
00000FFFFFFFC0
00003FFFFFFFF0
00007FFFFFFFF0
0001FFFFFFFFE0
0003FFFC01FFE0
0007FFC0001FC0
000FFF000003C0
001FFC00000000
003FF000000000
007FE000000000
00FFC000000000
00FF8000000000
01FF0000000000
03FE0000000000
03FC0000000000
07FC0000000000
0FF80000000000
0FF00000000000
0FF00000000000
1FE00000000000
1FE00000000000
3FC00000000000
3FC00000000000
3FC00000000000
7F800000000000
7F800000000000
7F800000000000
7F000000000000
FF000000000000
FF00000FFFFF80
FF00000FFFFF00
FF00000FFFFF00
FF00000FFFFF00
FF00001FFFFF00
FE00001FFFFE00
FE00000000FE00
FE00000000FE00
FE00000001FE00
FE00000001FE00
FE00000001FC00
FE00000001FC00
FE00000001FC00
FF00000003FC00
FF00000003FC00
FF00000003F800
FF00000003F800
FF80000003F800
7F80000007F800
7FC0000007F000
7FC0000007F000
3FE0000007F000
3FF000000FF000
1FF800000FF000
1FFC00000FE000
0FFE00000FE000
07FFC000FFE000
03FFFFFFFFE000
01FFFFFFFFC000
00FFFFFFFFC000
003FFFFFFFC000
001FFFFFFE0000
0003FFFFE00000
00003FFC000000
ENDCHAR
STARTCHAR 011D
ENCODING 285
SWIDTH 517 0
DWIDTH 46 0
BBX 53 89 -4 -21
BITMAP
00000000FE0000
00000001FE0000
00000003FF0000
00000007FF0000
0000000FFF8000
0000001FFFC000
0000003FDFC000
0000007F8FE000
000000FF07E000
000001FC03F000
000003F803F800
000007F001F800
00000FE000FC00
00001F80007C00
00000000000000
00000000000000
00000000000000
00000000000000
00000000000000
00000000000000
000000FFF80000
000003FFFFFFF8
00000FFFFFFFF0
00001FFFFFFFF0
00007FFFFFFFF0
00007FC03FFC00
0000FF000FE000
0001FE0007E000
0003FC0007F000
0003F80007F000
0007F00003F000
0007F00003F000
0007E00003F000
000FE00003F000
000FE00003F000
000FE00003F000
000FE00007F000
000FC00007F000
000FC00007F000
000FC0000FE000
000FE0000FE000
000FE0001FE000
000FE0003FC000
0007F0003FC000
0007F800FF8000
0003FC03FF0000
0001FFFFFE0000
0000FFFFFC0000
00007FFFF00000
00007FFFC00000
0001FFFE000000
0003F000000000
0007E000000000
000F8000000000
001F8000000000
003F0000000000
003F0000000000
003F0000000000
003F8000000000
003FE000000000
003FFFC0000000
001FFFFF000000
000FFFFFE00000
0007FFFFF80000
003FFFFFFC0000
00FFFFFFFE0000
03FE00FFFF0000
07F80003FF8000
0FE00000FF8000
1FC000003F8000
3F8000001FC000
7F0000001FC000
7E0000001FC000
FE0000001FC000
FE0000001FC000
FE0000001FC000
FC0000001F8000
FE0000003F8000
FE0000003F8000
FE0000007F0000
FF000000FF0000
7F800003FE0000
7FC0000FFC0000
3FF8007FF80000
1FFFFFFFF00000
0FFFFFFFE00000
07FFFFFF800000
01FFFFFC000000
003FFFE0000000
ENDCHAR
ENDFONT
